<?xml version="1.0" encoding="UTF-8" standalone="no"?>
<!-- Generator: Adobe Illustrator 25.3.1, SVG Export Plug-In . SVG Version: 6.00 Build 0)  -->

<svg
   version="1.1"
   id="Layer_1"
   x="0px"
   y="0px"
   viewBox="0 0 427.5 374.9"
   style="enable-background:new 0 0 427.5 374.9;"
   xml:space="preserve"
   sodipodi:docname="Big Metaocto Polyart Puzzle-good.svg"
   inkscape:version="1.3.2 (091e20e, 2023-11-25, custom)"
   xmlns:inkscape="http://www.inkscape.org/namespaces/inkscape"
   xmlns:sodipodi="http://sodipodi.sourceforge.net/DTD/sodipodi-0.dtd"
   xmlns="http://www.w3.org/2000/svg"
   xmlns:svg="http://www.w3.org/2000/svg"><defs
   id="defs468" /><sodipodi:namedview
   id="namedview468"
   pagecolor="#505050"
   bordercolor="#eeeeee"
   borderopacity="1"
   inkscape:showpageshadow="0"
   inkscape:pageopacity="0"
   inkscape:pagecheckerboard="0"
   inkscape:deskcolor="#505050"
   inkscape:zoom="1.7450292"
   inkscape:cx="85.098861"
   inkscape:cy="195.12567"
   inkscape:window-width="1920"
   inkscape:window-height="986"
   inkscape:window-x="-11"
   inkscape:window-y="-11"
   inkscape:window-maximized="1"
   inkscape:current-layer="_2_Legs" />
<style
   type="text/css"
   id="style1">
	.st0{fill:#64286B;}
	.st1{fill:#962688;}
	.st2{fill:#7B2164;}
	.st3{fill:#42363F;}
	.st4{fill:#BAAFB8;}
	.st5{fill:red;}
</style>
<g
   id="head"
   style="display:inline">
	
	<polygon
   class="st1"
   points="213.2,104.9 228.9,84.7 227.8,104 "
   id="polygon2" />
	<polygon
   class="st1"
   points="213.7,94.4 226.6,84.4 212.8,103.8 "
   id="polygon3" />
	<polygon
   class="st2"
   points="210.4,92.5 211.1,84 214.6,89.3 "
   id="polygon4" />
	<polygon
   class="st2"
   points="194,90.4 209.9,83.5 207.5,92.2 "
   id="polygon5" />
	<polygon
   class="st2"
   points="191.1,89 208.4,81.9 202.3,80.9 "
   id="polygon6" />
	<polygon
   class="st2"
   points="184.8,89.6 196.7,81.9 169.8,87.6 "
   id="polygon7" />
	<polygon
   class="st1"
   points="158.6,103 185.9,92.1 204.3,94.2 "
   id="polygon8" />
	<polygon
   class="st2"
   points="159.4,105.4 209.8,95.6 193.1,106.5 "
   id="polygon9" />
	<polygon
   class="st2"
   points="185.2,109 152.1,108.5 156.5,115 "
   id="polygon10" />
	<polygon
   class="st2"
   points="219.4,72.4 219.7,60.5 221.8,69.1 "
   id="polygon11" />
	<polygon
   class="st0"
   points="209.6,78.8 218.2,63.2 218.1,69.9 "
   id="polygon12" />
	<polygon
   class="st2"
   points="218.2,71.7 210.1,79.7 212.8,82.6 "
   id="polygon13" />
	<polygon
   class="st2"
   points="227.2,68.6 213.4,83.3 222.1,70.2 "
   id="polygon14"
   style="fill:#962688;fill-opacity:1" />
	<polygon
   class="st2"
   points="225.9,73 214.2,84.4 215.9,88.3 "
   id="polygon15"
   style="fill:#962688;fill-opacity:1" />
	<polygon
   class="st2"
   points="216.5,90.4 228,72.5 227.8,81.8 "
   id="polygon16"
   style="fill:#962688;fill-opacity:1" />
	<polygon
   class="st2"
   points="208.4,60.6 216.9,60.7 213.1,54.4 "
   id="polygon17" />
	<polygon
   class="st2"
   points="203.2,62.7 209.8,56.3 204.2,64.4 "
   id="polygon18"
   style="fill:#962688;fill-opacity:1" />
	<polygon
   class="st2"
   points="203.5,72.9 202.9,64.5 209.8,72.5 "
   id="polygon19" />
	<polygon
   class="st2"
   points="207.3,77.5 203.5,73.8 210.8,73.3 "
   id="polygon20" />
	<polygon
   class="st3"
   points="210.9,72.6 208.1,69 212.9,69.4 "
   id="polygon21" />
	<polygon
   class="st3"
   points="217.2,63.1 211.1,68.3 213.4,68.5 "
   id="polygon22" />
	<polygon
   class="st2"
   points="213.4,63.7 211.4,61.9 206.1,63.5 "
   id="polygon23" />
	<polygon
   class="st4"
   points="209,67.5 206.6,64.9 212,64.9 "
   id="polygon24" />
	<polygon
   class="st2"
   points="216.8,61.8 212.4,61.7 214.6,63.9 "
   id="polygon25" />
	<polygon
   class="st2"
   points="290.9,104.6 278.8,92.7 287.3,86.7 "
   id="polygon26" /><polygon
   class="st0"
   points="330.5,115.8 337.6,106.1 345.4,111.7 "
   id="polygon1" />
	<polygon
   class="st0"
   points="324.6,116.1 290.9,86.3 305.4,86.7 "
   id="polygon27" />
	<polygon
   class="st0"
   points="264.2,93.2 293.2,112.1 282,110 "
   id="polygon28" />
	<polygon
   class="st0"
   points="272.2,109.5 265.4,96.7 280,111.9 "
   id="polygon29" />
	<polygon
   class="st1"
   points="231.8,104.1 231.3,84.4 237.7,95.2 "
   id="polygon30" />
	<polygon
   class="st2"
   points="259.1,87.9 246.7,64.1 245.2,76 "
   id="polygon31" />
	<polygon
   class="st1"
   points="239.8,61.7 245,61.7 243.3,71.7 "
   id="polygon32" />
	<polygon
   class="st1"
   points="242.5,73.4 238.2,63.5 238,69.3 "
   id="polygon33" />
	<polygon
   class="st1"
   points="231.4,61.5 237.2,61.8 235.7,67.3 "
   id="polygon34" />
	<polygon
   class="st1"
   points="222.6,66.2 229.2,55.5 228.4,60.2 "
   id="polygon35" />
	<polygon
   class="st2"
   points="221,59.8 227.3,56.7 221.9,64.4 "
   id="polygon36" />
	<polygon
   class="st1"
   points="227.3,67.6 223.7,67.6 228.4,62.6 "
   id="polygon37" />
	<polygon
   class="st1"
   points="229.3,68.2 230,62.7 234.9,68.1 "
   id="polygon38" />
	<polygon
   class="st1"
   points="230.1,78.1 229.4,70.3 235.9,69.7 "
   id="polygon39" />
	<polygon
   class="st1"
   points="236.8,88.6 231.1,81.1 237,71.1 "
   id="polygon40" />
	<polygon
   class="st2"
   points="218.4,61.1 219.1,53.7 215.1,53.5 "
   id="polygon41" />
	<polygon
   class="st1"
   points="241,45 247.1,27.5 258.2,37.3 "
   id="polygon42" />
	<polygon
   class="st1"
   points="239.2,57.8 258.3,39.1 240.7,47.1 "
   id="polygon43" />
	<polygon
   class="st1"
   points="245.2,59.4 248.8,51.3 239.8,59.6 "
   id="polygon44" />
	<polygon
   class="st2"
   points="277.4,91.5 270,83.9 287.1,84.3 "
   id="polygon45" />
	<polygon
   class="st0"
   points="289.9,107.2 261.6,78.7 262.7,89.5 "
   id="polygon46" />
	<polygon
   class="st2"
   points="272.3,64.2 261,67.8 260.9,60.4 "
   id="polygon47"
   style="fill:#962688;fill-opacity:1" />
	<polygon
   class="st2"
   points="285.4,67.7 275.1,64.3 278.9,60.2 "
   id="polygon48" />
	<polygon
   class="st0"
   points="274.4,82.7 284.2,74.8 284.4,82.3 "
   id="polygon49" />
	<polygon
   class="st2"
   points="292.5,59.7 267.3,57.3 289.9,54.6 "
   id="polygon50" />
	<polygon
   class="st2"
   points="277.7,69.7 269.6,66.1 274.2,65.1 "
   id="polygon51" />
	<polygon
   class="st2"
   points="296.4,72.2 282.7,60.3 292.2,61.3 "
   id="polygon52" />
	<polygon
   class="st2"
   points="287.8,81.3 286.5,67.1 294.9,74.5 "
   id="polygon53" />
	<polygon
   class="st2"
   points="263.8,72.9 271.1,67.8 268.5,66.5 "
   id="polygon54"
   style="fill:#962688;fill-opacity:1" />
	<polygon
   class="st2"
   points="269.9,82.1 261.4,76.3 264.1,74.9 "
   id="polygon55" />
	<polygon
   class="st3"
   points="270.5,81.8 268.2,79.2 277.1,77.2 "
   id="polygon56" />
	<polygon
   class="st3"
   points="277.2,75.7 277.5,71 271.7,77 "
   id="polygon57" />
	<polygon
   class="st4"
   points="269.9,75.9 268,71.8 273.7,72 "
   id="polygon58" />
	<polygon
   class="st2"
   points="261.5,75.5 266.8,67.3 261.3,70 "
   id="polygon59"
   style="fill:#962688;fill-opacity:1" />
	<polygon
   class="st2"
   points="271.8,68.4 268.8,70.2 277.1,70.4 "
   id="polygon60" />
	<polygon
   class="st2"
   points="274,64 263.6,59.9 278.4,59.7 "
   id="polygon61" />
	<polygon
   class="st2"
   points="284.9,73.6 276.7,66.1 285.1,69.2 "
   id="polygon62" />
	<polygon
   class="st2"
   points="282.6,73.9 278.8,70.1 278.6,77 "
   id="polygon63" />
	<polygon
   class="st0"
   points="360.4,97.7 345.6,95.8 341.2,101.9 "
   id="polygon64" />
	<polygon
   class="st0"
   points="338.7,104.6 360.4,100.5 348.2,110.4 "
   id="polygon65" />
	<polygon
   class="st0"
   points="364.9,90.8 364.9,63.5 370,74.3 "
   id="polygon66" />
	<polygon
   class="st0"
   points="312.7,66.8 335.8,101.9 329.2,113.1 "
   id="polygon67" />
	<polygon
   class="st0"
   points="361,94.6 364.4,63.1 346.8,93.1 "
   id="polygon68" />
	<polygon
   class="st0"
   points="325.4,113.8 310.9,66.9 309.4,87.4 "
   id="polygon69" />
	<polygon
   class="st2"
   points="246.7,59.7 251.3,49.7 262,49 "
   id="polygon70" />
	<polygon
   class="st2"
   points="258.8,82.4 260.2,52.5 247.1,61.3 "
   id="polygon71" />
	<polygon
   class="st2"
   points="278.2,43.1 263.2,49.9 262.4,57.3 "
   id="polygon72" />
	<polygon
   class="st2"
   points="304.1,37.8 273.8,49.8 283.8,40.1 "
   id="polygon73" />
	<polygon
   class="st0"
   points="328.9,85.3 351.9,52.5 337.8,101.2 "
   id="polygon74" />
	<polygon
   class="st2"
   points="331.5,49.9 350.4,50.6 327.8,81.9 "
   id="polygon75" />
	<polygon
   class="st2"
   points="312.6,47 348,48.1 329.1,39.2 "
   id="polygon76" />
	<polygon
   class="st2"
   points="298.8,50.1 323.1,38.4 310,38.5 "
   id="polygon77" />
	<polygon
   class="st2"
   points="291,53.4 306.6,38.5 271.6,52.9 "
   id="polygon78" />
	<polygon
   class="st2"
   points="311.1,62.6 312.1,49.4 328.7,49.2 "
   id="polygon79" />
	<polygon
   class="st2"
   points="300,72.1 302.3,51.1 308.9,48.7 "
   id="polygon80" />
	<polygon
   class="st2"
   points="300.2,52.2 298.3,69.6 293.1,56.9 "
   id="polygon81" />
	<polygon
   class="st2"
   points="309.7,53.3 300.6,75.5 306.7,84.1 "
   id="polygon82" />
	<polygon
   class="st2"
   points="325.4,80.4 312.9,63 328.8,51.9 "
   id="polygon83" />
	<polygon
   class="st2"
   points="344.4,91.8 354,53.2 363.1,62 "
   id="polygon84" />
	<polygon
   class="st2"
   points="302.2,83.6 289.7,82.8 296.5,76.4 "
   id="polygon85" />
	<polygon
   class="st1"
   points="230.9,60 238.2,49.8 237.2,59.8 "
   id="polygon86" />
	<polygon
   class="st1"
   points="233.8,42.6 234.7,32.7 241.4,35.8 "
   id="polygon87" />
	<polygon
   class="st1"
   points="226.5,44.8 232.9,32.6 231.9,44 "
   id="polygon88" />
	<polygon
   class="st1"
   points="229.5,53.7 226.1,46.7 231.6,45.8 "
   id="polygon89" />
	<polygon
   class="st1"
   points="237,48.7 233.1,47.4 239.6,40.1 "
   id="polygon90" />
	<polygon
   class="st1"
   points="235.8,50.3 232.1,49.1 230.9,56.7 "
   id="polygon91" />
	<polygon
   class="st2"
   points="224.3,55.6 221.5,50.8 224.9,46.7 "
   id="polygon92" />
	<polygon
   class="st1"
   points="225.7,56.5 225.8,48.9 228.6,54.6 "
   id="polygon93" />
	<polygon
   class="st2"
   points="221,58.7 220.7,52.7 224.1,56.8 "
   id="polygon94" />
	<polygon
   class="st2"
   points="365.6,60.2 367.3,28.3 371.1,71 "
   id="polygon95" />
	<polygon
   class="st2"
   points="356.6,22.2 354.3,50.3 363.4,59.7 "
   id="polygon96" />
	<polygon
   class="st1"
   points="352.9,49.6 344.6,15.4 354.9,21.7 "
   id="polygon97" />
	<polygon
   class="st1"
   points="342.7,15.3 342.8,42.4 350.9,48.6 "
   id="polygon98" />
	<polygon
   class="st1"
   points="332.9,13.6 341.4,14.5 340.5,38 "
   id="polygon99" />
	<polygon
   class="st1"
   points="330.1,36.9 331.1,14.1 339.3,39.9 "
   id="polygon100" />
	<polygon
   class="st2"
   points="310.7,35.4 304.6,14.8 321.3,34.9 "
   id="polygon101" />
	<polygon
   class="st1"
   points="291,18.7 302,14.4 308,34.3 "
   id="polygon102" />
	<polygon
   class="st2"
   points="293.3,35.9 289.1,19.8 305.4,35.3 "
   id="polygon103" />
	<polygon
   class="st2"
   points="284.1,37.7 286.1,20.1 290.7,37 "
   id="polygon104" />
	<polygon
   class="st1"
   points="274,28.7 283.8,21.7 281.8,38 "
   id="polygon105" />
	<polygon
   class="st1"
   points="266.9,44.1 272.5,29.8 279.6,38.9 "
   id="polygon106" />
	<polygon
   class="st2"
   points="252.1,48.4 269.3,31.7 262.9,47.7 "
   id="polygon107" />
	<polygon
   class="st2"
   points="366.3,29.1 357.8,23.2 364.9,58.3 "
   id="polygon108" />
	<polygon
   class="st1"
   points="242.5,33.8 244.5,26.6 235.3,31 "
   id="polygon109" />
	<polygon
   class="st1"
   points="356.3,13.4 365.5,25.8 343.5,13.3 "
   id="polygon110" />
	<polygon
   class="st1"
   points="317.2,12.4 329,13 327.1,34.3 "
   id="polygon111" />
	<polygon
   class="st1"
   points="322.9,34.2 313.4,11.5 306,13.3 "
   id="polygon112" />
	<polygon
   class="st1"
   points="247.8,22.8 248.1,15.4 268.8,27.7 "
   id="polygon113" />
	<polygon
   class="st1"
   points="354,11.1 341.6,4.8 341.9,11.6 "
   id="polygon114" />
	<polygon
   class="st1"
   points="339.7,10.1 332.2,1.6 339.6,3.2 "
   id="polygon115" />
	<polygon
   class="st1"
   points="318,9 337.7,10.4 329.2,1.4 "
   id="polygon116" />
	<polygon
   class="st1"
   points="307.4,0 325.1,0.6 313.8,9.3 "
   id="polygon117" />
	<polygon
   class="st1"
   points="304.2,11.5 305.2,0.1 310.6,9.8 "
   id="polygon118" />
	<polygon
   class="st1"
   points="291.2,0.2 302.3,0.1 301.8,11.5 "
   id="polygon119" />
	<polygon
   class="st1"
   points="288.4,15.7 288.5,0.9 300.4,12.7 "
   id="polygon120" />
	<polygon
   class="st1"
   points="271,4.9 286.2,1.1 285.7,16.3 "
   id="polygon121" />
	<polygon
   class="st1"
   points="254.1,13.2 268.8,6.2 283.8,17.4 "
   id="polygon122" />
	<polygon
   class="st1"
   points="271.1,26.2 252.4,14.3 282.6,19.6 "
   id="polygon123" />
	<polygon
   class="st2"
   points="259.7,36 248.5,25.2 268.2,29.8 "
   id="polygon124" />
	<polygon
   class="st1"
   points="235.1,29.7 245.8,17.2 244.7,24.7 "
   id="polygon125" />
</g>
<g
   id="g468"
   style="display:inline"><polygon
     class="st2"
     points="191.6,157.5 219.3,126.5 191.2,151.7 "
     id="polygon204" /><polygon
     class="st2"
     points="193.8,171 218.1,131.1 192.9,160.4 "
     id="polygon205" /><polygon
     class="st1"
     points="226.1,122.1 217.8,153.6 195.5,171.3 "
     id="polygon206" /><polygon
     class="st1"
     points="323.2,151.3 316.1,168 312.9,141.8 "
     id="polygon207" /><polygon
     class="st2"
     points="324.6,180.5 317.5,170.9 325.7,154.6 "
     id="polygon208" /><polygon
     class="st2"
     points="326.4,183 334.1,172.3 328.3,158.4 "
     id="polygon209" /><polygon
     class="st2"
     points="289.4,154 297.1,172.2 309.6,168.7 "
     id="polygon210" /><polygon
     class="st1"
     points="285.6,149.9 272.3,137.9 271.3,132 "
     id="polygon211" /><polygon
     class="st1"
     points="285.3,153.9 283.3,158 273.3,141.5 "
     id="polygon212" /><polygon
     class="st2"
     points="266.4,179.3 282.5,160.1 273.4,145.6 "
     id="polygon213" /><polygon
     class="st1"
     points="297.6,181.9 287.4,201.7 287.8,157 "
     id="polygon214" /><polygon
     class="st2"
     points="274.1,190 285,173 285.3,157.8 "
     id="polygon215" /><polygon
     class="st2"
     points="230.7,155.8 223.1,151.9 229.4,122.9 "
     id="polygon216" /><polygon
     class="st2"
     points="245.6,171.3 258.7,175.9 242.3,131.2 "
     id="polygon217"
     style="fill:#64286b;fill-opacity:1" /><polygon
     class="st2"
     points="279.7,166.1 272.7,186.5 267.7,180.7 "
     id="polygon218" /><polygon
     class="st0"
     points="311.8,180.5 320.1,190 311.8,165.3 "
     id="polygon219" /><polygon
     class="st2"
     points="321.6,190.2 325.4,183.8 314.2,168.2 "
     id="polygon220" /><polygon
     class="st2"
     points="309.4,138.6 311.6,163.4 283.7,123.4 "
     id="polygon221" /><polygon
     class="st2"
     points="269.8,131.5 269.2,152.4 262.9,124.8 "
     id="polygon222" /><polygon
     class="st1"
     points="179.3,127.2 210.1,105.8 211,96.7 "
     id="polygon223" /><polygon
     class="st2"
     points="204.9,112.6 174.6,145.6 162,145.8 "
     id="polygon224" /><polygon
     class="st0"
     points="227.1,106.1 180.4,144.6 212,108.3 "
     id="polygon225" /><polygon
     class="st0"
     points="186.3,149.9 216.9,116.3 180,147.3 "
     id="polygon226" /><polygon
     class="st2"
     points="226.8,116.8 192.9,147.1 228.4,107.5 "
     id="polygon227" /><polygon
     class="st0"
     points="310.4,165.1 290,150.3 274,113.9 "
     id="polygon228" /><polygon
     class="st2"
     points="287.4,150 271.3,128 265.4,99.5 "
     id="polygon229" /><polygon
     class="st2"
     points="238.2,99.6 233.3,141.7 231.2,109.5 "
     id="polygon230" /><polygon
     class="st2"
     points="241.8,171.3 233.4,180.5 239.2,111.5 "
     id="polygon231"
     style="fill:#64286b;fill-opacity:1" /><polygon
     class="st2"
     points="242,121.5 261.4,177.9 241.3,102.6 "
     id="polygon232" /><polygon
     class="st2"
     points="265,177.7 267.1,162.1 244.9,106.4 "
     id="polygon233" /><polygon
     class="st2"
     points="267.8,159 258.9,120 248.2,108.2 "
     id="polygon234" /><polygon
     class="st1"
     points="265.7,124 240.4,94.4 240.2,73.6 "
     id="polygon235" /><polygon
     class="st0"
     points="322.4,117.5 296.4,113 290.3,89.4 "
     id="polygon236" /><polygon
     class="st0"
     points="281.4,114.4 283,122.3 273.6,111.6 "
     id="polygon237" /><polygon
     class="st1"
     points="261.3,92.9 267.3,121.2 244.4,77.2 "
     id="polygon238"
     style="fill:#7b2164;fill-opacity:1" /></g>
<g
   id="neck_and_leg"
   style="enable-background:new 0 0 427.5 374.9;display:inline">
	<g
   id="leg">
		<polygon
   class="st2"
   points="369.1,286.3 362.9,274.8 363.8,283.3 "
   id="polygon126" />
		<polygon
   class="st2"
   points="315.4,262.4 311.1,243 310.1,253.1 "
   id="polygon127" />
		<polygon
   class="st0"
   points="318.3,265.3 324.6,273 318.6,255 "
   id="polygon128" />
		<polygon
   class="st2"
   points="317.7,253.6 316.9,264.1 312.8,245 "
   id="polygon129" />
		<polygon
   class="st2"
   points="326.2,274.7 337.3,274.7 321.2,259.7 "
   id="polygon130" />
		<polygon
   class="st2"
   points="336.8,281.8 342.7,275.3 328.2,276 "
   id="polygon131" />
		<polygon
   class="st2"
   points="345.5,261.8 343.1,274.5 338.2,274.5 "
   id="polygon132" />
		<polygon
   class="st2"
   points="344.2,273.6 349.9,266.4 346.5,262.4 "
   id="polygon133" />
		<polygon
   class="st0"
   points="350.2,276.1 338.2,282.1 350.3,267.6 "
   id="polygon134" />
		<polygon
   class="st2"
   points="325.4,257.3 327.9,264.6 334.7,270.5 "
   id="polygon135" />
		<polygon
   class="st2"
   points="321.3,254.5 321.9,243.9 325.5,262.1 "
   id="polygon136" />
		<polygon
   class="st1"
   points="317.3,238.7 320.8,231.4 320.3,251.7 "
   id="polygon137" />
		<polygon
   class="st1"
   points="317.5,221.1 320.4,228.2 317,236.1 "
   id="polygon138" />
		<polygon
   class="st1"
   points="321.7,225.3 322.7,215.1 318.5,219.9 "
   id="polygon139" />
		<polygon
   class="st2"
   points="328.7,234.8 325.6,224.8 329.4,217.9 "
   id="polygon140" />
		<polygon
   class="st2"
   points="330.1,236.4 332.5,223.9 330.4,220.3 "
   id="polygon141" />
		<polygon
   class="st2"
   points="327.8,253.4 334,257.7 327.7,234.9 "
   id="polygon142" />
		<polygon
   class="st2"
   points="330.4,239.4 333.8,252 332.5,233.5 "
   id="polygon143" />
		<polygon
   class="st2"
   points="336.7,259.4 340.5,255.7 334.3,253 "
   id="polygon144" />
		<polygon
   class="st2"
   points="345.7,251.9 342.8,259.3 338.5,260.1 "
   id="polygon145" />
		<polygon
   class="st2"
   points="349.4,246.7 352.5,249.6 345.5,255.9 "
   id="polygon146" />
		<polygon
   class="st1"
   points="353.2,248 353.8,239.6 350,245.3 "
   id="polygon147" />
		<polygon
   class="st1"
   points="354.7,243.3 361.7,230.6 355,236.8 "
   id="polygon148" />
		<polygon
   class="st2"
   points="363.1,230.1 368.9,233.3 359.9,235.6 "
   id="polygon149" />
		<polygon
   class="st1"
   points="372.6,234.6 369.8,228.7 364.9,229.4 "
   id="polygon150" />
		<polygon
   class="st2"
   points="370.7,240.7 369.8,234.2 371.8,235.4 "
   id="polygon151" />
		<polygon
   class="st2"
   points="340.6,267.8 337.7,273.1 335.3,269.3 "
   id="polygon152" />
		<polygon
   class="st2"
   points="282.3,214.8 284,228.7 279.4,220.1 "
   id="polygon153" />
		<polygon
   class="st2"
   points="280.8,213.1 277.6,218.5 270.4,212.9 "
   id="polygon154" />
		<polygon
   class="st2"
   points="266.7,212.6 273.3,218 253.1,214.3 "
   id="polygon155" />
		<polygon
   class="st2"
   points="247,179.3 243.3,199.4 239.6,196.9 "
   id="polygon156" />
		<polygon
   class="st2"
   points="243.3,202.2 245.1,207.7 240.7,200.3 "
   id="polygon157" />
		<polygon
   class="st0"
   points="253.1,177.5 246.3,194.1 250.3,175.6 "
   id="polygon158" />
		<polygon
   class="st2"
   points="254.7,193.6 246.5,198.9 253.6,182.1 "
   id="polygon159" />
		<polygon
   class="st2"
   points="239.4,201.7 244.9,211 239.9,207.2 "
   id="polygon160" />
		<polygon
   class="st0"
   points="262.2,181.7 256.5,191 255.7,178.7 "
   id="polygon161" />
		<polygon
   class="st2"
   points="253.6,197 247.8,210.4 245.5,202.1 "
   id="polygon162" />
		<polygon
   class="st2"
   points="263.6,211 248.8,213 252.6,205 "
   id="polygon163" />
		<polygon
   class="st1"
   points="257.4,204.9 277,210.6 267.2,210.4 "
   id="polygon164" />
		<polygon
   class="st0"
   points="261,187.9 257.6,202.6 254.2,201.3 "
   id="polygon165" />
		<polygon
   class="st1"
   points="324.4,223.8 329,216.1 324.1,215 "
   id="polygon166" />
	</g>
	<polygon
   class="st1"
   points="372.3,214.4 409.3,214.4 393.8,207 "
   id="polygon167" />
	<polygon
   class="st2"
   points="412.1,217.9 415.7,226.7 394.4,217.6 "
   id="polygon168" />
	<polygon
   class="st2"
   points="420.5,219.9 426.5,242.8 413.9,217.9 "
   id="polygon169" />
	<polygon
   class="st2"
   points="417.7,232.2 418.9,247.5 406.4,225.4 "
   id="polygon170" />
	<polygon
   class="st2"
   points="427.5,249.9 420.3,270.2 421.3,237 "
   id="polygon171" />
	<polygon
   class="st1"
   points="418.9,249.9 419,267.7 414.4,243 "
   id="polygon172" />
	<polygon
   class="st1"
   points="418.8,271.6 413.2,280.7 415.5,257.9 "
   id="polygon173" />
	<polygon
   class="st2"
   points="411.5,283.4 402.3,290.1 412.7,275.2 "
   id="polygon174" />
	<polygon
   class="st2"
   points="398.9,291.2 387.1,290.5 403.6,285.5 "
   id="polygon175" />
	<polygon
   class="st2"
   points="376.5,290.3 372.3,293.1 394.9,292.3 "
   id="polygon176" />
	<polygon
   class="st2"
   points="371.2,292.2 363.7,284.7 374.5,290.2 "
   id="polygon177" />
	<polygon
   class="st2"
   points="327.8,188 337,191.1 335.2,175.8 "
   id="polygon178" />
	<polygon
   class="st2"
   points="355.8,200.1 338,207 329.9,191.9 "
   id="polygon179" />
	<polygon
   class="st1"
   points="343.8,208.6 380.4,203.5 360.9,201.3 "
   id="polygon180" />
	<polygon
   class="st2"
   points="359.5,214.6 385.3,206.3 346,210.8 "
   id="polygon181" />
	<polygon
   class="st2"
   points="298.6,174.5 301.4,182.5 310.6,170.9 "
   id="polygon182" />
	<polygon
   class="st2"
   points="275.6,191.2 284.8,205.4 285.4,173.9 "
   id="polygon183" />
	<polygon
   class="st2"
   points="322.3,190.9 328.2,192.8 325.8,185.2 "
   id="polygon184" />
	<polygon
   class="st2"
   points="349.4,196.1 346,188.5 338.8,191.8 "
   id="polygon185" />
	<polygon
   class="st2"
   points="348.6,186.3 350.2,193.6 354.2,177.6 "
   id="polygon186" />
	<polygon
   class="st2"
   points="356.4,195.1 355.4,179.2 350.8,196.7 "
   id="polygon187" />
	<polygon
   class="st2"
   points="363.7,181.4 357.6,191.9 357.3,178.2 "
   id="polygon188" />
	<polygon
   class="st2"
   points="360.8,144.4 360,151.4 355.3,154.4 "
   id="polygon189" />
	<polygon
   class="st1"
   points="359,136.4 368.2,131.9 356,149.4 "
   id="polygon190" />
	<polygon
   class="st2"
   points="363.7,179.7 360.3,158.9 355.5,175.6 "
   id="polygon191" />
	<polygon
   class="st1"
   points="360.8,152.8 355.9,170.7 355.5,156.1 "
   id="polygon192" />
	<polygon
   class="st2"
   points="369.9,132.2 382.8,136.2 366.9,136.6 "
   id="polygon193" />
	<polygon
   class="st1"
   points="387.3,137.4 393,136 377.4,132.2 "
   id="polygon194" />
	<polygon
   class="st2"
   points="397.1,145.4 393.4,137.4 389.7,139 "
   id="polygon195" />
	<polygon
   class="st2"
   points="396.6,146.7 391.6,155.9 392.2,142.7 "
   id="polygon196" />
	<polygon
   class="st2"
   points="381.2,158.5 390.1,154.5 390.1,150.2 "
   id="polygon197" />
	<polygon
   class="st2"
   points="379.5,158.5 370,158.5 384.4,153.5 "
   id="polygon198" />
	<polygon
   class="st2"
   points="364.6,150.9 368.9,157.2 380.9,152.8 "
   id="polygon199" />
	<polygon
   class="st2"
   points="367.7,150.5 364.6,149.3 370.4,139 "
   id="polygon200" />
	<polygon
   class="st2"
   points="372.7,138.6 383.7,140 371.1,143.4 "
   id="polygon201" />
	<polygon
   class="st2"
   points="384.4,140.9 384.7,145.8 379.9,142.3 "
   id="polygon202" />
	<polygon
   class="st2"
   points="383.7,145.9 380.7,147.3 378.7,143 "
   id="polygon203" />
	
	
	
	
	
	
	
	
	
	
	
	
	
	
	
	
	
	
	
	
	
	
	
	
	
	
	
	
	
	
	
	
	
	
	
</g><g
   id="Leg-4">
	<polygon
   class="st2"
   points="311.1,230.4 306.7,267.7 298.7,275.2  "
   id="polygon239" />
	<polygon
   class="st2"
   points="305.4,271.7 296.9,297.7 297.4,279.9  "
   id="polygon240" />
	<polygon
   class="st2"
   points="296,283.5 292.9,311.5 290.7,300.3  "
   id="polygon241" />
	<polygon
   class="st2"
   points="290.2,304.3 293.4,337 285.5,322.5  "
   id="polygon242" />
	<polygon
   class="st2"
   points="288.8,332.5 298.1,347.5 292.8,347.1  "
   id="polygon243" />
	<polygon
   class="st2"
   points="293.9,349.1 298.8,349.8 305.8,359.9  "
   id="polygon244" />
	<polygon
   class="st2"
   points="301.1,221.6 287.4,243.7 284.2,264.7  "
   id="polygon245" />
	<polygon
   class="st1"
   points="302,226.2 285.8,267 302,252.1  "
   id="polygon246" />
	<polygon
   class="st2"
   points="299.3,257.5 284.1,272.7 277,296.1  "
   id="polygon247" />
	<polygon
   class="st1"
   points="298.4,263.3 274.1,306.2 288.6,299.2  "
   id="polygon248" />
	<polygon
   class="st1"
   points="287.9,302.1 283.1,319.5 275.3,308.1  "
   id="polygon249" />
	<polygon
   class="st1"
   points="274.3,309.7 282.4,322.4 272.2,324.9  "
   id="polygon250" />
	<polygon
   class="st1"
   points="272.6,327.3 276.8,338.7 282.5,324.7  "
   id="polygon251" />
	<polygon
   class="st2"
   points="284.2,327.9 278.6,344.1 284.4,355.3  "
   id="polygon252" />
	<polygon
   class="st2"
   points="285.9,329.6 285.8,357.2 290.1,345  "
   id="polygon253" />
	<polygon
   class="st2"
   points="291,348 288.7,360 292.2,365  "
   id="polygon254" />
	<polygon
   class="st2"
   points="293.8,353.9 294,367.1 301.2,371.3  "
   id="polygon255" />
	<polygon
   class="st2"
   points="294.1,351.3 304.4,361.8 303.1,370.1  "
   id="polygon256" />
	<polygon
   class="st2"
   points="307,363.1 315.5,364.7 304.1,370.4  "
   id="polygon257" />
	<polygon
   class="st2"
   points="304.1,372.2 315.5,366.4 310.6,374.4  "
   id="polygon258" />
	<polygon
   class="st2"
   points="319.4,364.7 326.4,360.7 313.9,374.4  "
   id="polygon259" />
	<polygon
   class="st2"
   points="326,363.3 315.8,374.9 324.8,373.4  "
   id="polygon260" />
	<polygon
   class="st2"
   points="329.6,359.3 326.6,372.3 339.4,363.5  "
   id="polygon261" />
	<polygon
   class="st2"
   points="331.5,357.3 337.4,349.9 341.1,361.2  "
   id="polygon262" />
	<polygon
   class="st2"
   points="338.4,348 340.4,335.6 342.7,359  "
   id="polygon263" />
	<polygon
   class="st2"
   points="342.2,336.6 343.8,357.3 347.1,346.1  "
   id="polygon264" />
	<polygon
   class="st2"
   points="339.6,319 340.8,331.4 348.5,345.4  "
   id="polygon265" />
	<polygon
   class="st2"
   points="340,315.9 348.9,340.9 348,324.6  "
   id="polygon266" />
	<polygon
   class="st2"
   points="339.5,313.2 338.6,306.3 350,323.1  "
   id="polygon267" />
	<polygon
   class="st2"
   points="339.4,305 348.9,317.9 348.4,311.5  "
   id="polygon268" />
	<polygon
   class="st2"
   points="339.5,303 348.2,309.2 343.2,300  "
   id="polygon269" />
	<polygon
   class="st2"
   points="337.4,302 342.3,298.9 334.6,294.6  "
   id="polygon270" />
	<polygon
   class="st2"
   points="332.9,295 336.1,302.3 329.8,302.3  "
   id="polygon271" />
	<polygon
   class="st2"
   points="331.2,294.7 328.1,302.6 322,304.8  "
   id="polygon272" />
	<polygon
   class="st2"
   points="322,306.1 328.2,304.1 320.1,313.3  "
   id="polygon273" />
	<polygon
   class="st2"
   points="320.2,315.3 327.2,307.4 322,324.7  "
   id="polygon274" />
	<polygon
   class="st2"
   points="323.1,326 326.8,313.5 327.1,323.5"
   id="polygon275" />
	<polygon
   class="st2"
   points="323.7,328.1 327.3,325.5 332.9,333.3  "
   id="polygon276" />
	<polygon
   class="st2"
   points="323.8,330.3 333.1,334.8 326.9,335.9  "
   id="polygon277" />
	<polygon
   class="st2"
   points="328.1,337.9 333.7,336.7 333.5,344.5  "
   id="polygon278" />
	<polygon
   class="st2"
   points="328.4,340.5 332.2,346.3 327.8,350.9  "
   id="polygon279" />
	<polygon
   class="st2"
   points="326.9,344.7 326.7,351.1 322.9,351.3  "
   id="polygon280" />
	<polygon
   class="st2"
   points="323.9,346.6 320.7,350.8 315.1,346.3  "
   id="polygon281" />
	<polygon
   class="st2"
   points="320.2,345 314.4,344.7 313.9,342  "
   id="polygon282" />
	<polygon
   class="st2"
   points="314.2,339.8 314.9,334.8 318,342.3  "
   id="polygon283" />
	<polygon
   class="st2"
   points="315,331.9 316.5,324.9 317.5,336.9  "
   id="polygon284" />
	<polygon
   class="st2"
   points="317.8,325.1 318.4,334.6 320.3,329.3  "
   id="polygon285" />
	<polygon
   class="st0"
   points="311,174 310,212.3 302.1,185.1  "
   id="polygon286" />
	<polygon
   class="st2"
   points="303.8,201.3 310.6,221.4 304.6,248.1  "
   id="polygon287" />
	<polygon
   class="st2"
   points="296.9,189.3 287,210 286.9,238  "
   id="polygon288" />
	<polygon
   class="st1"
   points="299.1,188.9 287.6,240.8 301.7,214.7  "
   id="polygon289" />
</g>
<g
   id="Leg-2">
	<polygon
   class="st2"
   points="82.9,213.2 83.8,243.9 81,229.7  "
   id="polygon290"
   style="fill:#962688;fill-opacity:1" />
	<polygon
   class="st2"
   points="86,231.3 95,227 101,245.8  "
   id="polygon291" />
	<polygon
   class="st0"
   points="87,235 101.4,248.4 101.5,258  "
   id="polygon292" />
	<polygon
   class="st2"
   points="86.4,237.1 91.8,249.3 85.6,249.1  "
   id="polygon293"
   style="fill:#962688;fill-opacity:1" />
	<polygon
   class="st2"
   points="86.6,251.5 92.6,251.7 90.6,263.9  "
   id="polygon294" />
	<polygon
   class="st0"
   points="94.5,250.3 100.8,261.2 96.3,275.5  "
   id="polygon295" />
	<polygon
   class="st2"
   points="93.3,262.4 94.1,276.5 86.7,283.8  "
   id="polygon296" />
	<polygon
   class="st2"
   points="89.3,267.5 83.9,283.6 83.4,275.9  "
   id="polygon297" />
	<polygon
   class="st0"
   points="93.5,280.6 83.6,288.7 82.6,300.2  "
   id="polygon298" />
	<polygon
   class="st2"
   points="81.5,291.3 80,303.2 73.1,308.8  "
   id="polygon299" />
	<polygon
   class="st2"
   points="81.9,281.1 82,287.3 74.2,293.7  "
   id="polygon300" />
	<polygon
   class="st2"
   points="78.1,293.7 71.5,299.8 68.1,314.6  "
   id="polygon301" />
	<polygon
   class="st2"
   points="78,307 72.9,312 74.3,319.1  "
   id="polygon302" />
	<polygon
   class="st2"
   points="70.6,313.5 68.4,319.5 73.2,325.9  "
   id="polygon303" />
	<polygon
   class="st2"
   points="77.7,314.4 74.9,322 78.9,326.2  "
   id="polygon304" />
	<polygon
   class="st1"
   points="80,320.6 80.9,327.5 89.5,324.3  "
   id="polygon305" />
	<polygon
   class="st1"
   points="84.3,327.5 91.8,328 96.6,322.4  "
   id="polygon306" />
	<polygon
   class="st1"
   points="96.9,324.7 102.7,317.8 110.8,316.4  "
   id="polygon307" />
	<polygon
   class="st2"
   points="109.3,319 113.8,316.1 125.1,316.7  "
   id="polygon308" />
	<polygon
   class="st2"
   points="119.8,319.1 127.1,318.9 133.5,328.3  "
   id="polygon309" />
	<polygon
   class="st2"
   points="74,324.6 75,328.8 79.7,331.7  "
   id="polygon310" />
	<polygon
   class="st2"
   points="79.3,328.8 82.2,332.4 94.1,331.8  "
   id="polygon311" />
	<polygon
   class="st2"
   points="92.3,330 96.1,330.8 106.7,322.6  "
   id="polygon312" />
	<polygon
   class="st2"
   points="103.7,326.8 111.7,319.7 118.5,319.4  "
   id="polygon313" />
	<polygon
   class="st2"
   points="113.4,325.6 119,324.8 124.1,328.3  "
   id="polygon314" />
	<polygon
   class="st2"
   points="120.7,328.1 124.7,329.3 127.6,334.6  "
   id="polygon315" />
	<polygon
   class="st2"
   points="128.6,327.6 134.1,330.9 133.5,340.9  "
   id="polygon316" />
	<polygon
   class="st2"
   points="130.2,337.1 132.3,342.9 126.7,347.9  "
   id="polygon317" />
	<polygon
   class="st2"
   points="126.6,343.4 124.1,348.4 117.1,346.1  "
   id="polygon318" />
	<polygon
   class="st2"
   points="122,343 114.8,343.6 112.1,337.3  "
   id="polygon319" />
	<polygon
   class="st2"
   points="116.9,338.1 111.5,333.3 111.9,326.8  "
   id="polygon320" />
	<polygon
   class="st2"
   points="113.4,327 115.5,332.7 115.8,327.5  "
   id="polygon321" />
	<polygon
   class="st2"
   points="123.9,333 127.3,335.9 124.4,338.9  "
   id="polygon322" />
	<polygon
   class="st0"
   points="97.9,184.3 98.5,188.1 95.4,197.4 96.4,175.2 "
   id="polygon323" />
	<polygon
   class="st0"
   points="89.1,190.4 95,203.8 94,215.9  "
   id="polygon324" />
	<polygon
   class="st2"
   points="86,187.5 84.5,204.7 92.2,217.3  "
   id="polygon325" />
	<polygon
   class="st1"
   points="84.9,181.2 79.2,192.9 82.2,199.3  "
   id="polygon326" />
	<polygon
   class="st1"
   points="81.9,204.2 78.5,197.5 79.1,226.5  "
   id="polygon327" />
	<polygon
   class="st2"
   points="84.7,208.9 94,225 85.5,229  "
   id="polygon328" />
	<polygon
   class="st2"
   points="104.3,157.8 97.1,167.1 99.2,179.6  "
   id="polygon329" />
	<polygon
   class="st2"
   points="94.7,169 93.2,195.5 87.2,180  "
   id="polygon330" />
	<polygon
   class="st1"
   points="155.8,117.8 153.7,125.8 131.6,129.9"
   id="polygon331" />
	<polygon
   class="st1"
   points="150.6,128.2 128.8,132.6 122.7,140.1  "
   id="polygon332" />
	<polygon
   class="st2"
   points="153,129.7 140,135.5 139.8,146  "
   id="polygon333" />
	<polygon
   class="st2"
   points="138,136.9 137,147.5 123.5,156.9  "
   id="polygon334" />
	<polygon
   class="st2"
   points="135.7,136.7 122.8,143 122.6,155.1  "
   id="polygon335" />
	<polygon
   class="st0"
   points="121,147.3 120.3,158.4 105.7,175.2  "
   id="polygon336" />
	<polygon
   class="st1"
   points="120.3,144.9 103.8,173 107.4,153.9 "
   id="polygon337" />
	<polygon
   class="st1"
   points="123.8,135 117.7,144 106.9,151.7  "
   id="polygon338" />
	<polygon
   class="st1"
   points="116.5,140.6 97.1,156 104.4,153.2  "
   id="polygon339" />
	<polygon
   class="st1"
   points="103.8,155.6 96.3,158.8 85.9,176.1  "
   id="polygon340" />
	<polygon
   class="st1"
   points="184.2,111 157.5,117.5 156.3,125.7  "
   id="polygon341" />
	<polygon
   class="st1"
   points="184.4,113.2 157.6,127.2 148.3,140.2 "
   id="polygon342" />
	<polygon
   class="st2"
   points="147.7,145.4 190.4,111.7 155.5,145.8  "
   id="polygon343" />
</g>
<g
   id="Leg-3">
	<polygon
   class="st0"
   points="167.4,219.1 166.4,228.7 158.7,236.5  "
   id="polygon344" />
	<polygon
   class="st2"
   points="165.2,217.4 154.3,239.2 153.8,225.8  "
   id="polygon345" />
	<polygon
   class="st1"
   points="153.3,222.2 145.5,228 141.4,223.7  "
   id="polygon346" />
	<polygon
   class="st1"
   points="144.6,230.7 139.5,245.2 140.5,226.4  "
   id="polygon347" />
	<polygon
   class="st2"
   points="146.5,235.6 151.1,228.3 149.9,241.8  "
   id="polygon348" />
	<polygon
   class="st2"
   points="144.6,238.5 148,244.8 139.7,253.5  "
   id="polygon349" />
	<polygon
   class="st1"
   points="138.5,230.6 137.8,251.7 134,241.5  "
   id="polygon350" />
	<polygon
   class="st1"
   points="131.1,254.4 135.1,263.5 131.7,273.6  "
   id="polygon351" />
	<polygon
   class="st0"
   points="139.3,257.3 149.9,249.4 147.8,267  "
   id="polygon352" />
	<polygon
   class="st2"
   points="137.8,259.8 138.8,267.5 147,270.2  "
   id="polygon353" />
	<polygon
   class="st2"
   points="139.1,271 145.3,283.1 146.3,272.7  "
   id="polygon354" />
	<polygon
   class="st1"
   points="136.1,270 141,284.8 132.3,279  "
   id="polygon355" />
	<polygon
   class="st2"
   points="148.3,276 154.7,284.5 147,284  "
   id="polygon356" />
	<polygon
   class="st2"
   points="136.4,285.2 145.3,287.5 144.3,295.5  "
   id="polygon357" />
	<polygon
   class="st2"
   points="146.8,289.9 146.8,297.3 156.5,297.4  "
   id="polygon358" />
	<polygon
   class="st2"
   points="148.7,286 157.2,286 157.2,296.1  "
   id="polygon359" />
	<polygon
   class="st2"
   points="159.2,288.1 159.9,296.6 168.4,291  "
   id="polygon360" />
	<polygon
   class="st2"
   points="152.6,300 162.1,300 163.3,304.2  "
   id="polygon361" />
	<polygon
   class="st2"
   points="164.2,300.7 165.7,303.5 190.9,302.9  "
   id="polygon362" />
	<polygon
   class="st2"
   points="165,295.2 171.7,291.3 188.9,291.3  "
   id="polygon363" />
	<polygon
   class="st2"
   points="166.6,296.9 175.9,299 188,294.2  "
   id="polygon364" />
	<polygon
   class="st2"
   points="180,299.6 194.1,294 203.1,298.4  "
   id="polygon365" />
	<polygon
   class="st2"
   points="193.4,301.5 204.9,301 209.1,310.4  "
   id="polygon366" />
	<polygon
   class="st3"
   points="206,311 212.8,315.4 214.3,321.9 215.8,328.9 "
   id="polygon367"
   transform="matrix(1.1529928,-0.06900053,0.05796293,0.96855539,-51.39242,22.389622)"
   style="fill:#7b2164;fill-opacity:1" />
	<polygon
   class="st2"
   points="210,319.5 214,324.7 212.4,340.1  "
   id="polygon368" />
	<polygon
   class="st2"
   points="210,333.2 211,343 205.7,355  "
   id="polygon369" />
	<polygon
   class="st2"
   points="204.4,351 201.8,358.7 194.1,359.7  "
   id="polygon370" />
	<polygon
   class="st2"
   points="199.4,360.2 190.2,367 184.3,363.3  "
   id="polygon371" />
	<polygon
   class="st0"
   points="182,364.7 187.3,367.9 173.2,368.2  "
   id="polygon372" />
	<polygon
   class="st2"
   points="178.8,364.3 169.6,366.9 163.5,362.3  "
   id="polygon373" />
	<polygon
   class="st2"
   points="168.1,361.3 160.3,359.2 158.6,355.1  "
   id="polygon374" />
	<polygon
   class="st2"
   points="163.7,355.6 158.9,350 159.8,342.4  "
   id="polygon375" />
	<polygon
   class="st1"
   points="163.3,347.6 162.5,340.7 167.4,337.3  "
   id="polygon376" />
	<polygon
   class="st1"
   points="167.8,341.7 170.5,336.7 179.8,340.7  "
   id="polygon377" />
	<polygon
   class="st2"
   points="173.2,342.9 181.2,342.7 187.5,351  "
   id="polygon378" />
	<polygon
   class="st2"
   points="180.4,349.2 185.8,352.1 181.2,353.3  "
   id="polygon379" />
	<polygon
   class="st1"
   points="133.5,243.5 131.3,252.7 135.7,260  "
   id="polygon380" />
	<polygon
   class="st0"
   points="209.8,188 208.8,202.6 203.3,209.4  "
   id="polygon381" />
	<polygon
   class="st2"
   points="208.8,178.8 203.8,198.7 203.1,185.9  "
   id="polygon382" />
	<polygon
   class="st1"
   points="201.8,179 183.6,190.4 192.8,180.1  "
   id="polygon383" />
	<polygon
   class="st0"
   points="175.8,222.5 199.9,209.6 201.1,191.4  "
   id="polygon384" />
	<polygon
   class="st1"
   points="182.2,204.5 163.7,215 170,205.5  "
   id="polygon385" />
	<polygon
   class="st1"
   points="164.3,208.9 157.2,220 146.5,220.7  "
   id="polygon386" />
	<polygon
   class="st2"
   points="170.5,215 170.8,226.1 183.4,207  "
   id="polygon387" />
	<polygon
   class="st2"
   points="222.4,153.8 230.7,158 214.9,190.4  "
   id="polygon388" />
	<polygon
   class="st2"
   points="214,198.7 230.7,163 228.9,184.4  "
   id="polygon389" />
	<polygon
   class="st1"
   points="216.3,159.7 206.7,176.7 194.5,177.1  "
   id="polygon390" />
	<polygon
   class="st2"
   points="211,177.3 218.5,163.1 211.8,189  "
   id="polygon391" />
	<polygon
   class="st1"
   points="195.1,193.9 185.6,202.6 172.5,202.6  "
   id="polygon392" />
	<polygon
   class="st1"
   points="203.8,180.3 197,189.5 177.3,199.2  "
   id="polygon393" />
</g>
<g
   id="_2_Legs">
	<polygon
   class="st2"
   points="53.8,219.6 52.4,232.4 40.6,238.1 z"
   id="polygon394"
   style="enable-background:new 0 0 427.5 374.9" /><polygon
   class="st2"
   points="51.4,236.1 40.5,252 40.9,239.3  "
   id="polygon395"
   style="enable-background:new 0 0 427.5 374.9" /><polygon
   class="st2"
   points="47.2,246.7 41.1,256 47,263.2  "
   id="polygon396"
   style="enable-background:new 0 0 427.5 374.9" /><polygon
   class="st2"
   points="46.6,222.1 46,228.1 39.9,235.9  "
   id="polygon397"
   style="enable-background:new 0 0 427.5 374.9" /><polygon
   class="st2"
   points="45.7,299.2 50.4,298.9 51.1,303.3  "
   id="polygon398"
   style="enable-background:new 0 0 427.5 374.9" /><polygon
   class="st2"
   points="43.4,298.5 48.8,303.9 42.2,303.4  "
   id="polygon399"
   style="enable-background:new 0 0 427.5 374.9" /><polygon
   class="st2"
   points="41.2,296.1 40.7,302.3 35.4,296.7  "
   id="polygon400"
   style="enable-background:new 0 0 427.5 374.9" /><polygon
   class="st2"
   points="40.1,294.6 35.2,294.5 35.6,289.2  "
   id="polygon401"
   style="enable-background:new 0 0 427.5 374.9" /><polygon
   class="st2"
   points="34.1,290.6 34.1,284.6 30.7,287  "
   id="polygon402"
   style="enable-background:new 0 0 427.5 374.9" /><polygon
   class="st1"
   points="29.9,285.3 32.9,283.2 27.2,281  "
   id="polygon403"
   style="enable-background:new 0 0 427.5 374.9" /><polygon
   class="st1"
   points="25.2,281.3 28.1,285.4 20.7,284.7  "
   id="polygon404"
   style="enable-background:new 0 0 427.5 374.9" /><polygon
   class="st2"
   points="19.4,286.6 24.2,286.9 22.8,293.3  "
   id="polygon405"
   style="enable-background:new 0 0 427.5 374.9" /><polygon
   class="st2"
   points="49.1,247.5 48.9,270.9 53.2,259.5 "
   id="polygon406"
   style="enable-background:new 0 0 427.5 374.9" /><polygon
   class="st2"
   points="50.3,272.9 53.8,260.7 51.7,285.6  "
   id="polygon407"
   style="enable-background:new 0 0 427.5 374.9" /><polygon
   class="st2"
   points="55,266 58.8,281.6 52,295.3  "
   id="polygon408"
   style="enable-background:new 0 0 427.5 374.9" /><polygon
   class="st0"
   points="52.1,302.9 57.7,295.3 52.2,297.7  "
   id="polygon409"
   style="enable-background:new 0 0 427.5 374.9" /><polygon
   class="st0"
   points="52.5,296.2 58.3,285 57.1,293.7  "
   id="polygon410"
   style="enable-background:new 0 0 427.5 374.9" /><polygon
   class="st0"
   points="115.8,118.8 115.3,131 106.7,139.8  "
   id="polygon462"
   style="enable-background:new 0 0 427.5 374.9" /><polygon
   class="st2"
   points="112.8,120.1 105.1,136.7 106,125.8  "
   id="polygon463"
   style="enable-background:new 0 0 427.5 374.9" /><polygon
   class="st1"
   points="72.1,155.2 84,141.4 77.5,165.7  "
   id="polygon464"
   style="enable-background:new 0 0 427.5 374.9" /><polygon
   class="st2"
   points="104.3,127.5 103.9,141.7 93.4,151.5  "
   id="polygon465"
   style="enable-background:new 0 0 427.5 374.9" /><polygon
   class="st1"
   points="101.5,128.7 91.5,152.4 93.5,134.4  "
   id="polygon466"
   style="enable-background:new 0 0 427.5 374.9" /><polygon
   class="st1"
   points="85.5,140.7 92,135.2 79.6,164  "
   id="polygon467"
   style="enable-background:new 0 0 427.5 374.9" /><polygon
   class="st0"
   points="83.2,159.7 91.7,139.8 89.8,153.3  "
   id="polygon468"
   style="enable-background:new 0 0 427.5 374.9" />
	
	
	
	
	
	
	
	
	
	
	
	
	
	
	
	
	<polygon
   class="st1"
   points="61.5,171 53.5,192.7 52.3,181.6  "
   id="polygon411" />
	<polygon
   class="st2"
   points="61.9,189.7 54.1,198.6 54.6,206.4 "
   id="polygon412" />
	<polygon
   class="st2"
   points="63.1,191.7 56,207.7 63.7,215.1 "
   id="polygon413" />
	<polygon
   class="st2"
   points="55.7,209 62.9,217.9 55.1,229.3  "
   id="polygon414" />
	<polygon
   class="st2"
   points="51.2,193 53,210.3 49.5,204.8  "
   id="polygon415" />
	<polygon
   class="st2"
   points="49.4,209.7 53.5,215.8 48,224.8  "
   id="polygon416" />
	<polygon
   class="st2"
   points="48.7,193.3 47.8,201 37.8,193.6  "
   id="polygon417" />
	<polygon
   class="st2"
   points="33.8,192.1 43.1,199.5 29.2,195.1  "
   id="polygon418" />
	<polygon
   class="st2"
   points="31.7,191 25.9,193.9 24.4,187.6  "
   id="polygon419" />
	<polygon
   class="st2"
   points="21.4,185.6 23.7,192.2 14.1,184.7  "
   id="polygon420" />
	<polygon
   class="st1"
   points="11.1,184.6 19.9,191.7 5.3,190.4  "
   id="polygon421" />
	<polygon
   class="st1"
   points="4.4,192.2 10.9,192.5 0.7,204.4  "
   id="polygon422" />
	<polygon
   class="st2"
   points="3.8,202.9 0,207.9 8.3,218.2  "
   id="polygon423" />
	<polygon
   class="st2"
   points="0.8,211.1 0.9,217.7 11.1,224.7  "
   id="polygon424" />
	<polygon
   class="st0"
   points="6.7,222.5 12.3,226.4 7.1,234.4  "
   id="polygon425" />
	<polygon
   class="st2"
   points="5.4,228.2 5.3,235.3 0.7,229.4  "
   id="polygon426" />
	<polygon
   class="st1"
   points="12.7,183.4 25.1,182.9 21,184.4  "
   id="polygon427" />
	<polygon
   class="st1"
   points="22.9,184.8 26.6,183.8 31,188.4  "
   id="polygon428" />
	<polygon
   class="st1"
   points="32.1,188.7 36.3,191.3 47.6,191.6  "
   id="polygon429" />
	
	
	
	
	
	
	<polygon
   class="st1"
   points="126,72.9 110.6,66 77.1,75.2  "
   id="polygon436" />
	<polygon
   class="st1"
   points="102.7,65.5 87.8,66.5 76.2,73.7  "
   id="polygon437" />
	<polygon
   class="st2"
   points="75.4,78.7 85.4,84.5 73.4,93.6  "
   id="polygon438" />
	<polygon
   class="st1"
   points="73.8,78.3 68.7,105.7 67.5,85.7  "
   id="polygon439" />
	<polygon
   class="st2"
   points="66.2,89.6 66.6,121.2 61.2,105.1  "
   id="polygon440" />
	<polygon
   class="st1"
   points="63,91.5 55.6,115 55.8,102.5  "
   id="polygon441" />
	<polygon
   class="st2"
   points="62.1,111.7 67.7,126.9 66.9,137.2  "
   id="polygon442" />
	<polygon
   class="st1"
   points="59.9,110.1 58.5,137.1 55.1,123.4  "
   id="polygon443" />
	<polygon
   class="st2"
   points="60.7,116.7 60.4,140.3 68.5,149.9  "
   id="polygon444" />
	<polygon
   class="st2"
   points="68.9,131.1 67.4,141.1 70.5,148.4  "
   id="polygon445" />
	<polygon
   class="st1"
   points="60.7,145.2 69.9,153 63.6,167.3  "
   id="polygon446" />
	<polygon
   class="st1"
   points="71,155.5 76.2,167.7 64.9,167.5  "
   id="polygon447" />
	<polygon
   class="st2"
   points="64.4,169.3 76.4,168.8 55.5,193.8  "
   id="polygon448" />
	<polygon
   class="st0"
   points="92.4,85.5 100.2,83.9 99.8,87.8  "
   id="polygon449" />
	<polygon
   class="st2"
   points="101.9,83.8 101.4,87.6 105.1,84.9  "
   id="polygon450" />
	<polygon
   class="st0"
   points="102.8,88 107.4,86.6 111.5,91  "
   id="polygon451" />
	<polygon
   class="st2"
   points="109.8,86.4 118.6,89.4 112.7,90.7  "
   id="polygon452" />
	<polygon
   class="st0"
   points="113.7,92.3 119.9,91.4 120.9,95.5  "
   id="polygon453" />
	<polygon
   class="st2"
   points="122.1,91 123.6,96.1 132.8,96.3  "
   id="polygon454" />
	<polygon
   class="st0"
   points="124.3,98.3 131.8,98.4 132.2,102.9  "
   id="polygon455" />
	<polygon
   class="st2"
   points="133.8,97.4 135.3,105.1 146.7,106.3  "
   id="polygon456" />
	<polygon
   class="st2"
   points="147,108.1 149,116.7 154,115.5  "
   id="polygon457" />
	<polygon
   class="st0"
   points="145.5,108.7 146.7,116.6 138.7,109.3  "
   id="polygon458" />
	<polygon
   class="st2"
   points="137.5,110 145,117.9 131.2,122.2  "
   id="polygon459" />
	<polygon
   class="st2"
   points="134.5,110.1 128.5,123 120.2,115.7  "
   id="polygon460" />
	<polygon
   class="st2"
   points="117.8,117.2 126,124.7 117.6,129.2  "
   id="polygon461" />
	<polygon
   class="st2"
   points="176.9,92.1 148.4,102.7 140.4,97  "
   id="polygon430"
   style="enable-background:new 0 0 427.5 374.9" /><polygon
   class="st1"
   points="172.3,90 153.9,86.5 140,94  "
   id="polygon431"
   style="enable-background:new 0 0 427.5 374.9" /><polygon
   class="st2"
   points="150.7,85.4 136.2,92.8 123.8,88.9  "
   id="polygon432"
   style="enable-background:new 0 0 427.5 374.9" /><polygon
   class="st2"
   points="147.3,83.1 119.8,86.4 110.4,84.2  "
   id="polygon433"
   style="enable-background:new 0 0 427.5 374.9" /><polygon
   class="st1"
   points="144.1,80.8 108.2,82.3 132.9,76.7  "
   id="polygon434"
   style="enable-background:new 0 0 427.5 374.9" /><polygon
   class="st2"
   points="127.2,75.5 87,83.2 75.7,76.7  "
   id="polygon435"
   style="enable-background:new 0 0 427.5 374.9" />
	
	
	
	
	
	
</g>
</svg>
