<svg id="Layer_1" data-name="Layer 1" xmlns="http://www.w3.org/2000/svg" viewBox="0 0 595.28 595.28"><defs><style>.cls-1{fill:#834481;}.cls-2{fill:#6a2468;}.cls-3{fill:#782163;}.cls-4{fill:#863a84;}.cls-5{fill:#82246d;}.cls-6{fill:#8d388b;}.cls-7{fill:#9c2890;}.cls-8{fill:#8b3485;}.cls-9{fill:#912987;}.cls-10{fill:#962c90;}.cls-11{fill:#7a2266;}.cls-12{fill:#863d86;}.cls-13{fill:#952a8e;}.cls-14{fill:#8b3585;}.cls-15{fill:#9e2d91;}.cls-16{fill:#75205f;}.cls-17{fill:#82246f;}.cls-18{fill:#9c2c91;}.cls-19{fill:#833a74;}.cls-20{fill:#873385;}.cls-21{fill:#9f2e92;}.cls-22{fill:#8c2577;}.cls-23{fill:#732469;}.cls-24{fill:#8b2777;}.cls-25{fill:#962586;}.cls-26{fill:#8a2575;}.cls-27{fill:#9e2b91;}.cls-28{fill:#8a2576;}.cls-29{fill:#962687;}.cls-30{fill:#a02e91;}.cls-31{fill:#73246a;}.cls-32{fill:#a02f92;}.cls-33{fill:#8c2578;}.cls-34{fill:#a0559a;}.cls-35{fill:#53193f;}.cls-36{fill:#9c278f;}.cls-37{fill:#9f2c91;}.cls-38{fill:#681e5b;}.cls-39{fill:#842571;}.cls-40{fill:#8b3688;}.cls-41{fill:#91257c;}.cls-42{fill:#9e2a8f;}.cls-43{fill:#6d276b;}.cls-44{fill:#892573;}.cls-45{fill:#944186;}.cls-46{fill:#6f1f59;}.cls-47{fill:#80256f;}.cls-48{fill:#7e2571;}.cls-49{fill:#8f3982;}.cls-50{fill:#97268b;}.cls-51{fill:#8a2574;}.cls-52{fill:#9d278f;}.cls-53{fill:#652973;}.cls-54{fill:#a33594;}.cls-55{fill:#91267c;}.cls-56{fill:#77256f;}.cls-57{fill:#a33293;}.cls-58{fill:#762162;}.cls-59{fill:#6f286b;}.cls-60{fill:#64286b;}.cls-61{fill:#752263;}.cls-62{fill:#66266c;}.cls-63{fill:#8e2578;}.cls-64{fill:#642466;}.cls-65{fill:#762060;}.cls-66{fill:#652565;}.cls-67{fill:#78427d;}.cls-68{fill:#792266;}.cls-69{fill:#6c276c;}.cls-70{fill:#892676;}.cls-71{fill:#94428a;}.cls-72{fill:#7e2978;}.cls-73{fill:#8b2879;}.cls-74{fill:#712263;}.cls-75{fill:#822677;}.cls-76{fill:#6b266a;}.cls-77{fill:#822676;}.cls-78{fill:#6f2970;}.cls-79{fill:#752162;}.cls-80{fill:#5b2045;}.cls-81{fill:#8b8b8b;}.cls-82{fill:#9e549b;}.cls-83{fill:#722469;}.cls-84{fill:#862470;}.cls-85{fill:#8f3890;}.cls-86{fill:#82246c;}.cls-87{fill:#812c6d;}.cls-88{fill:#872b71;}.cls-89{fill:#8c3980;}.cls-90{fill:#9a2c91;}.cls-91{fill:#684570;}.cls-92{fill:#642f6a;}.cls-93{fill:#97709b;}.cls-94{fill:#80236a;}.cls-95{fill:#942687;}.cls-96{fill:#6e256c;}.cls-97{fill:#6a276d;}.cls-98{fill:#772162;}.cls-99{fill:#8c328a;}.cls-100{fill:#962688;}.cls-101{fill:#8e2679;}.cls-102{fill:#8d267f;}.cls-103{fill:#792162;}.cls-104{fill:#79256e;}.cls-105{fill:#762161;}.cls-106{fill:#67286b;}.cls-107{fill:#5e2463;}.cls-108{fill:#a64a9c;}.cls-109{fill:#732163;}.cls-110{fill:#613e67;}.cls-111{fill:#57225b;}.cls-112{fill:#5f2564;}.cls-113{fill:#802f7d;}.cls-114{fill:#5e2363;}.cls-115{fill:#7a2570;}.cls-116{fill:#692569;}.cls-117{fill:#6a256b;}.cls-118{fill:#a33393;}.cls-119{fill:#a53995;}.cls-120{fill:#743377;}.cls-121{fill:#652467;}.cls-122{fill:#9d3092;}.cls-123{fill:#a13293;}.cls-124{fill:#71256b;}.cls-125{fill:#70246a;}.cls-126{fill:#622c68;}.cls-127{fill:#d86357;}.cls-128{fill:#d5564a;}.cls-129{fill:#de7f76;}.cls-130{fill:#c15b5d;}.cls-131{fill:#d0554e;}.cls-132{fill:#dd5948;}.cls-133{fill:#732265;}.cls-134{fill:#782367;}.cls-135{fill:#a13092;}.cls-136{fill:#722468;}.cls-137{fill:#62276a;}.cls-138{fill:#673175;}.cls-139{fill:#792061;}.cls-140{fill:#792264;}.cls-141{fill:#7b2164;}.cls-142{fill:#751f5e;}.cls-143{fill:#9f268f;}.cls-144{fill:#74246a;}.cls-145{fill:#74246b;}.cls-146{fill:#a33092;}.cls-147{fill:#8b2982;}.cls-148{fill:#8f2578;}.cls-149{fill:#77205f;}.cls-150{fill:#8b2577;}.cls-151{fill:#8d2579;}.cls-152{fill:#892575;}.cls-153{fill:#6e256a;}.cls-154{fill:#5f266c;}.cls-155{fill:#7e2675;}.cls-156{fill:#5c266b;}.cls-157{fill:#832675;}.cls-158{fill:#59276d;}.cls-159{fill:#7a2775;}.cls-160{fill:#582870;}.cls-161{fill:#732875;}.cls-162{fill:#582871;}.cls-163{fill:#76205f;}.cls-164{fill:#7c2f63;}.cls-165{fill:#9b278d;}.cls-166{fill:#431c38;}.cls-167{fill:#432135;}.cls-168{fill:#8e3b96;}.cls-169{fill:#632e6d;}.cls-170{fill:#76246b;}</style></defs><polygon class="cls-1" points="451.15 138.49 454.98 181.13 449.49 170.4 451.15 138.49"/><polygon class="cls-2" points="438.13 160.45 447.28 169.89 440.43 132.36 438.13 160.45"/><polygon class="cls-3" points="428.43 125.6 438.77 131.85 436.72 159.81 428.43 125.6"/><polygon class="cls-4" points="427.13 152.53 435.3 158.79 427 125.47 427.13 152.53"/><polygon class="cls-5" points="449.36 135.79 427.4 123.28 440.17 123.4 449.36 135.79"/><polygon class="cls-6" points="425.49 115 425.74 121.77 437.87 121.25 425.49 115"/><polygon class="cls-7" points="415.59 111.81 423 113.34 423.12 120.23 415.59 111.81"/><polygon class="cls-5" points="421.53 120.62 413.11 111.55 401.87 119.21 421.53 120.62"/><polygon class="cls-7" points="409.02 110.79 397.66 119.47 391.28 110.15 409.02 110.79"/><polygon class="cls-8" points="389.11 110.28 394.47 119.98 388.08 121.64 389.11 110.28"/><polygon class="cls-7" points="386.17 110.16 385.66 121.52 375.06 110.28 386.17 110.16"/><polygon class="cls-9" points="425.23 124.7 424.34 148.19 416.81 123.81 425.23 124.7"/><polyline class="cls-10" points="415.02 124.32 423.19 150.11 414 147.04 415.02 124.32"/><polygon class="cls-11" points="412.85 123.17 410.94 144.49 401.11 122.53 412.85 123.17"/><polygon class="cls-10" points="397.23 121.64 389.83 123.51 406.77 144.36 397.23 121.64"/><polygon class="cls-12" points="388.47 124.96 405.15 145.04 394.6 145.55 388.47 124.96"/><polygon class="cls-13" points="385.83 124.53 391.87 144.45 374.85 128.87 385.83 124.53"/><polygon class="cls-14" points="372.08 111.08 384 122.83 372 125.89 372.08 111.08"/><polygon class="cls-5" points="370.08 111.25 369.57 126.49 354.85 115.08 370.08 111.25"/><polygon class="cls-15" points="352.64 116.36 367.62 127.6 338 123.34 352.64 116.36"/><polygon class="cls-16" points="372.98 129.98 389.23 145.47 377.15 146.06 372.98 129.98"/><polygon class="cls-10" points="370 130.23 374.51 147.17 367.96 147.85 370 130.23"/><polygon class="cls-12" points="367.7 131.85 365.66 148.19 357.83 138.83 367.7 131.85"/><polygon class="cls-10" points="356.38 140.02 363.45 149.04 350.77 154.23 356.38 140.02"/><polygon class="cls-6" points="336.3 124.45 366.43 129.81 354.94 136.36 336.3 124.45"/><polygon class="cls-17" points="331.96 125.55 352.64 137.89 331.7 132.96 331.96 125.55"/><polygon class="cls-18" points="332.38 135.34 352.04 139.94 343.53 146.15 332.38 135.34"/><polygon class="cls-6" points="330.94 137.64 342.08 147.43 324.89 155.17 330.94 137.64"/><polygon class="cls-6" points="353.15 141.89 346.77 157.89 335.96 158.57 353.15 141.89"/><polygon class="cls-18" points="342.17 149.3 324.55 157.3 323.11 167.94 342.17 149.3"/><polygon class="cls-19" points="335.19 159.85 345.91 159.17 330.51 169.89 335.19 159.85"/><polygon class="cls-20" points="332.64 161.47 323.7 169.81 329.06 169.55 332.64 161.47"/><polygon class="cls-21" points="344.04 162.66 330.94 171.51 342.68 192.62 344.04 162.66"/><polygon class="cls-22" points="347.11 160.11 346.25 167.43 362.08 153.3 347.11 160.11"/><polygon class="cls-21" points="357.66 159.94 367.7 150.23 387.96 148.02 357.66 159.94"/><polygon class="cls-23" points="450.38 175.77 453.83 184.45 448.72 200.96 450.38 175.77"/><polygon class="cls-24" points="435.79 162.66 421.66 211.34 412.81 195.51 435.79 162.66"/><polygon class="cls-25" points="434.25 160.79 411.62 192.11 415.36 160.11 434.25 160.79"/><polygon class="cls-26" points="431.87 158.23 412.98 149.38 396.47 157.21 431.87 158.23"/><polygon class="cls-27" points="407.02 148.28 393.91 148.45 382.68 160.03 407.02 148.28"/><polygon class="cls-28" points="390.43 148.7 355.45 163.08 374.85 163.6 390.43 148.7"/><polygon class="cls-29" points="344.87 177.94 344.74 170.6 356.17 174.36 344.87 177.94"/><polygon class="cls-29" points="358.98 174.43 362.81 170.34 369.25 177.87 358.98 174.43"/><polygon class="cls-30" points="368.04 185 368.25 192.49 358.21 192.91 368.04 185"/><polygon class="cls-31" points="353.91 194.06 371.02 194.49 361.23 201.72 353.91 194.06"/><polygon class="cls-32" points="345.49 188.87 346.6 199.68 373.74 217.38 345.49 188.87"/><polygon class="cls-33" points="362.68 202.83 371.19 196.87 374.77 214.74 362.68 202.83"/><polygon class="cls-34" points="351.19 167.43 373.74 164.79 376.38 169.89 351.19 167.43"/><polygon class="cls-35" points="353.44 176.24 358.05 175.32 361.56 179.85 353.44 176.24"/><polygon class="cls-36" points="395.94 159.28 412.53 159.02 394.98 172.43 395.94 159.28"/><polygon class="cls-27" points="366.51 170.49 376.04 171.43 380.21 182.4 366.51 170.49"/><polygon class="cls-33" points="370.34 177.3 378.77 184.7 371.7 191.51 370.34 177.3"/><polygon class="cls-31" points="373.57 192.96 380.38 186.57 386.08 193.81 373.57 192.96"/><polygon class="cls-37" points="386.17 161.3 392.81 158.91 383.87 182.32 386.17 161.3"/><polygon class="cls-31" points="382.17 179.77 376.98 167.08 384.04 162.4 382.17 179.77"/><polygon class="cls-38" points="384.47 185.64 390.6 194.32 393.57 163.51 384.47 185.64"/><polygon class="cls-39" points="396.72 173.21 412.64 162.06 409.23 190.57 396.72 173.21"/><polygon class="cls-23" points="419.62 212.11 413.06 223.25 396.55 176.96 419.62 212.11"/><polygon class="cls-24" points="448.21 175.51 430.68 203.25 444.89 204.79 448.21 175.51"/><polygon class="cls-23" points="429.49 205.98 425.06 212.11 444.21 207.85 429.49 205.98"/><polygon class="cls-40" points="444.3 210.66 432.04 220.62 422.51 214.74 444.3 210.66"/><polygon class="cls-11" points="421.49 216.28 429.23 221.89 414.34 225.98 421.49 216.28"/><polygon class="cls-39" points="394.77 177.04 393.23 197.55 409.32 224.02 394.77 177.04"/><polygon class="cls-37" points="374.77 196.45 389.23 196.87 408.47 226.32 374.77 196.45"/><polygon class="cls-23" points="374.17 199.6 406.25 227.68 380.3 223.17 374.17 199.6"/><polygon class="cls-41" points="377.06 222.32 365.83 220.19 348.04 203.34 377.06 222.32"/><polygon class="cls-42" points="349.32 206.83 363.87 222.06 356.04 219.68 349.32 206.83"/><polygon class="cls-31" points="357.49 221.81 365.23 224.62 367.28 231.94 357.49 221.81"/><polygon class="cls-28" points="368.3 233.55 393.23 248.79 395.45 273.55 368.3 233.55"/><polygon class="cls-30" points="357.83 224.11 394.25 275.25 373.83 260.45 357.83 224.11"/><polygon class="cls-30" points="396.81 251.94 407.11 261.47 399.96 278.15 396.81 251.94"/><polygon class="cls-43" points="409.57 264.79 408.47 290.66 401.4 281.04 409.57 264.79"/><polygon class="cls-30" points="412.13 268.53 410.25 293.21 418 282.49 412.13 268.53"/><polygon class="cls-44" points="419.11 285.98 411.7 298.15 420.89 301.3 419.11 285.98"/><polygon class="cls-43" points="413.74 302.06 439.62 310.23 421.91 317.21 413.74 302.06"/><polygon class="cls-30" points="444.81 311.51 427.7 318.74 464.3 313.64 444.81 311.51"/><polygon class="cls-45" points="429.83 320.96 443.36 324.79 469.15 316.45 429.83 320.96"/><polygon class="cls-43" points="477.66 316.79 456.13 324.28 493.15 324.19 477.66 316.79"/><polyline class="cls-46" points="478 327.28 495.96 327.53 499.53 336.38 478.25 327.28"/><polygon class="cls-27" points="497.74 328.06 504.38 330.11 510.38 352.96 497.74 328.06"/><polygon class="cls-47" points="490.21 335.6 501.57 342.36 502.72 357.68 490.21 335.6"/><polygon class="cls-48" points="505.15 347.21 511.4 360.11 504.19 380.4 505.15 347.21"/><polygon class="cls-43" points="498.6 353.15 503 360.11 503.19 377.91 498.6 353.15"/><polygon class="cls-49" points="499.4 368.02 502.66 381.74 497.4 390.91 499.4 368.02"/><polygon class="cls-49" points="496.53 385.38 495.38 393.62 486.13 400.32 496.53 385.38"/><polygon class="cls-43" points="487.47 395.72 482.81 401.34 470.94 400.64 487.47 395.72"/><polygon class="cls-49" points="478.72 402.43 460.4 400.51 456.13 403.32 478.72 402.43"/><polygon class="cls-43" points="458.36 400.38 455.04 402.36 447.51 394.83 458.36 400.38"/><polygon class="cls-49" points="447.64 393.49 452.94 396.43 446.81 385 447.64 393.49"/><polygon class="cls-50" points="393.49 278.83 373.32 264.19 380.98 282.4 393.49 278.83"/><polygon class="cls-43" points="394.43 281.04 382.43 284.7 385.32 292.7 394.43 281.04"/><polygon class="cls-51" points="394.85 284.19 393.83 322.49 386 295.25 394.85 284.19"/><polygon class="cls-52" points="387.62 311.43 394.43 331.6 388.47 358.32 387.62 311.43"/><polygon class="cls-53" points="394.08 348.11 390.51 377.89 382.51 385.38 394.08 348.11"/><polygon class="cls-54" points="389.32 381.89 380.81 407.85 381.23 390.06 389.32 381.89"/><polygon class="cls-55" points="379.87 393.68 376.81 421.64 374.6 410.49 379.87 393.68"/><polygon class="cls-56" points="374.43 417.55 377.23 447.17 370.34 434.4 374.43 417.55"/><polygon class="cls-28" points="372.64 442.7 382 457.72 376.66 457.32 372.64 442.7"/><polygon class="cls-57" points="377.81 459.3 382.7 459.98 389.68 470.02 377.81 459.3"/><path class="cls-31" d="M349.23,209.72s22,49.74,22,50.51-16-21.15-16-21.15Z"/><polygon class="cls-41" points="355.15 242.15 369.45 260.02 356.17 248.02 355.15 242.15"/><polygon class="cls-31" points="357.19 251.72 369.19 264.11 367.15 268.19 357.19 251.72"/><polygon class="cls-46" points="357.32 255.81 350.3 289.51 366.38 270.23 357.32 255.81"/><polygon class="cls-46" points="371.39 267.17 381.22 292.06 371 311.85 371.39 267.17"/><path class="cls-58" d="M369.19,267.94,358,300.15s11.06-19.06,10.94-17.53S369.19,267.94,369.19,267.94Z"/><polygon class="cls-41" points="369.23 284.06 359.49 301.38 368.68 315.55 369.23 284.06"/><polygon class="cls-43" points="380.87 299.43 371 320.19 370.92 348.19 380.87 299.43"/><polygon class="cls-51" points="382.94 299.08 371.45 351 385.57 324.87 382.94 299.08"/><polygon class="cls-59" points="384.98 331.77 371.28 353.89 368.04 374.91 384.98 331.77"/><polygon class="cls-51" points="386 336.36 369.83 377.13 386 362.32 386 336.36"/><polygon class="cls-60" points="383.19 367.68 367.96 382.91 360.89 406.23 383.19 367.68"/><polygon class="cls-61" points="382.25 373.47 358 416.36 372.47 409.38 382.25 373.47"/><polygon class="cls-33" points="371.81 412.25 366.96 429.68 359.17 418.32 371.81 412.25"/><polygon class="cls-62" points="358.15 419.85 366.25 432.55 356.04 435.11 358.15 419.85"/><polygon class="cls-61" points="356.49 437.47 360.7 448.83 366.38 434.91 356.49 437.47"/><polygon class="cls-63" points="367.83 438.06 362.22 454.23 368 465.47 367.83 438.06"/><polygon class="cls-31" points="370 439.77 369.96 467.4 374.24 455.21 370 439.77"/><polygon class="cls-64" points="374.85 458.15 372.51 470.21 376.04 475.17 374.85 458.15"/><polygon class="cls-65" points="378 464.02 378.19 477.3 385.38 481.47 378 464.02"/><polygon class="cls-66" points="378 461.47 388.3 471.94 386.94 480.28 378 461.47"/><polygon class="cls-22" points="390.85 473.3 399.36 474.83 388.02 480.62 390.85 473.3"/><polygon class="cls-58" points="387.96 482.34 399.36 476.53 394.43 484.53 387.96 482.34"/><polygon class="cls-67" points="403.28 474.83 410.25 470.91 397.74 484.62 403.28 474.83"/><polygon class="cls-28" points="409.91 473.47 399.62 485.13 408.64 483.6 409.91 473.47"/><polygon class="cls-68" points="413.49 469.47 410.43 482.49 423.28 473.64 413.49 469.47"/><polygon class="cls-69" points="415.36 467.43 421.23 460.11 424.98 471.34 415.36 467.43"/><polygon class="cls-70" points="422.25 458.15 424.3 445.81 426.51 469.13 422.25 458.15"/><polygon class="cls-64" points="426.08 446.74 427.7 467.51 431.02 456.28 426.08 446.74"/><polygon class="cls-71" points="423.45 429.13 424.64 441.55 432.38 455.6 423.45 429.13"/><polygon class="cls-64" points="423.87 426.06 432.81 451.08 431.87 434.74 423.87 426.06"/><polygon class="cls-72" points="423.36 423.34 422.43 416.45 433.91 433.3 423.36 423.34"/><polygon class="cls-64" points="423.28 415.17 432.81 428.11 432.21 421.72 423.28 415.17"/><polygon class="cls-63" points="423.36 413.21 432.04 419.34 427.11 410.15 423.36 413.21"/><polygon class="cls-58" points="421.23 412.19 426.17 409.04 418.43 404.79 421.23 412.19"/><polygon class="cls-73" points="416.81 404.96 419.96 412.28 413.66 412.28 416.81 404.96"/><polygon class="cls-69" points="415.11 404.87 411.96 412.79 405.83 415 415.11 404.87"/><polygon class="cls-33" points="405.83 416.28 412.04 414.23 403.96 423.43 405.83 416.28"/><polygon class="cls-74" points="404.04 425.47 411.11 417.55 405.83 434.83 404.04 425.47"/><path class="cls-63" d="M406.94,436.19c0-.26,3.66-12.51,3.66-12.51l.26,10Z"/><polygon class="cls-69" points="407.53 438.32 411.19 435.68 416.72 443.51 407.53 438.32"/><polygon class="cls-63" points="407.62 440.45 416.98 444.96 410.77 446.06 407.62 440.45"/><polygon class="cls-69" points="411.96 448.02 417.57 446.83 417.4 454.66 411.96 448.02"/><polygon class="cls-75" points="412.3 450.66 416.04 456.45 411.7 461.04 412.3 450.66"/><polygon class="cls-76" points="410.77 454.83 410.6 461.3 406.77 461.47 410.77 454.83"/><polygon class="cls-77" points="407.79 456.79 404.55 460.96 399.02 456.45 407.79 456.79"/><polygon class="cls-78" points="404.04 455.17 398.25 454.91 397.74 452.19 404.04 455.17"/><polygon class="cls-79" points="398.08 449.98 398.77 444.96 401.91 452.45 398.08 449.98"/><polygon class="cls-63" points="398.85 442.06 400.38 435.08 401.4 447.08 398.85 442.06"/><polygon class="cls-78" points="401.66 435.25 402.25 444.79 404.13 439.51 401.66 435.25"/><polygon class="cls-35" points="355.02 177.94 352.4 176.69 347.64 183.11 355.02 177.94"/><polygon class="cls-35" points="345.32 186.46 347.93 185.12 353.8 192.27 345.32 186.46"/><polygon class="cls-80" points="352.05 189.36 360.98 187.34 354.35 191.96 352.05 189.36"/><polygon class="cls-80" points="361.4 181.13 355.6 187.19 361.08 185.85 361.4 181.13"/><polygon class="cls-81" points="351.89 181.95 357.51 182.17 353.77 186.08 351.89 181.95"/><polygon class="cls-82" points="329.62 127.38 328.6 134.91 319.02 139.89 329.62 127.38"/><polygon class="cls-35" points="350.65 177.49 345.19 180.2 345.38 185.72 350.65 177.49"/><polygon class="cls-80" points="352.64 180.4 361.02 180.57 355.62 178.57 352.64 180.4"/><polygon class="cls-34" points="347.49 170.28 362.23 170.09 357.83 174.37 347.49 170.28"/><polygon class="cls-29" points="360.51 176.28 368.94 179.4 368.81 183.81 360.51 176.28"/><polygon class="cls-40" points="437.83 163.34 447.02 172.19 428.3 201.98 437.83 163.34"/><polygon class="cls-31" points="441.7 133.38 448.72 168.49 450.13 139.25 441.7 133.38"/><polygon class="cls-63" points="330.6 174.23 329.06 186.15 343.02 198.06 330.6 174.23"/><polygon class="cls-32" points="328.89 172.28 327.19 182.32 323.62 172.28 328.89 172.28"/><polygon class="cls-83" points="322.08 173.72 321.91 179.51 326.34 183.6 322.08 173.72"/><polygon class="cls-84" points="321.06 172.02 319.53 177.47 315.28 171.68 321.06 172.02"/><polygon class="cls-85" points="322.08 159.94 321.06 169.98 314.77 170.15 322.08 159.94"/><polygon class="cls-86" points="328.38 136.79 319.19 141.21 326.34 143.94 328.38 136.79"/><polygon class="cls-18" points="318.51 142.91 325.32 145.98 317.66 152.79 318.51 142.91"/><polygon class="cls-87" points="316.81 142.74 315.79 154.15 310.34 155 316.81 142.74"/><polygon class="cls-6" points="310 156.87 315.45 156.02 313.4 163.85 310 156.87"/><polygon class="cls-88" points="316.98 157.55 323.45 150.23 320.89 158.91 316.98 157.55"/><polygon class="cls-89" points="315.96 159.25 314.77 166.91 319.7 160.45 315.96 159.25"/><polygon class="cls-90" points="305.4 160.96 308.81 156.87 308.13 165.81 305.4 160.96"/><polygon class="cls-91" points="310.09 159.08 312.9 164.79 310 166.66 310.09 159.08"/><polygon class="cls-92" points="313.06 165.72 312.21 170.4 306.43 176.36 313.06 165.72"/><polygon class="cls-91" points="311.19 166.83 305.81 174.55 304.85 170.02 311.19 166.83"/><polygon class="cls-93" points="304.55 162.83 307.96 167 304.89 168.87 304.55 162.83"/><polygon class="cls-18" points="302.94 163.89 298.98 163.64 302.3 171.3 302.94 163.89"/><polygon class="cls-94" points="303.57 170.72 305.62 179.28 303.25 182.6 303.57 170.72"/><polygon class="cls-95" points="302.11 173.4 301.98 180.04 293.43 188.98 302.11 173.4"/><polygon class="cls-96" points="293.94 189.87 296.68 192.74 302.11 181.83 293.94 189.87"/><polygon class="cls-97" points="297.32 193.51 306 180.36 311.11 178.77 297.32 193.51"/><polygon class="cls-98" points="298.08 194.53 299.81 198.49 309.77 183.17 298.08 194.53"/><polygon class="cls-99" points="307.53 177.74 312.32 172.77 311.17 177.81 307.53 177.74"/><polygon class="cls-62" points="313.85 172.79 318.77 178.28 313.15 178.34 313.85 172.79"/><polygon class="cls-98" points="313.21 180.43 319.72 179.91 313.98 188.28 313.21 180.43"/><polygon class="cls-100" points="311.87 182.72 311.62 191.98 300.38 200.6 311.87 182.72"/><polygon class="cls-101" points="315.05 191.25 321 181.3 320.75 198.74 315.05 191.25"/><polygon class="cls-32" points="328.21 187.34 345.15 203.08 351.19 231.34 328.21 187.34"/><polygon class="cls-31" points="323.83 183.77 349.36 234.15 324 204.62 323.83 183.77"/><polygon class="cls-31" points="315.19 194.57 321.57 205.38 315.7 214.23 315.19 194.57"/><polygon class="cls-102" points="312.72 194.83 311.7 214.15 297.06 215.08 312.72 194.83"/><polygon class="cls-103" points="310.43 194.57 296.64 213.98 297.57 204.53 310.43 194.57"/><polygon class="cls-100" points="295.02 194.15 298.43 199.43 294.25 202.66 295.02 194.15"/><polygon class="cls-104" points="293.74 193.64 291.36 202.4 277.83 200.53 293.74 193.64"/><polygon class="cls-94" points="292.21 192.11 286.17 191.08 275.02 199.17 292.21 192.11"/><polygon class="cls-60" points="280.55 192.11 253.66 197.81 268.64 199.77 280.55 192.11"/><polygon class="cls-65" points="269.74 202.23 288.13 204.36 242.43 213.21 269.74 202.23"/><polygon class="cls-95" points="293.66 205.81 276.98 216.7 243.28 215.6 293.66 205.81"/><polygon class="cls-95" points="260.72 202.32 232.3 212.87 224.3 207.17 260.72 202.32"/><polygon class="cls-105" points="256.13 200.19 237.74 196.7 223.87 204.19 256.13 200.19"/><polygon class="cls-60" points="234.6 195.6 220.04 203 207.62 199.08 234.6 195.6"/><polygon class="cls-95" points="231.19 193.3 203.7 196.53 194.25 194.4 231.19 193.3"/><polygon class="cls-60" points="227.96 191 192.04 192.45 216.81 186.91 227.96 191"/><polygon class="cls-105" points="211.11 185.72 170.85 193.38 159.53 186.91 211.11 185.72"/><polygon class="cls-95" points="209.83 183.08 194.43 176.19 160.98 185.38 209.83 183.08"/><polygon class="cls-106" points="186.6 175.68 171.62 176.7 160.04 183.85 186.6 175.68"/><polygon class="cls-107" points="159.28 188.87 169.23 194.66 157.23 203.77 159.28 188.87"/><polygon class="cls-105" points="157.66 188.45 152.55 215.85 151.36 195.85 157.66 188.45"/><polygon class="cls-107" points="150.08 199.77 150.85 229.55 145.06 215.25 150.08 199.77"/><polygon class="cls-108" points="146.4 201.64 139 225.21 139.17 212.7 146.4 201.64"/><polygon class="cls-109" points="146 221.89 151.53 237.04 150.43 245.89 146 221.89"/><polygon class="cls-110" points="143.79 220.28 142.34 247.25 139.02 233.55 143.79 220.28"/><polygon class="cls-95" points="145 226.83 144.75 250.49 152.83 260.11 145 226.83"/><polygon class="cls-111" points="152.72 241.3 151.28 251.25 154.34 258.57 152.72 241.3"/><polygon class="cls-112" points="144.55 255.34 153.74 263.17 147.45 277.47 144.55 255.34"/><polygon class="cls-52" points="154.85 265.72 160.04 277.89 148.81 277.64 154.85 265.72"/><polygon class="cls-113" points="148.3 279.51 160.3 279 139.36 303.94 148.3 279.51"/><polygon class="cls-95" points="145 281.21 137 302.83 137.04 291.55 145 281.21"/><path class="cls-114" d="M145.74,299.85c-.26.26-7.74,8.94-7.74,8.94l.51,7.83Z"/><path class="cls-115" d="M146.94,301.89c-.26.34-7.06,16-7.06,16l7.74,7.4Z"/><polygon class="cls-116" points="139.53 319.17 146.77 328.11 138.94 339.51 139.53 319.17"/><path class="cls-95" d="M137.66,329.81l-1.36,12.77s-11.83,5.7-11.74,5.36S137.66,329.81,137.66,329.81Z"/><polygon class="cls-117" points="135.28 346.32 124.38 362.15 124.81 349.47 135.28 346.32"/><polygon class="cls-95" points="131.26 356.87 125.13 366.15 131 373.38 131.26 356.87"/><polygon class="cls-118" points="135.36 296.28 137.49 324.81 132 316.13 135.36 296.28"/><polygon class="cls-119" points="131.45 318.06 136.98 326.66 130.79 335.21 131.45 318.06"/><polygon class="cls-120" points="129.32 330.23 129.51 337.19 124.31 346.06 129.32 330.23"/><polygon class="cls-121" points="132.55 303.43 131.62 311.17 121.66 303.77 132.55 303.43"/><polygon class="cls-122" points="117.66 302.23 127.02 309.64 113.06 305.3 117.66 302.23"/><polygon class="cls-115" points="115.62 301.13 109.74 304.11 108.3 297.81 115.62 301.13"/><polygon class="cls-123" points="105.23 295.77 107.62 302.4 98 294.83 105.23 295.77"/><polygon class="cls-124" points="95.02 294.74 103.79 301.89 89.15 300.62 95.02 294.74"/><polygon class="cls-123" points="88.3 302.4 94.77 302.66 84.55 314.57 88.3 302.4"/><polygon class="cls-125" points="87.7 313.04 83.87 318.06 92.21 328.36 87.7 313.04"/><polygon class="cls-126" points="85 321.3 85.08 327.85 95.38 334.83 85 321.3"/><polygon class="cls-125" points="90.51 332.7 96.13 336.62 91.02 344.53 90.51 332.7"/><polygon class="cls-125" points="89 338.4 88.92 345.47 84.32 339.6 89 338.4"/><polygon class="cls-127" points="96.57 293.53 109.02 293.02 104.87 294.55 96.57 293.53"/><polygon class="cls-128" points="106.77 295 110.43 293.98 114.85 298.57 106.77 295"/><polygon class="cls-129" points="115.91 298.83 120.13 301.51 131.43 301.77 115.91 298.83"/><polygon class="cls-107" points="176.3 195.68 184.04 194.06 183.62 197.98 176.3 195.68"/><polygon class="cls-130" points="185.74 193.98 185.23 197.81 188.98 195.08 185.74 193.98"/><polygon class="cls-107" points="186.68 198.15 191.28 196.79 195.36 201.13 186.68 198.15"/><polygon class="cls-130" points="193.66 196.53 202.43 199.6 196.55 200.87 193.66 196.53"/><polygon class="cls-105" points="197.57 202.49 203.79 201.55 204.81 205.72 197.57 202.49"/><polygon class="cls-131" points="206 201.13 207.45 206.32 216.64 206.49 206 201.13"/><polygon class="cls-60" points="208.21 208.45 215.7 208.62 216.04 213.04 208.21 208.45"/><polygon class="cls-132" points="217.66 207.6 219.19 215.25 230.51 216.45 217.66 207.6"/><polygon class="cls-107" points="230.85 218.23 232.89 226.91 237.91 225.72 230.85 218.23"/><polygon class="cls-133" points="229.4 218.91 230.51 226.74 222.6 219.43 229.4 218.91"/><polygon class="cls-134" points="221.4 220.19 228.89 228.02 215.11 232.36 221.4 220.19"/><polygon class="cls-60" points="218.34 220.28 212.38 233.13 204.04 225.89 218.34 220.28"/><polygon class="cls-135" points="201.17 227.34 209.42 234.83 201 239.34 201.17 227.34"/><polygon class="cls-134" points="199.62 228.96 199.19 241.21 190.51 249.98 199.62 228.96"/><polygon class="cls-52" points="196.62 230.23 190 245.72 189.89 235.94 196.62 230.23"/><polygon class="cls-105" points="235.96 218.77 240.38 225.32 269.06 219.28 235.96 218.77"/><polygon class="cls-57" points="268.04 221.21 241.32 227.68 240.13 235.85 268.04 221.21"/><path class="cls-100" d="M268.3,223.34c-.26.09-26.81,14-26.81,14l-9.28,13Z"/><path class="cls-3" d="M239.7,227.94c-.09.26-2,8-2,8l-22.13,4.17Z"/><polygon class="cls-3" points="234.43 238.4 212.64 242.74 206.6 250.23 234.43 238.4"/><polygon class="cls-100" points="236.89 239.85 223.87 245.64 223.62 256.19 236.89 239.85"/><polygon class="cls-136" points="221.83 247.08 220.89 257.64 207.36 267.08 221.83 247.08"/><polygon class="cls-100" points="219.53 246.91 206.68 253.21 206.43 265.3 219.53 246.91"/><polygon class="cls-60" points="204.89 257.47 204.21 268.53 189.57 285.38 204.89 257.47"/><path class="cls-3" d="M204.21,255.08c0,.26-16.51,28.09-16.51,28.09L191.27,264Z"/><polygon class="cls-95" points="208.13 245.21 202 254.15 191.19 261.89 208.13 245.21"/><polygon class="cls-137" points="200.38 250.74 180.98 266.15 188.3 263.34 200.38 250.74"/><polygon class="cls-95" points="187.7 265.81 180.13 268.96 169.74 286.23 187.7 265.81"/><polygon class="cls-60" points="188.21 267.94 180.98 277.3 183.11 289.81 188.21 267.94"/><polyline class="cls-60" points="181.74 294.49 182.34 298.23 179.28 307.6 180.3 285.38 181.74 294.49"/><polygon class="cls-95" points="178.6 279.17 177.06 305.72 171.11 290.15 178.6 279.17"/><polygon class="cls-60" points="172.98 300.62 178.85 313.98 177.83 326.06 172.98 300.62"/><polygon class="cls-95" points="169.83 297.72 168.38 314.91 176.04 327.43 169.83 297.72"/><polygon class="cls-3" points="168.81 291.34 163.11 303.08 166.08 309.47 168.81 291.34"/><polygon class="cls-3" points="165.74 314.4 162.34 307.68 163.02 336.7 165.74 314.4"/><polygon class="cls-3" points="168.55 319.08 177.91 335.17 169.4 339.17 168.55 319.08"/><polygon class="cls-95" points="166.77 323.34 167.62 354.06 164.89 339.85 166.77 323.34"/><polygon class="cls-60" points="169.83 341.47 178.85 337.13 184.89 355.94 169.83 341.47"/><polygon class="cls-95" points="170.62 345.13 185 358.57 185.09 368.19 170.62 345.13"/><polygon class="cls-3" points="170.25 347.25 175.7 359.43 169.49 359.25 170.25 347.25"/><polygon class="cls-95" points="170.43 361.72 176.47 361.89 174.43 374.06 170.43 361.72"/><polygon class="cls-60" points="178.34 360.45 184.64 371.34 180.21 385.72 178.34 360.45"/><polygon class="cls-95" points="177.15 372.53 178 386.66 170.51 393.98 177.15 372.53"/><polygon class="cls-3" points="173.15 377.64 167.79 393.81 167.28 386.06 173.15 377.64"/><polygon class="cls-60" points="177.4 390.74 167.45 398.91 166.43 410.4 177.4 390.74"/><polygon class="cls-119" points="165.4 401.47 163.87 413.38 156.98 419 165.4 401.47"/><polygon class="cls-119" points="166 391.25 166.09 397.47 158.34 403.85 166 391.25"/><polygon class="cls-60" points="162 403.85 155.36 409.98 151.96 424.79 162 403.85"/><polygon class="cls-60" points="161.83 417.13 156.81 422.15 158.17 429.3 161.83 417.13"/><polygon class="cls-119" points="154.43 423.68 152.3 429.72 157.06 436.11 154.43 423.68"/><polygon class="cls-3" points="161.57 424.53 158.77 432.19 162.77 436.36 161.57 424.53"/><polygon class="cls-119" points="163.87 430.74 164.81 437.72 173.32 434.49 163.87 430.74"/><polygon class="cls-60" points="168.21 437.64 175.62 438.15 180.47 432.62 168.21 437.64"/><polygon class="cls-3" points="180.72 434.83 186.6 427.94 194.68 426.57 180.72 434.83"/><polygon class="cls-119" points="193.15 429.13 197.66 426.23 208.98 426.83 193.15 429.13"/><polygon class="cls-3" points="203.7 429.3 210.94 429.04 217.32 438.49 203.7 429.3"/><polygon class="cls-60" points="157.91 434.74 158.85 439 163.53 441.89 157.91 434.74"/><polygon class="cls-3" points="163.19 439 166.08 442.57 178 441.98 163.19 439"/><polygon class="cls-119" points="176.21 440.19 179.96 440.96 190.51 432.79 176.21 440.19"/><polygon class="cls-60" points="187.6 436.96 195.57 429.91 202.34 429.55 187.6 436.96"/><polygon class="cls-119" points="197.3 435.79 202.83 434.94 208.02 438.43 197.3 435.79"/><polygon class="cls-138" points="204.55 438.3 208.55 439.49 211.47 444.81 204.55 438.3"/><polygon class="cls-119" points="212.47 437.81 218 441.04 217.32 451.08 212.47 437.81"/><polygon class="cls-138" points="214.08 447.25 216.21 453.04 210.51 458.06 214.08 447.25"/><polygon class="cls-119" points="210.43 453.55 207.96 458.57 200.98 456.28 210.43 453.55"/><polygon class="cls-3" points="205.91 453.13 198.68 453.81 195.96 447.43 205.91 453.13"/><polygon class="cls-60" points="200.72 448.28 195.36 443.51 195.79 436.96 200.72 448.28"/><polygon class="cls-3" points="197.23 437.13 199.4 442.83 199.62 437.72 197.23 437.13"/><polygon class="cls-3" points="207.77 443.15 211.21 446.02 208.28 449.02 207.77 443.15"/><polygon class="cls-104" points="294.85 206.91 263.19 237.38 294 215.94 294.85 206.91"/><polygon class="cls-65" points="231.53 255.6 274.25 221.89 239.36 255.94 231.53 255.6"/><polygon class="cls-100" points="245.83 255.45 288.72 222.25 258.43 255.28 245.83 255.45"/><polygon class="cls-139" points="295.87 218.49 311.02 216.28 264.21 254.74 295.87 218.49"/><polygon class="cls-50" points="263.87 257.47 270.17 260.02 300.81 226.49 263.87 257.47"/><polygon class="cls-140" points="312.21 217.64 310.68 227 276.81 257.3 312.21 217.64"/><polygon class="cls-50" points="275.11 261.89 275.45 267.68 303.19 236.7 275.11 261.89"/><polygon class="cls-16" points="276.81 270.57 277.66 281.13 302 241.3 276.81 270.57"/><polygon class="cls-50" points="279.36 281.47 310 232.28 301.66 263.77 279.36 281.47"/><polygon class="cls-141" points="315.11 219.68 322.08 209.81 316.43 251.7 315.11 219.68"/><polygon class="cls-41" points="313.23 232.79 313.26 233.47 314.6 265.98 306.94 262.06 313.23 232.79"/><polygon class="cls-31" points="306.25 263.94 314.6 268.19 298.77 300.53 306.25 263.94"/><polygon class="cls-142" points="300.13 269.89 290.6 286.91 278.34 287.25 300.13 269.89"/><polygon class="cls-41" points="294.66 285.78 302.96 270.02 295.7 299.17 294.66 285.78"/><polygon class="cls-142" points="297.91 308.87 314.6 273.13 312.72 294.57 297.91 308.87"/><polygon class="cls-31" points="293.57 296.49 295.66 306.46 287.11 317.94 293.57 296.49"/><polygon class="cls-142" points="292.64 288.96 286.71 311.22 287.54 295.84 292.64 288.96"/><polygon class="cls-143" points="287.7 290.49 280.89 299.68 261.15 309.38 287.7 290.49"/><polygon class="cls-144" points="285.66 289.13 267.45 300.53 276.64 290.32 285.66 289.13"/><polygon class="cls-28" points="284.94 300.72 283.79 319.77 259.62 332.7 284.94 300.72"/><polygon class="cls-145" points="279.02 304.6 269.49 313.28 256.38 313.28 279.02 304.6"/><polygon class="cls-146" points="266.08 314.66 247.53 325.21 253.83 315.68 266.08 314.66"/><polygon class="cls-145" points="248.21 319.08 241.06 330.15 230.34 330.83 248.21 319.08"/><polygon class="cls-142" points="254.34 325.21 254.68 336.28 267.28 317.21 254.34 325.21"/><polygon class="cls-41" points="251.28 329.3 250.25 338.83 242.6 346.66 251.28 329.3"/><polygon class="cls-142" points="249.06 327.6 238.17 349.38 237.66 335.94 249.06 327.6"/><polygon class="cls-147" points="237.15 332.36 229.32 338.15 225.23 333.89 237.15 332.36"/><polygon class="cls-118" points="228.47 340.87 223.36 355.34 224.38 336.62 228.47 340.87"/><polygon class="cls-148" points="230.34 345.81 234.94 338.49 233.74 351.94 230.34 345.81"/><polygon class="cls-142" points="228.47 348.7 231.87 355 223.53 363.68 228.47 348.7"/><polygon class="cls-31" points="222.34 340.79 221.66 361.89 218.43 347.68 222.34 340.79"/><polygon class="cls-31" points="214.68 366.57 218.94 373.64 215.53 383.77 214.68 366.57"/><polygon class="cls-31" points="223.19 367.43 233.74 359.6 231.7 377.13 223.19 367.43"/><polygon class="cls-149" points="221.66 369.98 222.68 377.64 230.85 380.36 221.66 369.98"/><polygon class="cls-23" points="223.02 381.21 229.15 393.3 230.17 382.91 223.02 381.21"/><polygon class="cls-65" points="219.96 380.19 224.89 395 216.21 389.21 219.96 380.19"/><polygon class="cls-63" points="232.21 386.15 238.51 394.66 230.85 394.15 232.21 386.15"/><polygon class="cls-150" points="220.3 395.34 229.15 397.72 228.13 405.72 220.3 395.34"/><polygon class="cls-23" points="231 400.11 231 407.43 240.7 407.6 231 400.11"/><polygon class="cls-65" points="232.49 396.28 241 396.28 241 406.32 232.49 396.28"/><polygon class="cls-151" points="243.11 398.23 243.79 406.74 252.3 401.13 243.11 398.23"/><polygon class="cls-33" points="236.47 410.28 246 410.28 247.19 414.53 236.47 410.28"/><polygon class="cls-23" points="248.04 410.83 249.57 413.72 274.77 413.04 248.04 410.83"/><polygon class="cls-31" points="248.89 405.19 255.53 401.28 272.72 401.28 248.89 405.19"/><polygon class="cls-33" points="250.43 407.08 259.79 409.13 271.87 404.36 250.43 407.08"/><polygon class="cls-31" points="263.87 409.81 278 404.19 287.02 408.62 263.87 409.81"/><polygon class="cls-28" points="277.32 411.68 288.72 411.17 292.98 420.53 277.32 411.68"/><path class="cls-31" d="M289.91,421.21l6.81,4.43s1.53,6.47,1.53,7S289.91,421.21,289.91,421.21Z"/><polygon class="cls-152" points="293.83 429.72 297.91 434.83 296.21 450.32 293.83 429.72"/><polygon class="cls-153" points="293.83 443.34 294.85 453.21 289.57 465.13 293.83 443.34"/><polygon class="cls-28" points="288.21 461.21 285.66 468.87 278 469.89 288.21 461.21"/><polygon class="cls-154" points="283.28 470.4 274.08 477.21 268.13 473.47 283.28 470.4"/><polygon class="cls-155" points="265.91 474.83 271.19 478.06 257.06 478.4 265.91 474.83"/><polygon class="cls-156" points="262.68 474.49 253.49 477.04 247.36 472.45 262.68 474.49"/><polygon class="cls-157" points="251.96 471.43 244.13 469.38 242.43 465.3 251.96 471.43"/><polygon class="cls-158" points="247.53 466.15 243.19 463.6 243.62 452.53 247.53 466.15"/><polygon class="cls-159" points="247.19 457.81 246.34 450.83 251.28 447.43 247.19 457.81"/><polygon class="cls-160" points="251.62 451.85 254.34 446.91 263.7 450.83 251.62 451.85"/><polygon class="cls-161" points="257.06 453.04 265.06 452.87 271.36 461.21 257.06 453.04"/><polygon class="cls-162" points="264.21 459.34 269.66 462.23 265.06 463.43 264.21 459.34"/><polygon class="cls-41" points="322.51 219.4 325.66 281.47 315.53 292.08 322.51 219.4"/><polygon class="cls-31" points="325.15 212.79 325.91 231.68 345.32 288.11 325.15 212.79"/><polygon class="cls-139" points="326.17 241.38 329.49 281.47 342.51 286.06 326.17 241.38"/><polygon class="cls-41" points="328.72 216.62 348.89 287.85 350.94 272.28 328.72 216.62"/><polygon class="cls-31" points="332.04 218.4 351.7 269.21 342.77 230.15 332.04 218.4"/><polygon class="cls-163" points="346.72 235 353.62 241.64 353.11 262.57 346.72 235"/><polygon class="cls-164" points="300.77 171.4 296.94 165.02 292.21 171.28 300.77 171.4"/><polygon class="cls-165" points="293.62 166.45 288.1 174.58 287.11 172.86 293.62 166.45"/><polygon class="cls-94" points="286.72 174.65 293.68 182.66 287.36 183.07 286.72 174.65"/><polygon class="cls-97" points="287.53 184.36 294.81 183.85 291.36 188.06 287.53 184.36"/><polygon class="cls-166" points="292.02 179.18 296.78 179.53 294.73 182.75 292.02 179.18"/><polygon class="cls-166" points="294.94 178.47 297.32 178.7 297.62 175.3 294.94 178.47"/><polygon class="cls-167" points="295.23 172.06 289.96 173.64 297.24 173.87 295.23 172.06"/><polygon class="cls-81" points="290.5 175.28 295.89 175.28 292.86 177.93 290.5 175.28"/><polygon class="cls-95" points="129.57 409.38 134.25 409.04 135.02 413.47 129.57 409.38"/><polygon class="cls-117" points="127.28 408.7 132.64 414.06 126.08 413.55 127.28 408.7"/><polygon class="cls-95" points="125.06 406.23 124.55 412.45 119.28 406.83 125.06 406.23"/><polygon class="cls-117" points="123.96 404.79 119.11 404.7 119.45 399.34 123.96 404.79"/><polygon class="cls-95" points="118 400.79 117.91 394.74 114.6 397.21 118 400.79"/><polygon class="cls-95" points="113.74 395.43 116.81 393.38 111.11 391.17 113.74 395.43"/><polygon class="cls-117" points="109.06 391.43 111.96 395.6 104.55 394.83 109.06 391.43"/><polygon class="cls-95" points="103.28 396.79 108.04 397.04 106.68 403.51 103.28 396.79"/><polygon class="cls-134" points="155.96 265.38 167.87 251.6 161.32 275.85 155.96 265.38"/><polygon class="cls-60" points="188.13 237.72 187.79 251.85 177.23 261.72 188.13 237.72"/><polygon class="cls-52" points="185.4 238.91 175.36 262.57 177.4 244.53 185.4 238.91"/><polygon class="cls-52" points="169.4 250.83 175.87 245.38 163.45 274.15 169.4 250.83"/><polygon class="cls-134" points="167.11 269.91 175.53 249.98 173.66 263.43 167.11 269.91"/><polyline class="cls-117" points="133 357.28 132.83 381.04 137.08 369.64 133 357.85"/><polygon class="cls-95" points="134.17 383.08 137.62 370.83 135.57 395.79 134.17 383.08"/><polygon class="cls-117" points="138.83 376.19 142.66 391.77 135.89 405.43 138.83 376.19"/><polygon class="cls-117" points="135.96 413.08 141.57 405.43 136.08 407.85 135.96 413.08"/><polygon class="cls-95" points="136.34 406.38 142.21 395.15 141 403.83 136.34 406.38"/><polygon class="cls-168" points="394.02 363.23 399.28 372.53 394.98 353.15 394.02 363.23"/><polygon class="cls-139" points="402.43 365.13 402.17 375.51 408.45 383.21 402.43 365.13"/><polygon class="cls-41" points="396.64 355.17 401.57 363.77 400.81 374.32 396.64 355.17"/><polygon class="cls-41" points="405.06 370.27 410.04 385.28 421.15 385.25 405.06 370.27"/><polygon class="cls-139" points="412.04 386.15 420.64 391.94 426.51 385.47 412.04 386.15"/><polygon class="cls-168" points="422.04 384.3 429.4 371.56 426.98 384.28 422.04 384.3"/><polygon class="cls-41" points="430.34 372.57 428.08 383.77 433.79 376.57 430.34 372.57"/><polygon class="cls-139" points="434 377.77 433.91 386.23 421.87 392.23 434 377.77"/><polygon class="cls-168" points="418.51 380.7 409.23 367.43 411.79 374.74 418.51 380.7"/><polygon class="cls-139" points="409.4 372.28 405.19 364.64 405.77 354.11 409.4 372.28"/><polygon class="cls-168" points="404.17 361.83 401.15 348.87 404.68 341.6 404.17 361.83"/><polygon class="cls-41" points="400.89 346.32 401.4 331.25 404.21 338.4 400.89 346.32"/><polygon class="cls-139" points="402.34 330.06 405.53 335.43 406.51 325.3 402.34 330.06"/><polygon class="cls-168" points="407.96 325.13 408.21 333.98 412.89 326.32 407.96 325.13"/><polygon class="cls-41" points="413.23 328.02 412.55 345 409.45 334.96 413.23 328.02"/><polygon class="cls-168" points="414.25 330.49 413.96 346.57 416.38 334.06 414.25 330.49"/><polygon class="cls-139" points="412 345.04 412.16 363.6 418.37 367.85 412 345.04"/><polygon class="cls-41" points="416.33 343.67 414.29 349.57 417.66 362.15 416.33 343.67"/><polygon class="cls-168" points="418.17 363.21 420.51 369.55 424.38 365.89 418.17 363.21"/><polygon class="cls-139" points="422.34 370.28 429.57 362.06 426.68 369.43 422.34 370.28"/><polygon class="cls-168" points="429.36 366.11 433.32 356.87 436.38 359.77 429.36 366.11"/><polygon class="cls-139" points="433.91 355.43 437.06 358.15 437.66 349.81 433.91 355.43"/><polygon class="cls-41" points="438.85 347 438.55 353.51 445.57 340.74 438.85 347"/><polygon class="cls-169" points="443.79 345.77 446.98 340.23 452.81 343.51 443.79 345.77"/><polygon class="cls-168" points="448.77 339.55 456.47 344.79 453.66 338.83 448.77 339.55"/><polygon class="cls-139" points="455.62 345.55 454.6 350.83 453.66 344.36 455.62 345.55"/><polygon class="cls-165" points="296.25 172.02 298.89 175.64 301.32 172.23 296.25 172.02"/><polygon class="cls-80" points="362.68 180.28 362.43 187.13 366.45 184.06 362.68 180.28"/><polygon class="cls-41" points="419.19 379.43 424.47 377.98 421.57 383.25 419.19 379.43"/><polygon class="cls-31" points="217.4 353.72 215.19 362.91 219.53 370.15 217.4 353.72"/><polygon class="cls-170" points="322.94 308.89 330.9 289.45 327.11 309.78 322.94 308.89"/><polygon class="cls-170" points="323.51 310.33 327.79 311.54 329.25 320.18 323.51 310.33"/><polygon class="cls-58" points="363.24 330.24 368.06 322.04 368.83 340.42 363.24 330.24"/><polygon class="cls-139" points="333.26 285.46 337.6 286.99 329.42 306.88 333.26 285.46"/><polygon class="cls-41" points="337.48 292.26 338.59 303.81 329.73 309.72 337.48 292.26"/><polygon class="cls-41" points="323.78 317.36 323.27 311.86 328.73 321.22 323.78 317.36"/><polygon class="cls-170" points="339.38 287.5 346.79 290.31 340.4 301.21 339.38 287.5"/><polygon class="cls-170" points="329.41 312.33 337.42 307.2 331.63 320.6 329.41 312.33"/><polygon class="cls-41" points="335.93 315 349.01 321.24 332.16 323.22 335.93 315"/><polygon class="cls-41" points="354.23 323.05 366.28 321.98 361.44 328.69 354.23 323.05"/><polygon class="cls-139" points="336.94 324.51 350.55 322.79 357.16 328.15 336.94 324.51"/><polygon class="cls-58" points="351.03 320.14 337.49 314.06 364.43 320.89 351.03 320.14"/><polygon class="cls-41" points="336.4 312.59 347.77 291.02 342.66 313.36 336.4 312.59"/><polygon class="cls-170" points="351.53 290.91 363.53 276.28 356.55 296.7 351.53 290.91"/></svg>