<?xml version="1.0" encoding="utf-8"?>
<!-- Generator: Adobe Illustrator 25.3.1, SVG Export Plug-In . SVG Version: 6.00 Build 0)  -->
<svg version="1.1" id="Layer_1" xmlns="http://www.w3.org/2000/svg" xmlns:xlink="http://www.w3.org/1999/xlink" x="0px" y="0px"
	 viewBox="0 0 427.5 374.9" style="enable-background:new 0 0 427.5 374.9;" xml:space="preserve">
<style type="text/css">
	.st0{fill:#962688;}
	.st1{fill:#7B2164;}
	.st2{fill:#64286B;}
	.st3{fill:#42363F;}
	.st4{fill:#BAAFB8;}
</style>
<g id="head">
	<polygon class="st0" points="393.8,207 372.3,214.4 409.3,214.4 	"/>
	<polyline class="st1" points="394.4,217.6 412.1,217.9 415.7,226.7 394.4,217.6 	"/>
	<polygon class="st1" points="413.9,217.9 420.5,219.9 426.5,242.8 	"/>
	<polygon class="st1" points="406.4,225.4 417.7,232.2 418.9,247.5 	"/>
	<polygon class="st1" points="421.3,237 427.5,249.9 420.3,270.2 	"/>
	<polygon class="st0" points="414.4,243 418.9,249.9 419,267.7 	"/>
	<polygon class="st0" points="415.5,257.9 418.8,271.6 413.2,280.7 	"/>
	<polygon class="st1" points="412.7,275.2 411.5,283.4 402.3,290.1 	"/>
	<polygon class="st1" points="403.6,285.5 398.9,291.2 387.1,290.5 	"/>
	<polygon class="st1" points="394.9,292.3 376.5,290.3 372.3,293.1 	"/>
	<polygon class="st1" points="374.5,290.2 371.2,292.2 363.7,284.7 	"/>
	<polygon class="st1" points="335.2,175.8 327.8,188 337,191.1 	"/>
	<polygon class="st1" points="329.9,191.9 355.8,200.1 338,207 	"/>
	<polygon class="st0" points="360.9,201.3 343.8,208.6 380.4,203.5 	"/>
	<polygon class="st1" points="346,210.8 359.5,214.6 385.3,206.3 	"/>
	<polygon class="st1" points="310.6,170.9 298.6,174.5 301.4,182.5 	"/>
	<polygon class="st1" points="285.4,173.9 275.6,191.2 284.8,205.4 	"/>
	<polygon class="st0" points="203.8,180.3 197,189.5 177.3,199.2 	"/>
	<polygon class="st0" points="195.1,193.9 185.6,202.6 172.5,202.6 	"/>
	<polygon class="st1" points="325.8,185.2 322.3,190.9 328.2,192.8 	"/>
	<polygon class="st1" points="338.8,191.8 349.4,196.1 346,188.5 	"/>
	<polygon class="st1" points="354.2,177.6 348.6,186.3 350.2,193.6 	"/>
	<polygon class="st1" points="350.8,196.7 356.4,195.1 355.4,179.2 	"/>
	<polygon class="st1" points="357.3,178.2 363.7,181.4 357.6,191.9 	"/>
	<polygon class="st1" points="355.3,154.4 360.8,144.4 360,151.4 	"/>
	<polygon class="st0" points="356,149.4 359,136.4 368.2,131.9 	"/>
	<polygon class="st1" points="355.5,175.6 363.7,179.7 360.3,158.9 	"/>
	<polygon class="st0" points="355.5,156.1 360.8,152.8 355.9,170.7 	"/>
	<polygon class="st1" points="366.9,136.6 369.9,132.2 382.8,136.2 	"/>
	<polygon class="st0" points="377.4,132.2 387.3,137.4 393,136 	"/>
	<polygon class="st1" points="389.7,139 397.1,145.4 393.4,137.4 	"/>
	<polygon class="st1" points="392.2,142.7 396.6,146.7 391.6,155.9 	"/>
	<polygon class="st1" points="390.1,150.2 381.2,158.5 390.1,154.5 	"/>
	<polygon class="st1" points="384.4,153.5 379.5,158.5 370,158.5 	"/>
	<polygon class="st1" points="380.9,152.8 364.6,150.9 368.9,157.2 	"/>
	<polygon class="st1" points="370.4,139 367.7,150.5 364.6,149.3 	"/>
	<polygon class="st1" points="371.1,143.4 372.7,138.6 383.7,140 	"/>
	<polygon class="st1" points="379.9,142.3 384.4,140.9 384.7,145.8 	"/>
	<polygon class="st1" points="378.7,143 383.7,145.9 380.7,147.3 	"/>
	<path class="st0" d="M155.8,117.8c-0.1,0.3-2.1,8-2.1,8l-22.1,4.1L155.8,117.8z"/>
	<polygon class="st0" points="150.6,128.2 128.8,132.6 122.7,140.1 	"/>
	<polygon class="st1" points="153,129.7 140,135.5 139.8,146 	"/>
	<polygon class="st1" points="138,136.9 137,147.5 123.5,156.9 	"/>
	<polygon class="st1" points="135.7,136.7 122.8,143 122.6,155.1 	"/>
	<polygon class="st2" points="121,147.3 120.3,158.4 105.7,175.2 	"/>
	<path class="st1" d="M120.3,144.9c0,0.3-16.5,28.1-16.5,28.1l3.6-19.1L120.3,144.9z"/>
	<polygon class="st0" points="123.8,135 117.7,144 106.9,151.7 	"/>
	<polygon class="st0" points="116.5,140.6 97.1,156 104.4,153.2 	"/>
	<polygon class="st0" points="103.8,155.6 96.3,158.8 85.9,176.1 	"/>
	<polygon class="st1" points="191.2,151.7 191.6,157.5 219.3,126.5 	"/>
	<polygon class="st1" points="192.9,160.4 193.8,171 218.1,131.1 	"/>
	<polygon class="st0" points="195.5,171.3 226.1,122.1 217.8,153.6 	"/>
	<polygon class="st0" points="312.9,141.8 323.2,151.3 316.1,168 	"/>
	<polygon class="st1" points="325.7,154.6 324.6,180.5 317.5,170.9 	"/>
	<polygon class="st1" points="328.3,158.4 326.4,183 334.1,172.3 	"/>
	<polygon class="st1" points="309.6,168.7 289.4,154 297.1,172.2 	"/>
	<polygon class="st0" points="271.3,132 285.6,149.9 272.3,137.9 	"/>
	<polygon class="st0" points="273.3,141.5 285.3,153.9 283.3,158 	"/>
	<polygon class="st1" points="273.4,145.6 266.4,179.3 282.5,160.1 	"/>
	<polygon class="st0" points="287.8,157 297.6,181.9 287.4,201.7 	"/>
	<path class="st1" d="M285.3,157.8L274.1,190c0,0,11.1-19.1,10.9-17.5S285.3,157.8,285.3,157.8z"/>
	<polygon class="st1" points="229.4,122.9 229.4,123.5 230.7,155.8 223.1,151.9 	"/>
	<polygon class="st1" points="242.3,131.2 245.6,171.3 258.7,175.9 	"/>
	<polygon class="st1" points="267.7,180.7 279.7,166.1 272.7,186.5 	"/>
	<polygon class="st2" points="311.8,165.3 311.8,180.5 320.1,190 	"/>
	<polygon class="st1" points="314.2,168.2 321.6,190.2 325.4,183.8 	"/>
	<polygon class="st2" points="337.6,106.1 345.4,111.7 330.5,115.8 	"/>
	<polygon class="st0" points="228.9,84.7 227.8,104 213.2,104.9 	"/>
	<polygon class="st0" points="226.6,84.4 212.8,103.8 213.7,94.4 	"/>
	<polygon class="st1" points="211.1,84 214.6,89.3 210.4,92.5 	"/>
	<polygon class="st1" points="283.7,123.4 309.4,138.6 311.6,163.4 	"/>
	<polygon class="st1" points="262.9,124.8 269.8,131.5 269.2,152.4 	"/>
	<polygon class="st1" points="209.9,83.5 207.5,92.2 194,90.4 	"/>
	<polygon class="st1" points="208.4,81.9 202.3,80.9 191.1,89 	"/>
	<polygon class="st1" points="196.7,81.9 169.8,87.6 184.8,89.6 	"/>
	<polygon class="st0" points="185.9,92.1 204.3,94.2 158.6,103 	"/>
	<polygon class="st1" points="209.8,95.6 193.1,106.5 159.4,105.4 	"/>
	<polygon class="st1" points="152.1,108.5 156.5,115 185.2,109 	"/>
	<polygon class="st0" points="184.2,111 157.5,117.5 156.3,125.7 	"/>
	<path class="st1" d="M184.4,113.2c-0.2,0.1-26.8,14-26.8,14l-9.3,13L184.4,113.2z"/>
	<polygon class="st0" points="211,96.7 179.3,127.2 210.1,105.8 	"/>
	<polygon class="st1" points="147.7,145.4 190.4,111.7 155.5,145.8 	"/>
	<polygon class="st1" points="162,145.8 204.9,112.6 174.6,145.6 	"/>
	<polygon class="st2" points="212,108.3 227.1,106.1 180.4,144.6 	"/>
	<polygon class="st2" points="180,147.3 186.3,149.9 216.9,116.3 	"/>
	<polygon class="st1" points="228.4,107.5 226.8,116.8 192.9,147.1 	"/>
	<polygon class="st1" points="219.7,60.5 221.8,69.1 219.4,72.4 	"/>
	<polygon class="st2" points="218.2,63.2 218.1,69.9 209.6,78.8 	"/>
	<polygon class="st1" points="210.1,79.7 212.8,82.6 218.2,71.7 	"/>
	<polygon class="st1" points="213.4,83.3 222.1,70.2 227.2,68.6 	"/>
	<polygon class="st1" points="214.2,84.4 215.9,88.3 225.9,73 	"/>
	<polygon class="st1" points="228,72.5 227.8,81.8 216.5,90.4 	"/>
	<polygon class="st1" points="216.9,60.7 213.1,54.4 208.4,60.6 	"/>
	<polygon class="st1" points="209.8,56.3 204.2,64.4 203.2,62.7 	"/>
	<polygon class="st1" points="202.9,64.5 209.8,72.5 203.5,72.9 	"/>
	<polygon class="st1" points="203.5,73.8 210.8,73.3 207.3,77.5 	"/>
	<polygon class="st3" points="208.1,69 212.9,69.4 210.9,72.6 	"/>
	<polygon class="st3" points="211.1,68.3 213.4,68.5 217.2,63.1 	"/>
	<polygon class="st1" points="211.4,61.9 206.1,63.5 213.4,63.7 	"/>
	<polygon class="st4" points="206.6,64.9 212,64.9 209,67.5 	"/>
	<polygon class="st1" points="212.4,61.7 214.6,63.9 216.8,61.8 	"/>
	<polygon class="st2" points="274,113.9 310.4,165.1 290,150.3 	"/>
	<path class="st2" d="M265.4,99.5c0,0,22,49.8,22,50.5s-16.1-21.1-16.1-21.1L265.4,99.5z"/>
	<polygon class="st1" points="231.2,109.5 238.2,99.6 233.3,141.7 	"/>
	<polygon class="st1" points="239.2,111.5 241.8,171.3 233.4,180.5 	"/>
	<polygon class="st1" points="241.3,102.6 242,121.5 261.4,177.9 	"/>
	<polygon class="st1" points="244.9,106.4 265,177.7 267.1,162.1 	"/>
	<polygon class="st1" points="248.2,108.2 267.8,159 258.9,120 	"/>
	<polygon class="st0" points="240.2,73.6 265.7,124 240.4,94.4 	"/>
	<polygon class="st1" points="278.8,92.7 287.3,86.7 290.9,104.6 	"/>
	<polygon class="st2" points="290.9,86.3 305.4,86.7 324.6,116.1 	"/>
	<polygon class="st2" points="290.3,89.4 322.4,117.5 296.4,113 	"/>
	<polygon class="st2" points="293.2,112.1 282,110 264.2,93.2 	"/>
	<polygon class="st2" points="265.4,96.7 280,111.9 272.2,109.5 	"/>
	<polygon class="st2" points="273.6,111.6 281.4,114.4 283,122.3 	"/>
	<polygon class="st0" points="231.3,84.4 237.7,95.2 231.8,104.1 	"/>
	<polygon class="st1" points="246.7,64.1 245.2,76 259.1,87.9 	"/>
	<polygon class="st0" points="245,61.7 243.3,71.7 239.8,61.7 	"/>
	<polygon class="st0" points="238.2,63.5 238,69.3 242.5,73.4 	"/>
	<polygon class="st0" points="237.2,61.8 235.7,67.3 231.4,61.5 	"/>
	<polygon class="st0" points="229.2,55.5 228.4,60.2 222.6,66.2 	"/>
	<polygon class="st1" points="227.3,56.7 221.9,64.4 221,59.8 	"/>
	<polygon class="st0" points="223.7,67.6 228.4,62.6 227.3,67.6 	"/>
	<polygon class="st0" points="230,62.7 234.9,68.1 229.3,68.2 	"/>
	<polygon class="st0" points="229.4,70.3 235.9,69.7 230.1,78.1 	"/>
	<polygon class="st0" points="231.1,81.1 237,71.1 236.8,88.6 	"/>
	<polygon class="st0" points="244.4,77.2 261.3,92.9 267.3,121.2 	"/>
	<polygon class="st1" points="219.1,53.7 215.1,53.5 218.4,61.1 	"/>
	<polygon class="st0" points="247.1,27.5 258.2,37.3 241,45 	"/>
	<polygon class="st0" points="258.3,39.1 240.7,47.1 239.2,57.8 	"/>
	<polygon class="st0" points="248.8,51.3 239.8,59.6 245.2,59.4 	"/>
	<polygon class="st1" points="270,83.9 287.1,84.3 277.4,91.5 	"/>
	<polygon class="st2" points="261.6,78.7 262.7,89.5 289.9,107.2 	"/>
	<polygon class="st1" points="261,67.8 260.9,60.4 272.3,64.2 	"/>
	<polygon class="st1" points="275.1,64.3 278.9,60.2 285.4,67.7 	"/>
	<polygon class="st2" points="284.2,74.8 284.4,82.3 274.4,82.7 	"/>
	<polygon class="st1" points="267.3,57.3 289.9,54.6 292.5,59.7 	"/>
	<polygon class="st1" points="269.6,66.1 274.2,65.1 277.7,69.7 	"/>
	<polygon class="st1" points="282.7,60.3 292.2,61.3 296.4,72.2 	"/>
	<polygon class="st1" points="286.5,67.1 294.9,74.5 287.8,81.3 	"/>
	<polygon class="st1" points="271.1,67.8 268.5,66.5 263.8,72.9 	"/>
	<polygon class="st1" points="261.4,76.3 264.1,74.9 269.9,82.1 	"/>
	<polygon class="st3" points="268.2,79.2 277.1,77.2 270.5,81.8 	"/>
	<polygon class="st3" points="277.5,71 271.7,77 277.2,75.7 	"/>
	<polygon class="st4" points="268,71.8 273.7,72 269.9,75.9 	"/>
	<polygon class="st1" points="266.8,67.3 261.3,70 261.5,75.5 	"/>
	<polygon class="st1" points="268.8,70.2 277.1,70.4 271.8,68.4 	"/>
	<polygon class="st1" points="263.6,59.9 278.4,59.7 274,64 	"/>
	<polygon class="st1" points="276.7,66.1 285.1,69.2 284.9,73.6 	"/>
	<polygon class="st1" points="278.8,70.1 278.6,77 282.6,73.9 	"/>
	<polygon class="st2" points="345.6,95.8 341.2,101.9 360.4,97.7 	"/>
	<polygon class="st2" points="360.4,100.5 348.2,110.4 338.7,104.6 	"/>
	<polygon class="st2" points="364.9,63.5 370,74.3 364.9,90.8 	"/>
	<polygon class="st2" points="335.8,101.9 329.2,113.1 312.7,66.8 	"/>
	<polygon class="st2" points="364.4,63.1 346.8,93.1 361,94.6 	"/>
	<polygon class="st2" points="310.9,66.9 309.4,87.4 325.4,113.8 	"/>
	<polygon class="st1" points="251.3,49.7 262,49 246.7,59.7 	"/>
	<polygon class="st1" points="260.2,52.5 247.1,61.3 258.8,82.4 	"/>
	<polygon class="st1" points="263.2,49.9 262.4,57.3 278.2,43.1 	"/>
	<polygon class="st1" points="273.8,49.8 283.8,40.1 304.1,37.8 	"/>
	<polygon class="st2" points="351.9,52.5 337.8,101.2 328.9,85.3 	"/>
	<polygon class="st1" points="350.4,50.6 327.8,81.9 331.5,49.9 	"/>
	<polygon class="st1" points="348,48.1 329.1,39.2 312.6,47 	"/>
	<polygon class="st1" points="323.1,38.4 310,38.5 298.8,50.1 	"/>
	<polygon class="st1" points="306.6,38.5 271.6,52.9 291,53.4 	"/>
	<polygon class="st1" points="312.1,49.4 328.7,49.2 311.1,62.6 	"/>
	<polygon class="st1" points="302.3,51.1 308.9,48.7 300,72.1 	"/>
	<polygon class="st1" points="298.3,69.6 293.1,56.9 300.2,52.2 	"/>
	<polygon class="st1" points="300.6,75.5 306.7,84.1 309.7,53.3 	"/>
	<polygon class="st1" points="312.9,63 328.8,51.9 325.4,80.4 	"/>
	<polygon class="st1" points="354,53.2 363.1,62 344.4,91.8 	"/>
	<polygon class="st1" points="289.7,82.8 296.5,76.4 302.2,83.6 	"/>
	<polygon class="st0" points="238.2,49.8 237.2,59.8 230.9,60 	"/>
	<polygon class="st0" points="234.7,32.7 241.4,35.8 233.8,42.6 	"/>
	<polygon class="st0" points="232.9,32.6 231.9,44 226.5,44.8 	"/>
	<polygon class="st0" points="226.1,46.7 231.6,45.8 229.5,53.7 	"/>
	<polygon class="st0" points="233.1,47.4 239.6,40.1 237,48.7 	"/>
	<polygon class="st0" points="232.1,49.1 230.9,56.7 235.8,50.3 	"/>
	<polygon class="st1" points="221.5,50.8 224.9,46.7 224.3,55.6 	"/>
	<polygon class="st0" points="225.8,48.9 228.6,54.6 225.7,56.5 	"/>
	<polygon class="st1" points="220.7,52.7 224.1,56.8 221,58.7 	"/>
	<polygon class="st1" points="367.3,28.3 371.1,71 365.6,60.2 	"/>
	<polygon class="st1" points="354.3,50.3 363.4,59.7 356.6,22.2 	"/>
	<polygon class="st0" points="344.6,15.4 354.9,21.7 352.9,49.6 	"/>
	<polygon class="st0" points="342.8,42.4 350.9,48.6 342.7,15.3 	"/>
	<polygon class="st0" points="341.4,14.5 340.5,38 332.9,13.6 	"/>
	<polyline class="st0" points="331.1,14.1 339.3,39.9 330.1,36.9 331.1,14.1 	"/>
	<polygon class="st1" points="304.6,14.8 321.3,34.9 310.7,35.4 	"/>
	<polygon class="st0" points="302,14.4 308,34.3 291,18.7 	"/>
	<polygon class="st1" points="289.1,19.8 305.4,35.3 293.3,35.9 	"/>
	<polygon class="st1" points="286.1,20.1 290.7,37 284.1,37.7 	"/>
	<polygon class="st0" points="283.8,21.7 281.8,38 274,28.7 	"/>
	<polygon class="st0" points="272.5,29.8 279.6,38.9 266.9,44.1 	"/>
	<polygon class="st1" points="269.3,31.7 262.9,47.7 252.1,48.4 	"/>
	<polygon class="st1" points="357.8,23.2 364.9,58.3 366.3,29.1 	"/>
	<polygon class="st0" points="244.5,26.6 235.3,31 242.5,33.8 	"/>
	<polygon class="st0" points="365.5,25.8 343.5,13.3 356.3,13.4 	"/>
	<polygon class="st0" points="329,13 327.1,34.3 317.2,12.4 	"/>
	<polygon class="st0" points="313.4,11.5 306,13.3 322.9,34.2 	"/>
	<polygon class="st0" points="248.1,15.4 268.8,27.7 247.8,22.8 	"/>
	<polygon class="st0" points="341.6,4.8 341.9,11.6 354,11.1 	"/>
	<polygon class="st0" points="332.2,1.6 339.6,3.2 339.7,10.1 	"/>
	<polygon class="st0" points="337.7,10.4 329.2,1.4 318,9 	"/>
	<polygon class="st0" points="325.1,0.6 313.8,9.3 307.4,0 	"/>
	<polygon class="st0" points="305.2,0.1 310.6,9.8 304.2,11.5 	"/>
	<polygon class="st0" points="302.3,0.1 301.8,11.5 291.2,0.2 	"/>
	<polygon class="st0" points="288.5,0.9 300.4,12.7 288.4,15.7 	"/>
	<polygon class="st0" points="286.2,1.1 285.7,16.3 271,4.9 	"/>
	<polygon class="st0" points="268.8,6.2 283.8,17.4 254.1,13.2 	"/>
	<polygon class="st0" points="252.4,14.3 282.6,19.6 271.1,26.2 	"/>
	<polygon class="st1" points="248.5,25.2 268.2,29.8 259.7,36 	"/>
	<polygon class="st0" points="245.8,17.2 244.7,24.7 235.1,29.7 	"/>
</g>
<g id="Leg-4">
	<polygon class="st1" points="311.1,230.4 306.7,267.7 298.7,275.2 	"/>
	<polygon class="st1" points="305.4,271.7 296.9,297.7 297.4,279.9 	"/>
	<polygon class="st1" points="296,283.5 292.9,311.5 290.7,300.3 	"/>
	<polygon class="st1" points="290.2,304.3 293.4,337 285.5,322.5 	"/>
	<polygon class="st1" points="288.8,332.5 298.1,347.5 292.8,347.1 	"/>
	<polygon class="st1" points="293.9,349.1 298.8,349.8 305.8,359.9 	"/>
	<polygon class="st1" points="301.1,221.6 287.4,243.7 284.2,264.7 	"/>
	<polygon class="st0" points="302,226.2 285.8,267 302,252.1 	"/>
	<polygon class="st1" points="299.3,257.5 284.1,272.7 277,296.1 	"/>
	<polygon class="st0" points="298.4,263.3 274.1,306.2 288.6,299.2 	"/>
	<polygon class="st0" points="287.9,302.1 283.1,319.5 275.3,308.1 	"/>
	<polygon class="st0" points="274.3,309.7 282.4,322.4 272.2,324.9 	"/>
	<polygon class="st0" points="272.6,327.3 276.8,338.7 282.5,324.7 	"/>
	<polygon class="st1" points="284.2,327.9 278.6,344.1 284.4,355.3 	"/>
	<polygon class="st1" points="285.9,329.6 285.8,357.2 290.1,345 	"/>
	<polygon class="st1" points="291,348 288.7,360 292.2,365 	"/>
	<polygon class="st1" points="293.8,353.9 294,367.1 301.2,371.3 	"/>
	<polygon class="st1" points="294.1,351.3 304.4,361.8 303.1,370.1 	"/>
	<polygon class="st1" points="307,363.1 315.5,364.7 304.1,370.4 	"/>
	<polygon class="st1" points="304.1,372.2 315.5,366.4 310.6,374.4 	"/>
	<polygon class="st1" points="319.4,364.7 326.4,360.7 313.9,374.4 	"/>
	<polygon class="st1" points="326,363.3 315.8,374.9 324.8,373.4 	"/>
	<polygon class="st1" points="329.6,359.3 326.6,372.3 339.4,363.5 	"/>
	<polygon class="st1" points="331.5,357.3 337.4,349.9 341.1,361.2 	"/>
	<polygon class="st1" points="338.4,348 340.4,335.6 342.7,359 	"/>
	<polygon class="st1" points="342.2,336.6 343.8,357.3 347.1,346.1 	"/>
	<polygon class="st1" points="339.6,319 340.8,331.4 348.5,345.4 	"/>
	<polygon class="st1" points="340,315.9 348.9,340.9 348,324.6 	"/>
	<polygon class="st1" points="339.5,313.2 338.6,306.3 350,323.1 	"/>
	<polygon class="st1" points="339.4,305 348.9,317.9 348.4,311.5 	"/>
	<polygon class="st1" points="339.5,303 348.2,309.2 343.2,300 	"/>
	<polygon class="st1" points="337.4,302 342.3,298.9 334.6,294.6 	"/>
	<polygon class="st1" points="332.9,295 336.1,302.3 329.8,302.3 	"/>
	<polygon class="st1" points="331.2,294.7 328.1,302.6 322,304.8 	"/>
	<polygon class="st1" points="322,306.1 328.2,304.1 320.1,313.3 	"/>
	<polygon class="st1" points="320.2,315.3 327.2,307.4 322,324.7 	"/>
	<path class="st1" d="M323.1,326c0-0.3,3.7-12.5,3.7-12.5l0.3,10L323.1,326z"/>
	<polygon class="st1" points="323.7,328.1 327.3,325.5 332.9,333.3 	"/>
	<polygon class="st1" points="323.8,330.3 333.1,334.8 326.9,335.9 	"/>
	<polygon class="st1" points="328.1,337.9 333.7,336.7 333.5,344.5 	"/>
	<polygon class="st1" points="328.4,340.5 332.2,346.3 327.8,350.9 	"/>
	<polygon class="st1" points="326.9,344.7 326.7,351.1 322.9,351.3 	"/>
	<polygon class="st1" points="323.9,346.6 320.7,350.8 315.1,346.3 	"/>
	<polygon class="st1" points="320.2,345 314.4,344.7 313.9,342 	"/>
	<polygon class="st1" points="314.2,339.8 314.9,334.8 318,342.3 	"/>
	<polygon class="st1" points="315,331.9 316.5,324.9 317.5,336.9 	"/>
	<polygon class="st1" points="317.8,325.1 318.4,334.6 320.3,329.3 	"/>
	<polygon class="st2" points="311,174 310,212.3 302.1,185.1 	"/>
	<polygon class="st1" points="303.8,201.3 310.6,221.4 304.6,248.1 	"/>
	<polygon class="st1" points="296.9,189.3 287,210 286.9,238 	"/>
	<polygon class="st0" points="299.1,188.9 287.6,240.8 301.7,214.7 	"/>
</g>
<g id="Leg-2">
	<polygon class="st1" points="82.9,213.2 83.8,243.9 81,229.7 	"/>
	<polygon class="st1" points="86,231.3 95,227 101,245.8 	"/>
	<polygon class="st2" points="87,235 101.4,248.4 101.5,258 	"/>
	<polygon class="st1" points="86.4,237.1 91.8,249.3 85.6,249.1 	"/>
	<polygon class="st1" points="86.6,251.5 92.6,251.7 90.6,263.9 	"/>
	<polygon class="st2" points="94.5,250.3 100.8,261.2 96.3,275.5 	"/>
	<polygon class="st1" points="93.3,262.4 94.1,276.5 86.7,283.8 	"/>
	<polygon class="st1" points="89.3,267.5 83.9,283.6 83.4,275.9 	"/>
	<polygon class="st2" points="93.5,280.6 83.6,288.7 82.6,300.2 	"/>
	<polygon class="st1" points="81.5,291.3 80,303.2 73.1,308.8 	"/>
	<polygon class="st1" points="81.9,281.1 82,287.3 74.2,293.7 	"/>
	<polygon class="st1" points="78.1,293.7 71.5,299.8 68.1,314.6 	"/>
	<polygon class="st1" points="78,307 72.9,312 74.3,319.1 	"/>
	<polygon class="st1" points="70.6,313.5 68.4,319.5 73.2,325.9 	"/>
	<polygon class="st1" points="77.7,314.4 74.9,322 78.9,326.2 	"/>
	<polygon class="st0" points="80,320.6 80.9,327.5 89.5,324.3 	"/>
	<polygon class="st0" points="84.3,327.5 91.8,328 96.6,322.4 	"/>
	<polygon class="st0" points="96.9,324.7 102.7,317.8 110.8,316.4 	"/>
	<polygon class="st1" points="109.3,319 113.8,316.1 125.1,316.7 	"/>
	<polygon class="st1" points="119.8,319.1 127.1,318.9 133.5,328.3 	"/>
	<polygon class="st1" points="74,324.6 75,328.8 79.7,331.7 	"/>
	<polygon class="st1" points="79.3,328.8 82.2,332.4 94.1,331.8 	"/>
	<polygon class="st1" points="92.3,330 96.1,330.8 106.7,322.6 	"/>
	<polygon class="st1" points="103.7,326.8 111.7,319.7 118.5,319.4 	"/>
	<polygon class="st1" points="113.4,325.6 119,324.8 124.1,328.3 	"/>
	<polygon class="st1" points="120.7,328.1 124.7,329.3 127.6,334.6 	"/>
	<polygon class="st1" points="128.6,327.6 134.1,330.9 133.5,340.9 	"/>
	<polygon class="st1" points="130.2,337.1 132.3,342.9 126.7,347.9 	"/>
	<polygon class="st1" points="126.6,343.4 124.1,348.4 117.1,346.1 	"/>
	<polygon class="st1" points="122,343 114.8,343.6 112.1,337.3 	"/>
	<polygon class="st1" points="116.9,338.1 111.5,333.3 111.9,326.8 	"/>
	<polygon class="st1" points="113.4,327 115.5,332.7 115.8,327.5 	"/>
	<polygon class="st1" points="123.9,333 127.3,335.9 124.4,338.9 	"/>
	<polyline class="st2" points="97.9,184.3 98.5,188.1 95.4,197.4 96.4,175.2 97.9,184.3 	"/>
	<polygon class="st2" points="89.1,190.4 95,203.8 94,215.9 	"/>
	<polygon class="st1" points="86,187.5 84.5,204.7 92.2,217.3 	"/>
	<polygon class="st0" points="84.9,181.2 79.2,192.9 82.2,199.3 	"/>
	<polygon class="st0" points="81.9,204.2 78.5,197.5 79.1,226.5 	"/>
	<polygon class="st1" points="84.7,208.9 94,225 85.5,229 	"/>
	<polygon class="st1" points="104.3,157.8 97.1,167.1 99.2,179.6 	"/>
	<polygon class="st1" points="94.7,169 93.2,195.5 87.2,180 	"/>
</g>
<g id="Leg-3">
	<polygon class="st2" points="167.4,219.1 166.4,228.7 158.7,236.5 	"/>
	<polygon class="st1" points="165.2,217.4 154.3,239.2 153.8,225.8 	"/>
	<polygon class="st0" points="153.3,222.2 145.5,228 141.4,223.7 	"/>
	<polygon class="st0" points="144.6,230.7 139.5,245.2 140.5,226.4 	"/>
	<polygon class="st1" points="146.5,235.6 151.1,228.3 149.9,241.8 	"/>
	<polygon class="st1" points="144.6,238.5 148,244.8 139.7,253.5 	"/>
	<polygon class="st0" points="138.5,230.6 137.8,251.7 134,241.5 	"/>
	<polygon class="st0" points="131.1,254.4 135.1,263.5 131.7,273.6 	"/>
	<polygon class="st2" points="139.3,257.3 149.9,249.4 147.8,267 	"/>
	<polygon class="st1" points="137.8,259.8 138.8,267.5 147,270.2 	"/>
	<polygon class="st1" points="139.1,271 145.3,283.1 146.3,272.7 	"/>
	<polygon class="st0" points="136.1,270 141,284.8 132.3,279 	"/>
	<polygon class="st1" points="148.3,276 154.7,284.5 147,284 	"/>
	<polygon class="st1" points="136.4,285.2 145.3,287.5 144.3,295.5 	"/>
	<polygon class="st1" points="146.8,289.9 146.8,297.3 156.5,297.4 	"/>
	<polygon class="st1" points="148.7,286 157.2,286 157.2,296.1 	"/>
	<polygon class="st1" points="159.2,288.1 159.9,296.6 168.4,291 	"/>
	<polygon class="st1" points="152.6,300 162.1,300 163.3,304.2 	"/>
	<polygon class="st1" points="164.2,300.7 165.7,303.5 190.9,302.9 	"/>
	<polygon class="st1" points="165,295.2 171.7,291.3 188.9,291.3 	"/>
	<polygon class="st1" points="166.6,296.9 175.9,299 188,294.2 	"/>
	<polygon class="st1" points="180,299.6 194.1,294 203.1,298.4 	"/>
	<polygon class="st1" points="193.4,301.5 204.9,301 209.1,310.4 	"/>
	<path class="st1" d="M206,311l6.8,4.4c0,0,1.5,6.5,1.5,7S206,311,206,311z"/>
	<polygon class="st1" points="210,319.5 214,324.7 212.4,340.1 	"/>
	<polygon class="st1" points="210,333.2 211,343 205.7,355 	"/>
	<polygon class="st1" points="204.4,351 201.8,358.7 194.1,359.7 	"/>
	<polygon class="st1" points="199.4,360.2 190.2,367 184.3,363.3 	"/>
	<polygon class="st2" points="182,364.7 187.3,367.9 173.2,368.2 	"/>
	<polygon class="st1" points="178.8,364.3 169.6,366.9 163.5,362.3 	"/>
	<polygon class="st1" points="168.1,361.3 160.3,359.2 158.6,355.1 	"/>
	<polygon class="st1" points="163.7,355.6 158.9,350 159.8,342.4 	"/>
	<polygon class="st0" points="163.3,347.6 162.5,340.7 167.4,337.3 	"/>
	<polygon class="st0" points="167.8,341.7 170.5,336.7 179.8,340.7 	"/>
	<polygon class="st1" points="173.2,342.9 181.2,342.7 187.5,351 	"/>
	<polygon class="st1" points="180.4,349.2 185.8,352.1 181.2,353.3 	"/>
	<polygon class="st0" points="133.5,243.5 131.3,252.7 135.7,260 	"/>
	<polygon class="st2" points="209.8,188 208.8,202.6 203.3,209.4 	"/>
	<polygon class="st1" points="208.8,178.8 203.8,198.7 203.1,185.9 	"/>
	<polygon class="st0" points="201.8,179 183.6,190.4 192.8,180.1 	"/>
	<polyline class="st2" points="175.8,222.5 199.9,209.6 201.1,191.4 	"/>
	<polygon class="st0" points="182.2,204.5 163.7,215 170,205.5 	"/>
	<polygon class="st0" points="164.3,208.9 157.2,220 146.5,220.7 	"/>
	<polygon class="st1" points="170.5,215 170.8,226.1 183.4,207 	"/>
	<polygon class="st1" points="222.4,153.8 230.7,158 214.9,190.4 	"/>
	<polygon class="st2" points="214,198.7 230.7,163 228.9,184.4 	"/>
	<polygon class="st0" points="216.3,159.7 206.7,176.7 194.5,177.1 	"/>
	<polygon class="st1" points="211,177.3 218.5,163.1 211.8,189 	"/>
</g>
<g id="_2_Legs">
	<path class="st1" d="M53.8,219.6l-1.4,12.8c0,0-11.8,5.7-11.7,5.4S53.8,219.6,53.8,219.6z"/>
	<polygon class="st1" points="51.4,236.1 40.5,252 40.9,239.3 	"/>
	<polygon class="st1" points="47.2,246.7 41.1,256 47,263.2 	"/>
	<polygon class="st1" points="46.6,222.1 46,228.1 39.9,235.9 	"/>
	<polygon class="st1" points="45.7,299.2 50.4,298.9 51.1,303.3 	"/>
	<polygon class="st1" points="43.4,298.5 48.8,303.9 42.2,303.4 	"/>
	<polygon class="st1" points="41.2,296.1 40.7,302.3 35.4,296.7 	"/>
	<polygon class="st1" points="40.1,294.6 35.2,294.5 35.6,289.2 	"/>
	<polygon class="st1" points="34.1,290.6 34.1,284.6 30.7,287 	"/>
	<polygon class="st0" points="29.9,285.3 32.9,283.2 27.2,281 	"/>
	<polygon class="st0" points="25.2,281.3 28.1,285.4 20.7,284.7 	"/>
	<polygon class="st1" points="19.4,286.6 24.2,286.9 22.8,293.3 	"/>
	<polyline class="st1" points="49.1,247.5 48.9,270.9 53.2,259.5 49.1,247.7 	"/>
	<polygon class="st1" points="50.3,272.9 53.8,260.7 51.7,285.6 	"/>
	<polygon class="st1" points="55,266 58.8,281.6 52,295.3 	"/>
	<polygon class="st2" points="52.1,302.9 57.7,295.3 52.2,297.7 	"/>
	<polygon class="st2" points="52.5,296.2 58.3,285 57.1,293.7 	"/>
	<polygon class="st0" points="61.5,171 53.5,192.7 52.3,181.6 	"/>
	<path class="st1" d="M61.9,189.7c-0.3,0.2-7.8,8.9-7.8,8.9l0.5,7.8L61.9,189.7z"/>
	<path class="st1" d="M63.1,191.7c-0.3,0.3-7.1,16-7.1,16l7.7,7.4L63.1,191.7z"/>
	<polygon class="st1" points="55.7,209 62.9,217.9 55.1,229.3 	"/>
	<polygon class="st1" points="51.2,193 53,210.3 49.5,204.8 	"/>
	<polygon class="st1" points="49.4,209.7 53.5,215.8 48,224.8 	"/>
	<polygon class="st1" points="48.7,193.3 47.8,201 37.8,193.6 	"/>
	<polygon class="st1" points="33.8,192.1 43.1,199.5 29.2,195.1 	"/>
	<polygon class="st1" points="31.7,191 25.9,193.9 24.4,187.6 	"/>
	<polygon class="st1" points="21.4,185.6 23.7,192.2 14.1,184.7 	"/>
	<polygon class="st0" points="11.1,184.6 19.9,191.7 5.3,190.4 	"/>
	<polygon class="st0" points="4.4,192.2 10.9,192.5 0.7,204.4 	"/>
	<polygon class="st1" points="3.8,202.9 0,207.9 8.3,218.2 	"/>
	<polygon class="st1" points="0.8,211.1 0.9,217.7 11.1,224.7 	"/>
	<polygon class="st2" points="6.7,222.5 12.3,226.4 7.1,234.4 	"/>
	<polygon class="st1" points="5.4,228.2 5.3,235.3 0.7,229.4 	"/>
	<polygon class="st0" points="12.7,183.4 25.1,182.9 21,184.4 	"/>
	<polygon class="st0" points="22.9,184.8 26.6,183.8 31,188.4 	"/>
	<polygon class="st0" points="32.1,188.7 36.3,191.3 47.6,191.6 	"/>
	<polygon class="st1" points="176.9,92.1 148.4,102.7 140.4,97 	"/>
	<polygon class="st0" points="172.3,90 153.9,86.5 140,94 	"/>
	<polygon class="st1" points="150.7,85.4 136.2,92.8 123.8,88.9 	"/>
	<polygon class="st1" points="147.3,83.1 119.8,86.4 110.4,84.2 	"/>
	<polygon class="st0" points="144.1,80.8 108.2,82.3 132.9,76.7 	"/>
	<polygon class="st1" points="127.2,75.5 87,83.2 75.7,76.7 	"/>
	<polygon class="st0" points="126,72.9 110.6,66 77.1,75.2 	"/>
	<polygon class="st0" points="102.7,65.5 87.8,66.5 76.2,73.7 	"/>
	<polygon class="st1" points="75.4,78.7 85.4,84.5 73.4,93.6 	"/>
	<polygon class="st0" points="73.8,78.3 68.7,105.7 67.5,85.7 	"/>
	<polygon class="st1" points="66.2,89.6 66.6,121.2 61.2,105.1 	"/>
	<polygon class="st0" points="63,91.5 55.6,115 55.8,102.5 	"/>
	<polygon class="st1" points="62.1,111.7 67.7,126.9 66.9,137.2 	"/>
	<polygon class="st0" points="59.9,110.1 58.5,137.1 55.1,123.4 	"/>
	<polygon class="st1" points="60.7,116.7 60.4,140.3 68.5,149.9 	"/>
	<polygon class="st1" points="68.9,131.1 67.4,141.1 70.5,148.4 	"/>
	<polygon class="st0" points="60.7,145.2 69.9,153 63.6,167.3 	"/>
	<polygon class="st0" points="71,155.5 76.2,167.7 64.9,167.5 	"/>
	<polygon class="st1" points="64.4,169.3 76.4,168.8 55.5,193.8 	"/>
	<polygon class="st2" points="92.4,85.5 100.2,83.9 99.8,87.8 	"/>
	<polygon class="st1" points="101.9,83.8 101.4,87.6 105.1,84.9 	"/>
	<polygon class="st2" points="102.8,88 107.4,86.6 111.5,91 	"/>
	<polygon class="st1" points="109.8,86.4 118.6,89.4 112.7,90.7 	"/>
	<polygon class="st2" points="113.7,92.3 119.9,91.4 120.9,95.5 	"/>
	<polygon class="st1" points="122.1,91 123.6,96.1 132.8,96.3 	"/>
	<polygon class="st2" points="124.3,98.3 131.8,98.4 132.2,102.9 	"/>
	<polygon class="st1" points="133.8,97.4 135.3,105.1 146.7,106.3 	"/>
	<polygon class="st1" points="147,108.1 149,116.7 154,115.5 	"/>
	<polygon class="st2" points="145.5,108.7 146.7,116.6 138.7,109.3 	"/>
	<polygon class="st1" points="137.5,110 145,117.9 131.2,122.2 	"/>
	<polygon class="st1" points="134.5,110.1 128.5,123 120.2,115.7 	"/>
	<polygon class="st1" points="117.8,117.2 126,124.7 117.6,129.2 	"/>
	<polygon class="st2" points="115.8,118.8 115.3,131 106.7,139.8 	"/>
	<polygon class="st1" points="112.8,120.1 105.1,136.7 106,125.8 	"/>
	<polygon class="st0" points="72.1,155.2 84,141.4 77.5,165.7 	"/>
	<polygon class="st1" points="104.3,127.5 103.9,141.7 93.4,151.5 	"/>
	<polygon class="st0" points="101.5,128.7 91.5,152.4 93.5,134.4 	"/>
	<polygon class="st0" points="85.5,140.7 92,135.2 79.6,164 	"/>
	<polygon class="st2" points="83.2,159.7 91.7,139.8 89.8,153.3 	"/>
</g>
<g id="leg">
	<polygon class="st1" points="363.8,283.3 369.1,286.3 362.9,274.8 	"/>
	<polygon class="st1" points="310.1,253.1 315.4,262.4 311.1,243 	"/>
	<polygon class="st2" points="318.6,255 318.3,265.3 324.6,273 	"/>
	<polygon class="st1" points="312.8,245 317.7,253.6 316.9,264.1 	"/>
	<polygon class="st1" points="321.2,259.7 326.2,274.7 337.3,274.7 	"/>
	<polygon class="st1" points="328.2,276 336.8,281.8 342.7,275.3 	"/>
	<polygon class="st1" points="338.2,274.5 345.5,261.8 343.1,274.5 	"/>
	<polygon class="st1" points="346.5,262.4 344.2,273.6 349.9,266.4 	"/>
	<polygon class="st2" points="350.3,267.6 350.2,276.1 338.2,282.1 	"/>
	<polygon class="st1" points="334.7,270.5 325.4,257.3 327.9,264.6 	"/>
	<polygon class="st1" points="325.5,262.1 321.3,254.5 321.9,243.9 	"/>
	<polygon class="st0" points="320.3,251.7 317.3,238.7 320.8,231.4 	"/>
	<polygon class="st0" points="317,236.1 317.5,221.1 320.4,228.2 	"/>
	<polygon class="st0" points="318.5,219.9 321.7,225.3 322.7,215.1 	"/>
	<polygon class="st1" points="329.4,217.9 328.7,234.8 325.6,224.8 	"/>
	<polygon class="st1" points="330.4,220.3 330.1,236.4 332.5,223.9 	"/>
	<polygon class="st1" points="327.7,234.9 327.8,253.4 334,257.7 	"/>
	<polygon class="st1" points="332.5,233.5 330.4,239.4 333.8,252 	"/>
	<polygon class="st1" points="334.3,253 336.7,259.4 340.5,255.7 	"/>
	<polygon class="st1" points="338.5,260.1 345.7,251.9 342.8,259.3 	"/>
	<polygon class="st1" points="345.5,255.9 349.4,246.7 352.5,249.6 	"/>
	<polygon class="st0" points="350,245.3 353.2,248 353.8,239.6 	"/>
	<polygon class="st0" points="355,236.8 354.7,243.3 361.7,230.6 	"/>
	<polygon class="st1" points="359.9,235.6 363.1,230.1 368.9,233.3 	"/>
	<polygon class="st0" points="364.9,229.4 372.6,234.6 369.8,228.7 	"/>
	<polygon class="st1" points="371.8,235.4 370.7,240.7 369.8,234.2 	"/>
	<polygon class="st1" points="335.3,269.3 340.6,267.8 337.7,273.1 	"/>
	<polygon class="st1" points="279.4,220.1 282.3,214.8 284,228.7 	"/>
	<polygon class="st1" points="270.4,212.9 280.8,213.1 277.6,218.5 	"/>
	<polygon class="st1" points="253.1,214.3 266.7,212.6 273.3,218 	"/>
	<polygon class="st1" points="239.6,196.9 247,179.3 243.3,199.4 	"/>
	<polygon class="st1" points="240.7,200.3 243.3,202.2 245.1,207.7 	"/>
	<polygon class="st2" points="250.3,175.6 253.1,177.5 246.3,194.1 	"/>
	<polygon class="st1" points="253.6,182.1 254.7,193.6 246.5,198.9 	"/>
	<polygon class="st1" points="239.9,207.2 239.4,201.7 244.9,211 	"/>
	<polygon class="st2" points="255.7,178.7 262.2,181.7 256.5,191 	"/>
	<polygon class="st1" points="245.5,202.1 253.6,197 247.8,210.4 	"/>
	<polygon class="st1" points="252.6,205 263.6,211 248.8,213 	"/>
	<polygon class="st0" points="267.2,210.4 257.4,204.9 277,210.6 	"/>
	<polygon class="st1" points="254.2,201.3 261,187.9 257.6,202.6 	"/>
	<polygon class="st0" points="324.1,215 324.4,223.8 329,216.1 	"/>
</g>
</svg>
