<?xml version="1.0" encoding="utf-8"?>
<!-- Generator: Adobe Illustrator 24.1.2, SVG Export Plug-In . SVG Version: 6.00 Build 0)  -->
<!DOCTYPE svg PUBLIC "-//W3C//DTD SVG 1.1//EN" "http://www.w3.org/Graphics/SVG/1.1/DTD/svg11.dtd" [
	<!ENTITY ns_extend "http://ns.adobe.com/Extensibility/1.0/">
	<!ENTITY ns_ai "http://ns.adobe.com/AdobeIllustrator/10.0/">
	<!ENTITY ns_graphs "http://ns.adobe.com/Graphs/1.0/">
	<!ENTITY ns_vars "http://ns.adobe.com/Variables/1.0/">
	<!ENTITY ns_imrep "http://ns.adobe.com/ImageReplacement/1.0/">
	<!ENTITY ns_sfw "http://ns.adobe.com/SaveForWeb/1.0/">
	<!ENTITY ns_custom "http://ns.adobe.com/GenericCustomNamespace/1.0/">
	<!ENTITY ns_adobe_xpath "http://ns.adobe.com/XPath/1.0/">
]>
<svg version="1.1" id="Layer_1" xmlns:x="&ns_extend;" xmlns:i="&ns_ai;" xmlns:graph="&ns_graphs;"
	 xmlns="http://www.w3.org/2000/svg" xmlns:xlink="http://www.w3.org/1999/xlink" x="0px" y="0px" viewBox="0 0 595.3 595.3"
	 style="enable-background:new 0 0 595.3 595.3;" xml:space="preserve">
<style type="text/css">
	.st0{fill:#834481;}
	.st1{fill:#6A2468;}
	.st2{fill:#782163;}
	.st3{fill:#863A84;}
	.st4{fill:#82246D;}
	.st5{fill:#8D388B;}
	.st6{fill:#9C2890;}
	.st7{fill:#8B3485;}
	.st8{fill:#912987;}
	.st9{fill:#962C90;}
	.st10{fill:#7A2266;}
	.st11{fill:#863D86;}
	.st12{fill:#952A8E;}
	.st13{fill:#8B3585;}
	.st14{fill:#9E2D91;}
	.st15{fill:#75205F;}
	.st16{fill:#82246F;}
	.st17{fill:#9C2C91;}
	.st18{fill:#833A74;}
	.st19{fill:#873385;}
	.st20{fill:#9F2E92;}
	.st21{fill:#8C2577;}
	.st22{fill:#732469;}
	.st23{fill:#8B2777;}
	.st24{fill:#962586;}
	.st25{fill:#8A2575;}
	.st26{fill:#9E2B91;}
	.st27{fill:#8A2576;}
	.st28{fill:#962687;}
	.st29{fill:#A02E91;}
	.st30{fill:#73246A;}
	.st31{fill:#A02F92;}
	.st32{fill:#8C2578;}
	.st33{fill:#A0559A;}
	.st34{fill:#53193F;}
	.st35{fill:#9C278F;}
	.st36{fill:#9F2C91;}
	.st37{fill:#681E5B;}
	.st38{fill:#842571;}
	.st39{fill:#8B3688;}
	.st40{fill:#91257C;}
	.st41{fill:#9E2A8F;}
	.st42{fill:#6D276B;}
	.st43{fill:#892573;}
	.st44{fill:#944186;}
	.st45{fill:#6F1F59;}
	.st46{fill:#80256F;}
	.st47{fill:#7E2571;}
	.st48{fill:#8F3982;}
	.st49{fill:#97268B;}
	.st50{fill:#8A2574;}
	.st51{fill:#9D278F;}
	.st52{fill:#652973;}
	.st53{fill:#A33594;}
	.st54{fill:#91267C;}
	.st55{fill:#77256F;}
	.st56{fill:#A33293;}
	.st57{fill:#762162;}
	.st58{fill:#6F286B;}
	.st59{fill:#64286B;}
	.st60{fill:#752263;}
	.st61{fill:#66266C;}
	.st62{fill:#8E2578;}
	.st63{fill:#642466;}
	.st64{fill:#762060;}
	.st65{fill:#652565;}
	.st66{fill:#78427D;}
	.st67{fill:#792266;}
	.st68{fill:#6C276C;}
	.st69{fill:#892676;}
	.st70{fill:#94428A;}
	.st71{fill:#7E2978;}
	.st72{fill:#8B2879;}
	.st73{fill:#712263;}
	.st74{fill:#822677;}
	.st75{fill:#6B266A;}
	.st76{fill:#822676;}
	.st77{fill:#6F2970;}
	.st78{fill:#752162;}
	.st79{fill:#5B2045;}
	.st80{fill:#8B8B8B;}
	.st81{fill:#9E549B;}
	.st82{fill:#722469;}
	.st83{fill:#862470;}
	.st84{fill:#8F3890;}
	.st85{fill:#82246C;}
	.st86{fill:#812C6D;}
	.st87{fill:#872B71;}
	.st88{fill:#8C3980;}
	.st89{fill:#9A2C91;}
	.st90{fill:#684570;}
	.st91{fill:#642F6A;}
	.st92{fill:#97709B;}
	.st93{fill:#80236A;}
	.st94{fill:#942687;}
	.st95{fill:#6E256C;}
	.st96{fill:#6A276D;}
	.st97{fill:#772162;}
	.st98{fill:#8C328A;}
	.st99{fill:#962688;}
	.st100{fill:#8E2679;}
	.st101{fill:#8D267F;}
	.st102{fill:#792162;}
	.st103{fill:#79256E;}
	.st104{fill:#762161;}
	.st105{fill:#67286B;}
	.st106{fill:#5E2463;}
	.st107{fill:#A64A9C;}
	.st108{fill:#732163;}
	.st109{fill:#613E67;}
	.st110{fill:#57225B;}
	.st111{fill:#5F2564;}
	.st112{fill:#802F7D;}
	.st113{fill:#692569;}
	.st114{fill:#6A256B;}
	.st115{fill:#A33393;}
	.st116{fill:#A53995;}
	.st117{fill:#743377;}
	.st118{fill:#652467;}
	.st119{fill:#9D3092;}
	.st120{fill:#7A2570;}
	.st121{fill:#A13293;}
	.st122{fill:#71256B;}
	.st123{fill:#70246A;}
	.st124{fill:#622C68;}
	.st125{fill:#D86357;}
	.st126{fill:#D5564A;}
	.st127{fill:#DE7F76;}
	.st128{fill:#C15B5D;}
	.st129{fill:#D0554E;}
	.st130{fill:#DD5948;}
	.st131{fill:#732265;}
	.st132{fill:#782367;}
	.st133{fill:#A13092;}
	.st134{fill:#722468;}
	.st135{fill:#62276A;}
	.st136{fill:#673175;}
	.st137{fill:#792061;}
	.st138{fill:#792264;}
	.st139{fill:#7B2164;}
	.st140{fill:#751F5E;}
	.st141{fill:#9F268F;}
	.st142{fill:#74246A;}
	.st143{fill:#74246B;}
	.st144{fill:#A33092;}
	.st145{fill:#8B2982;}
	.st146{fill:#8F2578;}
	.st147{fill:#77205F;}
	.st148{fill:#8B2577;}
	.st149{fill:#8D2579;}
	.st150{fill:#892575;}
	.st151{fill:#6E256A;}
	.st152{fill:#5F266C;}
	.st153{fill:#7E2675;}
	.st154{fill:#5C266B;}
	.st155{fill:#832675;}
	.st156{fill:#59276D;}
	.st157{fill:#7A2775;}
	.st158{fill:#582870;}
	.st159{fill:#732875;}
	.st160{fill:#582871;}
	.st161{fill:#76205F;}
	.st162{fill:#7C2F63;}
	.st163{fill:#9B278D;}
	.st164{fill:#431C38;}
	.st165{fill:#432135;}
	.st166{fill:#8E3B96;}
	.st167{fill:#632E6D;}
	.st168{fill:#76246B;}
	.st169{fill:#5E2363;}
</style>
<metadata>
	<sfw  xmlns="&ns_sfw;">
		<slices></slices>
		<sliceSourceBounds  bottomLeftOrigin="true" height="374.9" width="427.5" x="83.9" y="110.2"></sliceSourceBounds>
	</sfw>
</metadata>
<polygon class="st0" points="451.1,138.5 455,181.1 449.5,170.4 "/>
<polygon class="st1" points="438.1,160.5 447.3,169.9 440.4,132.4 "/>
<polygon class="st2" points="428.4,125.6 438.8,131.9 436.7,159.8 "/>
<polygon class="st3" points="427.1,152.5 435.3,158.8 427,125.5 "/>
<polygon class="st4" points="449.4,135.8 427.4,123.3 440.2,123.4 "/>
<polygon class="st5" points="425.5,115 425.7,121.8 437.9,121.3 "/>
<polygon class="st6" points="415.6,111.8 423,113.3 423.1,120.2 "/>
<polygon class="st4" points="421.5,120.6 413.1,111.6 401.9,119.2 "/>
<polygon class="st6" points="409,110.8 397.7,119.5 391.3,110.2 "/>
<polygon class="st7" points="389.1,110.3 394.5,120 388.1,121.6 "/>
<polygon class="st6" points="386.2,110.2 385.7,121.5 375.1,110.3 "/>
<polygon class="st8" points="425.2,124.7 424.3,148.2 416.8,123.8 "/>
<polyline class="st9" points="415,124.3 423.2,150.1 414,147 415,124.3 "/>
<polygon class="st10" points="412.9,123.2 410.9,144.5 401.1,122.5 "/>
<polygon class="st9" points="397.2,121.6 389.8,123.5 406.8,144.4 "/>
<polygon class="st11" points="388.5,125 405.1,145 394.6,145.6 "/>
<polygon class="st12" points="385.8,124.5 391.9,144.5 374.9,128.9 "/>
<polygon class="st13" points="372.1,111.1 384,122.8 372,125.9 "/>
<polygon class="st4" points="370.1,111.3 369.6,126.5 354.9,115.1 "/>
<polygon class="st14" points="352.6,116.4 367.6,127.6 338,123.3 "/>
<polygon class="st15" points="373,130 389.2,145.5 377.1,146.1 "/>
<polygon class="st9" points="370,130.2 374.5,147.2 368,147.9 "/>
<polygon class="st11" points="367.7,131.9 365.7,148.2 357.8,138.8 "/>
<polygon class="st9" points="356.4,140 363.5,149 350.8,154.2 "/>
<polygon class="st5" points="336.3,124.5 366.4,129.8 354.9,136.4 "/>
<polygon class="st16" points="332,125.6 352.6,137.9 331.7,133 "/>
<polygon class="st17" points="332.4,135.3 352,139.9 343.5,146.2 "/>
<polygon class="st5" points="330.9,137.6 342.1,147.4 324.9,155.2 "/>
<polygon class="st5" points="353.1,141.9 346.8,157.9 336,158.6 "/>
<polygon class="st17" points="342.2,149.3 324.5,157.3 323.1,167.9 "/>
<polygon class="st18" points="335.2,159.9 345.9,159.2 330.5,169.9 "/>
<polygon class="st19" points="332.6,161.5 323.7,169.8 329.1,169.6 "/>
<polygon class="st20" points="344,162.7 330.9,171.5 342.7,192.6 "/>
<polygon class="st21" points="347.1,160.1 346.3,167.4 362.1,153.3 "/>
<polygon class="st20" points="357.7,159.9 367.7,150.2 388,148 "/>
<polygon class="st22" points="450.4,175.8 453.8,184.5 448.7,201 "/>
<polygon class="st23" points="435.8,162.7 421.7,211.3 412.8,195.5 "/>
<polygon class="st24" points="434.3,160.8 411.6,192.1 415.4,160.1 "/>
<polygon class="st25" points="431.9,158.2 413,149.4 396.5,157.2 "/>
<polygon class="st26" points="407,148.3 393.9,148.5 382.7,160 "/>
<polygon class="st27" points="390.4,148.7 355.5,163.1 374.9,163.6 "/>
<polygon class="st28" points="344.9,177.9 344.7,170.6 356.2,174.4 "/>
<polygon class="st28" points="359,174.4 362.8,170.3 369.3,177.9 "/>
<polygon class="st29" points="368,185 368.3,192.5 358.2,192.9 "/>
<polygon class="st30" points="353.9,194.1 371,194.5 361.2,201.7 "/>
<polygon class="st31" points="345.5,188.9 346.6,199.7 373.7,217.4 "/>
<polygon class="st32" points="362.7,202.8 371.2,196.9 374.8,214.7 "/>
<polygon class="st33" points="351.2,167.4 373.7,164.8 376.4,169.9 "/>
<polygon class="st34" points="353.4,176.2 358,175.3 361.6,179.9 "/>
<polygon class="st35" points="395.9,159.3 412.5,159 395,172.4 "/>
<polygon class="st26" points="366.5,170.5 376,171.4 380.2,182.4 "/>
<polygon class="st32" points="370.3,177.3 378.8,184.7 371.7,191.5 "/>
<polygon class="st30" points="373.6,193 380.4,186.6 386.1,193.8 "/>
<polygon class="st36" points="386.2,161.3 392.8,158.9 383.9,182.3 "/>
<polygon class="st30" points="382.2,179.8 377,167.1 384,162.4 "/>
<polygon class="st37" points="384.5,185.6 390.6,194.3 393.6,163.5 "/>
<polygon class="st38" points="396.7,173.2 412.6,162.1 409.2,190.6 "/>
<polygon class="st22" points="419.6,212.1 413.1,223.3 396.5,177 "/>
<polygon class="st23" points="448.2,175.5 430.7,203.3 444.9,204.8 "/>
<polygon class="st22" points="429.5,206 425.1,212.1 444.2,207.9 "/>
<polygon class="st39" points="444.3,210.7 432,220.6 422.5,214.7 "/>
<polygon class="st10" points="421.5,216.3 429.2,221.9 414.3,226 "/>
<polygon class="st38" points="394.8,177 393.2,197.6 409.3,224 "/>
<polygon class="st36" points="374.8,196.5 389.2,196.9 408.5,226.3 "/>
<polygon class="st22" points="374.2,199.6 406.3,227.7 380.3,223.2 "/>
<polygon class="st40" points="377.1,222.3 365.8,220.2 348,203.3 "/>
<polygon class="st41" points="349.3,206.8 363.9,222.1 356,219.7 "/>
<polygon class="st30" points="357.5,221.8 365.2,224.6 367.3,231.9 "/>
<polygon class="st27" points="368.3,233.6 393.2,248.8 395.5,273.6 "/>
<polygon class="st29" points="357.8,224.1 394.3,275.3 373.8,260.5 "/>
<polygon class="st29" points="396.8,251.9 407.1,261.5 400,278.2 "/>
<polygon class="st42" points="409.6,264.8 408.5,290.7 401.4,281 "/>
<polygon class="st29" points="412.1,268.5 410.3,293.2 418,282.5 "/>
<polygon class="st43" points="419.1,286 411.7,298.2 420.9,301.3 "/>
<polygon class="st42" points="413.7,302.1 439.6,310.2 421.9,317.2 "/>
<polygon class="st29" points="444.8,311.5 427.7,318.7 464.3,313.6 "/>
<polygon class="st44" points="429.8,321 443.4,324.8 469.1,316.5 "/>
<polygon class="st42" points="477.7,316.8 456.1,324.3 493.1,324.2 "/>
<polyline class="st45" points="478,327.3 496,327.5 499.5,336.4 478.3,327.3 "/>
<polygon class="st26" points="497.7,328.1 504.4,330.1 510.4,353 "/>
<polygon class="st46" points="490.2,335.6 501.6,342.4 502.7,357.7 "/>
<polygon class="st47" points="505.1,347.2 511.4,360.1 504.2,380.4 "/>
<polygon class="st42" points="498.6,353.2 503,360.1 503.2,377.9 "/>
<polygon class="st48" points="499.4,368 502.7,381.7 497.4,390.9 "/>
<polygon class="st48" points="496.5,385.4 495.4,393.6 486.1,400.3 "/>
<polygon class="st42" points="487.5,395.7 482.8,401.3 470.9,400.6 "/>
<polygon class="st48" points="478.7,402.4 460.4,400.5 456.1,403.3 "/>
<polygon class="st42" points="458.4,400.4 455,402.4 447.5,394.8 "/>
<polygon class="st48" points="447.6,393.5 452.9,396.4 446.8,385 "/>
<polygon class="st49" points="393.5,278.8 373.3,264.2 381,282.4 "/>
<polygon class="st42" points="394.4,281 382.4,284.7 385.3,292.7 "/>
<polygon class="st50" points="394.9,284.2 393.8,322.5 386,295.3 "/>
<polygon class="st51" points="387.6,311.4 394.4,331.6 388.5,358.3 "/>
<polygon class="st52" points="394.1,348.1 390.5,377.9 382.5,385.4 "/>
<polygon class="st53" points="389.3,381.9 380.8,407.9 381.2,390.1 "/>
<polygon class="st54" points="379.9,393.7 376.8,421.6 374.6,410.5 "/>
<polygon class="st55" points="374.4,417.6 377.2,447.2 370.3,434.4 "/>
<polygon class="st27" points="372.6,442.7 382,457.7 376.7,457.3 "/>
<polygon class="st56" points="377.8,459.3 382.7,460 389.7,470 "/>
<path class="st30" d="M349,209.6l22.2,50.6l-16-21.2L349,209.6z"/>
<polygon class="st40" points="355.1,242.2 369.5,260 356.2,248 "/>
<polygon class="st30" points="357.2,251.7 369.2,264.1 367.1,268.2 "/>
<polygon class="st45" points="357.3,255.8 350.3,289.5 366.4,270.2 "/>
<polygon class="st45" points="371.4,267.2 381.2,292.1 371,311.9 "/>
<path class="st57" d="M369.2,267.9L358,300.2l10.9-17.5L369.2,267.9z"/>
<polygon class="st40" points="369.2,284.1 359.5,301.4 368.7,315.6 "/>
<polygon class="st42" points="380.9,299.4 371,320.2 370.9,348.2 "/>
<polygon class="st50" points="382.9,299.1 371.5,351 385.6,324.9 "/>
<polygon class="st58" points="385,331.8 371.3,353.9 368,374.9 "/>
<polygon class="st50" points="386,336.4 369.8,377.1 386,362.3 "/>
<polygon class="st59" points="383.2,367.7 368,382.9 360.9,406.2 "/>
<polygon class="st60" points="382.3,373.5 358,416.4 372.5,409.4 "/>
<polygon class="st32" points="371.8,412.3 367,429.7 359.2,418.3 "/>
<polygon class="st61" points="358.1,419.9 366.3,432.6 356,435.1 "/>
<polygon class="st60" points="356.5,437.5 360.7,448.8 366.4,434.9 "/>
<polygon class="st62" points="367.8,438.1 362.2,454.2 368,465.5 "/>
<polygon class="st30" points="370,439.8 370,467.4 374.2,455.2 "/>
<polygon class="st63" points="374.9,458.2 372.5,470.2 376,475.2 "/>
<polygon class="st64" points="378,464 378.2,477.3 385.4,481.5 "/>
<polygon class="st65" points="378,461.5 388.3,471.9 386.9,480.3 "/>
<polygon class="st21" points="390.9,473.3 399.4,474.8 388,480.6 "/>
<polygon class="st57" points="388,482.3 399.4,476.5 394.4,484.5 "/>
<polygon class="st66" points="403.3,474.8 410.3,470.9 397.7,484.6 "/>
<polygon class="st27" points="409.9,473.5 399.6,485.1 408.6,483.6 "/>
<polygon class="st67" points="413.5,469.5 410.4,482.5 423.3,473.6 "/>
<polygon class="st68" points="415.4,467.4 421.2,460.1 425,471.3 "/>
<polygon class="st69" points="422.3,458.2 424.3,445.8 426.5,469.1 "/>
<polygon class="st63" points="426.1,446.7 427.7,467.5 431,456.3 "/>
<polygon class="st70" points="423.5,429.1 424.6,441.6 432.4,455.6 "/>
<polygon class="st63" points="423.9,426.1 432.8,451.1 431.9,434.7 "/>
<polygon class="st71" points="423.4,423.3 422.4,416.5 433.9,433.3 "/>
<polygon class="st63" points="423.3,415.2 432.8,428.1 432.2,421.7 "/>
<polygon class="st62" points="423.4,413.2 432,419.3 427.1,410.2 "/>
<polygon class="st57" points="421.2,412.2 426.2,409 418.4,404.8 "/>
<polygon class="st72" points="416.8,405 420,412.3 413.7,412.3 "/>
<polygon class="st68" points="415.1,404.9 412,412.8 405.8,415 "/>
<polygon class="st32" points="405.8,416.3 412,414.2 404,423.4 "/>
<polygon class="st73" points="404,425.5 411.1,417.6 405.8,434.8 "/>
<path class="st62" d="M406.9,436.2l3.7-12.5l0.3,10L406.9,436.2z"/>
<polygon class="st68" points="407.5,438.3 411.2,435.7 416.7,443.5 "/>
<polygon class="st62" points="407.6,440.5 417,445 410.8,446.1 "/>
<polygon class="st68" points="412,448 417.6,446.8 417.4,454.7 "/>
<polygon class="st74" points="412.3,450.7 416,456.5 411.7,461 "/>
<polygon class="st75" points="410.8,454.8 410.6,461.3 406.8,461.5 "/>
<polygon class="st76" points="407.8,456.8 404.5,461 399,456.5 "/>
<polygon class="st77" points="404,455.2 398.3,454.9 397.7,452.2 "/>
<polygon class="st78" points="398.1,450 398.8,445 401.9,452.5 "/>
<polygon class="st62" points="398.9,442.1 400.4,435.1 401.4,447.1 "/>
<polygon class="st77" points="401.7,435.3 402.3,444.8 404.1,439.5 "/>
<polygon class="st34" points="355,177.9 352.4,176.7 347.6,183.1 "/>
<polygon class="st34" points="345.3,186.5 347.9,185.1 353.8,192.3 "/>
<polygon class="st79" points="352,189.4 361,187.3 354.4,192 "/>
<polygon class="st79" points="361.4,181.1 355.6,187.2 361.1,185.9 "/>
<polygon class="st80" points="351.9,182 357.5,182.2 353.8,186.1 "/>
<polygon class="st81" points="329.6,127.4 328.6,134.9 319,139.9 "/>
<polygon class="st34" points="350.6,177.5 345.2,180.2 345.4,185.7 "/>
<polygon class="st79" points="352.6,180.4 361,180.6 355.6,178.6 "/>
<polygon class="st33" points="347.5,170.3 362.2,170.1 357.8,174.4 "/>
<polygon class="st28" points="360.5,176.3 368.9,179.4 368.8,183.8 "/>
<polygon class="st39" points="437.8,163.3 447,172.2 428.3,202 "/>
<polygon class="st30" points="441.7,133.4 448.7,168.5 450.1,139.3 "/>
<polygon class="st62" points="330.6,174.2 329.1,186.2 343,198.1 "/>
<polygon class="st31" points="328.9,172.3 327.2,182.3 323.6,172.3 "/>
<polygon class="st82" points="322.1,173.7 321.9,179.5 326.3,183.6 "/>
<polygon class="st83" points="321.1,172 319.5,177.5 315.3,171.7 "/>
<polygon class="st84" points="322.1,159.9 321.1,170 314.8,170.2 "/>
<polygon class="st85" points="328.4,136.8 319.2,141.2 326.3,143.9 "/>
<polygon class="st17" points="318.5,142.9 325.3,146 317.7,152.8 "/>
<polygon class="st86" points="316.8,142.7 315.8,154.2 310.3,155 "/>
<polygon class="st5" points="310,156.9 315.5,156 313.4,163.9 "/>
<polygon class="st87" points="317,157.6 323.5,150.2 320.9,158.9 "/>
<polygon class="st88" points="316,159.3 314.8,166.9 319.7,160.5 "/>
<polygon class="st89" points="305.4,161 308.8,156.9 308.1,165.8 "/>
<polygon class="st90" points="310.1,159.1 312.9,164.8 310,166.7 "/>
<polygon class="st91" points="313.1,165.7 312.2,170.4 306.4,176.4 "/>
<polygon class="st90" points="311.2,166.8 305.8,174.6 304.9,170 "/>
<polygon class="st92" points="304.5,162.8 308,167 304.9,168.9 "/>
<polygon class="st17" points="302.9,163.9 299,163.6 302.3,171.3 "/>
<polygon class="st93" points="303.6,170.7 305.6,179.3 303.3,182.6 "/>
<polygon class="st94" points="302.1,173.4 302,180 293.4,189 "/>
<polygon class="st95" points="293.9,189.9 296.7,192.7 302.1,181.8 "/>
<polygon class="st96" points="297.3,193.5 306,180.4 311.1,178.8 "/>
<polygon class="st97" points="298.1,194.5 299.8,198.5 309.8,183.2 "/>
<polygon class="st98" points="307.5,177.7 312.3,172.8 311.2,177.8 "/>
<polygon class="st61" points="313.9,172.8 318.8,178.3 313.1,178.3 "/>
<polygon class="st97" points="313.2,180.4 319.7,179.9 314,188.3 "/>
<polygon class="st99" points="311.9,182.7 311.6,192 300.4,200.6 "/>
<polygon class="st100" points="315,191.3 321,181.3 320.8,198.7 "/>
<polygon class="st31" points="328.2,187.3 345.1,203.1 351.2,231.3 "/>
<polygon class="st30" points="323.8,183.8 349.4,234.2 324,204.6 "/>
<polygon class="st30" points="315.2,194.6 321.6,205.4 315.7,214.2 "/>
<polygon class="st101" points="312.7,194.8 311.7,214.2 297.1,215.1 "/>
<polygon class="st102" points="310.4,194.6 296.6,214 297.6,204.5 "/>
<polygon class="st99" points="295,194.2 298.4,199.4 294.3,202.7 "/>
<polygon class="st103" points="293.7,193.6 291.4,202.4 277.8,200.5 "/>
<polygon class="st93" points="292.2,192.1 286.2,191.1 275,199.2 "/>
<polygon class="st59" points="280.5,192.1 253.7,197.8 268.6,199.8 "/>
<polygon class="st64" points="269.7,202.2 288.1,204.4 242.4,213.2 "/>
<polygon class="st94" points="293.7,205.8 277,216.7 243.3,215.6 "/>
<polygon class="st94" points="260.7,202.3 232.3,212.9 224.3,207.2 "/>
<polygon class="st104" points="256.1,200.2 237.7,196.7 223.9,204.2 "/>
<polygon class="st59" points="234.6,195.6 220,203 207.6,199.1 "/>
<polygon class="st94" points="231.2,193.3 203.7,196.5 194.3,194.4 "/>
<polygon class="st59" points="228,191 192,192.5 216.8,186.9 "/>
<polygon class="st104" points="211.1,185.7 170.9,193.4 159.5,186.9 "/>
<polygon class="st94" points="209.8,183.1 194.4,176.2 161,185.4 "/>
<polygon class="st105" points="186.6,175.7 171.6,176.7 160,183.9 "/>
<polygon class="st106" points="159.3,188.9 169.2,194.7 157.2,203.8 "/>
<polygon class="st104" points="157.7,188.5 152.6,215.9 151.4,195.9 "/>
<polygon class="st106" points="150.1,199.8 150.9,229.6 145.1,215.3 "/>
<polygon class="st107" points="146.4,201.6 139,225.2 139.2,212.7 "/>
<polygon class="st108" points="146,221.9 151.5,237 150.4,245.9 "/>
<polygon class="st109" points="143.8,220.3 142.3,247.3 139,233.6 "/>
<polygon class="st94" points="145,226.8 144.8,250.5 152.8,260.1 "/>
<polygon class="st110" points="152.7,241.3 151.3,251.3 154.3,258.6 "/>
<polygon class="st111" points="144.6,255.3 153.7,263.2 147.4,277.5 "/>
<polygon class="st51" points="154.9,265.7 160,277.9 148.8,277.6 "/>
<polygon class="st112" points="148.3,279.5 160.3,279 139.4,303.9 "/>
<polygon class="st94" points="145,281.2 137,302.8 137,291.6 "/>
<polygon class="st113" points="139.5,319.2 146.8,328.1 138.9,339.5 "/>
<path class="st94" d="M137.7,329.8l-1.4,12.8l-11.7,5.4L137.7,329.8z"/>
<polygon class="st114" points="135.3,346.3 124.4,362.2 124.8,349.5 "/>
<polygon class="st94" points="131.3,356.9 125.1,366.2 131,373.4 "/>
<polygon class="st115" points="135.4,296.3 137.5,324.8 132,316.1 "/>
<polygon class="st116" points="131.4,318.1 137,326.7 130.8,335.2 "/>
<polygon class="st117" points="129.3,330.2 129.5,337.2 124.3,346.1 "/>
<polygon class="st118" points="132.6,303.4 131.6,311.2 121.7,303.8 "/>
<polygon class="st119" points="117.7,302.2 127,309.6 113.1,305.3 "/>
<polygon class="st120" points="115.6,301.1 109.7,304.1 108.3,297.8 "/>
<polygon class="st121" points="105.2,295.8 107.6,302.4 98,294.8 "/>
<polygon class="st122" points="95,294.7 103.8,301.9 89.2,300.6 "/>
<polygon class="st121" points="88.3,302.4 94.8,302.7 84.6,314.6 "/>
<polygon class="st123" points="87.7,313 83.9,318.1 92.2,328.4 "/>
<polygon class="st124" points="85,321.3 85.1,327.9 95.4,334.8 "/>
<polygon class="st123" points="90.5,332.7 96.1,336.6 91,344.5 "/>
<polygon class="st123" points="89,338.4 88.9,345.5 84.3,339.6 "/>
<polygon class="st125" points="96.6,293.5 109,293 104.9,294.6 "/>
<polygon class="st126" points="106.8,295 110.4,294 114.8,298.6 "/>
<polygon class="st127" points="115.9,298.8 120.1,301.5 131.4,301.8 "/>
<polygon class="st106" points="176.3,195.7 184,194.1 183.6,198 "/>
<polygon class="st128" points="185.7,194 185.2,197.8 189,195.1 "/>
<polygon class="st106" points="186.7,198.2 191.3,196.8 195.4,201.1 "/>
<polygon class="st128" points="193.7,196.5 202.4,199.6 196.6,200.9 "/>
<polygon class="st104" points="197.6,202.5 203.8,201.6 204.8,205.7 "/>
<polygon class="st129" points="206,201.1 207.4,206.3 216.6,206.5 "/>
<polygon class="st59" points="208.2,208.5 215.7,208.6 216,213 "/>
<polygon class="st130" points="217.7,207.6 219.2,215.3 230.5,216.5 "/>
<polygon class="st106" points="230.9,218.2 232.9,226.9 237.9,225.7 "/>
<polygon class="st131" points="229.4,218.9 230.5,226.7 222.6,219.4 "/>
<polygon class="st132" points="221.4,220.2 228.9,228 215.1,232.4 "/>
<polygon class="st59" points="218.3,220.3 212.4,233.1 204,225.9 "/>
<polygon class="st133" points="201.2,227.3 209.4,234.8 201,239.3 "/>
<polygon class="st132" points="199.6,229 199.2,241.2 190.5,250 "/>
<polygon class="st51" points="196.6,230.2 190,245.7 189.9,235.9 "/>
<polygon class="st104" points="236,218.8 240.4,225.3 269.1,219.3 "/>
<polygon class="st56" points="268,221.2 241.3,227.7 240.1,235.9 "/>
<path class="st99" d="M268.3,223.3l-26.8,14l-9.3,13L268.3,223.3z"/>
<path class="st2" d="M239.7,227.9l-2,8l-22.1,4.2L239.7,227.9z"/>
<polygon class="st2" points="234.4,238.4 212.6,242.7 206.6,250.2 "/>
<polygon class="st99" points="236.9,239.9 223.9,245.6 223.6,256.2 "/>
<polygon class="st134" points="221.8,247.1 220.9,257.6 207.4,267.1 "/>
<polygon class="st99" points="219.5,246.9 206.7,253.2 206.4,265.3 "/>
<polygon class="st59" points="204.9,257.5 204.2,268.5 189.6,285.4 "/>
<path class="st2" d="M204.2,255.1l-16.5,28.1l3.6-19.2L204.2,255.1z"/>
<polygon class="st94" points="208.1,245.2 202,254.2 191.2,261.9 "/>
<polygon class="st135" points="200.4,250.7 181,266.2 188.3,263.3 "/>
<polygon class="st94" points="187.7,265.8 180.1,269 169.7,286.2 "/>
<polygon class="st59" points="188.2,267.9 181,277.3 183.1,289.8 "/>
<polygon class="st59" points="182.3,298.2 179.3,307.6 180.3,285.4 "/>
<polygon class="st94" points="178.6,279.2 177.1,305.7 171.1,290.2 "/>
<polygon class="st59" points="173,300.6 178.9,314 177.8,326.1 "/>
<polygon class="st94" points="169.8,297.7 168.4,314.9 176,327.4 "/>
<polygon class="st2" points="168.8,291.3 163.1,303.1 166.1,309.5 "/>
<polygon class="st2" points="165.7,314.4 162.3,307.7 163,336.7 "/>
<polygon class="st2" points="168.6,319.1 177.9,335.2 169.4,339.2 "/>
<polygon class="st94" points="166.8,323.3 167.6,354.1 164.9,339.9 "/>
<polygon class="st59" points="169.8,341.5 178.9,337.1 184.9,355.9 "/>
<polygon class="st94" points="170.6,345.1 185,358.6 185.1,368.2 "/>
<polygon class="st2" points="170.3,347.3 175.7,359.4 169.5,359.3 "/>
<polygon class="st94" points="170.4,361.7 176.5,361.9 174.4,374.1 "/>
<polygon class="st59" points="178.3,360.5 184.6,371.3 180.2,385.7 "/>
<polygon class="st94" points="177.1,372.5 178,386.7 170.5,394 "/>
<polygon class="st2" points="173.1,377.6 167.8,393.8 167.3,386.1 "/>
<polygon class="st59" points="177.4,390.7 167.4,398.9 166.4,410.4 "/>
<polygon class="st116" points="165.4,401.5 163.9,413.4 157,419 "/>
<polygon class="st116" points="166,391.3 166.1,397.5 158.3,403.9 "/>
<polygon class="st59" points="162,403.9 155.4,410 152,424.8 "/>
<polygon class="st59" points="161.8,417.1 156.8,422.2 158.2,429.3 "/>
<polygon class="st116" points="154.4,423.7 152.3,429.7 157.1,436.1 "/>
<polygon class="st2" points="161.6,424.5 158.8,432.2 162.8,436.4 "/>
<polygon class="st116" points="163.9,430.7 164.8,437.7 173.3,434.5 "/>
<polygon class="st59" points="168.2,437.6 175.6,438.2 180.5,432.6 "/>
<polygon class="st2" points="180.7,434.8 186.6,427.9 194.7,426.6 "/>
<polygon class="st116" points="193.1,429.1 197.7,426.2 209,426.8 "/>
<polygon class="st2" points="203.7,429.3 210.9,429 217.3,438.5 "/>
<polygon class="st59" points="157.9,434.7 158.9,439 163.5,441.9 "/>
<polygon class="st2" points="163.2,439 166.1,442.6 178,442 "/>
<polygon class="st116" points="176.2,440.2 180,441 190.5,432.8 "/>
<polygon class="st59" points="187.6,437 195.6,429.9 202.3,429.6 "/>
<polygon class="st116" points="197.3,435.8 202.8,434.9 208,438.4 "/>
<polygon class="st136" points="204.6,438.3 208.6,439.5 211.5,444.8 "/>
<polygon class="st116" points="212.5,437.8 218,441 217.3,451.1 "/>
<polygon class="st136" points="214.1,447.3 216.2,453 210.5,458.1 "/>
<polygon class="st116" points="210.4,453.6 208,458.6 201,456.3 "/>
<polygon class="st2" points="205.9,453.1 198.7,453.8 196,447.4 "/>
<polygon class="st59" points="200.7,448.3 195.4,443.5 195.8,437 "/>
<polygon class="st2" points="197.2,437.1 199.4,442.8 199.6,437.7 "/>
<polygon class="st2" points="207.8,443.2 211.2,446 208.3,449 "/>
<polygon class="st103" points="294.9,206.9 263.2,237.4 294,215.9 "/>
<polygon class="st64" points="231.5,255.6 274.3,221.9 239.4,255.9 "/>
<polygon class="st99" points="245.8,255.5 288.7,222.3 258.4,255.3 "/>
<polygon class="st137" points="295.9,218.5 311,216.3 264.2,254.7 "/>
<polygon class="st49" points="263.9,257.5 270.2,260 300.8,226.5 "/>
<polygon class="st138" points="312.2,217.6 310.7,227 276.8,257.3 "/>
<polygon class="st49" points="275.1,261.9 275.5,267.7 303.2,236.7 "/>
<polygon class="st15" points="276.8,270.6 277.7,281.1 302,241.3 "/>
<polygon class="st49" points="279.4,281.5 310,232.3 301.7,263.8 "/>
<polygon class="st139" points="315.1,219.7 322.1,209.8 316.4,251.7 "/>
<polygon class="st40" points="313.2,232.8 313.3,233.5 314.6,266 306.9,262.1 "/>
<polygon class="st30" points="306.3,263.9 314.6,268.2 298.8,300.5 "/>
<polygon class="st140" points="300.1,269.9 290.6,286.9 278.3,287.3 "/>
<polygon class="st40" points="294.7,285.8 303,270 295.7,299.2 "/>
<polygon class="st140" points="297.9,308.9 314.6,273.1 312.7,294.6 "/>
<polygon class="st30" points="293.6,296.5 295.7,306.5 287.1,317.9 "/>
<polygon class="st140" points="292.6,289 286.7,311.2 287.5,295.8 "/>
<polygon class="st141" points="287.7,290.5 280.9,299.7 261.1,309.4 "/>
<polygon class="st142" points="285.7,289.1 267.5,300.5 276.6,290.3 "/>
<polygon class="st27" points="284.9,300.7 283.8,319.8 259.6,332.7 "/>
<polygon class="st143" points="279,304.6 269.5,313.3 256.4,313.3 "/>
<polygon class="st144" points="266.1,314.7 247.5,325.2 253.8,315.7 "/>
<polygon class="st143" points="248.2,319.1 241.1,330.2 230.3,330.8 "/>
<polygon class="st140" points="254.3,325.2 254.7,336.3 267.3,317.2 "/>
<polygon class="st40" points="251.3,329.3 250.3,338.8 242.6,346.7 "/>
<polygon class="st140" points="249.1,327.6 238.2,349.4 237.7,335.9 "/>
<polygon class="st145" points="237.1,332.4 229.3,338.2 225.2,333.9 "/>
<polygon class="st115" points="228.5,340.9 223.4,355.3 224.4,336.6 "/>
<polygon class="st146" points="230.3,345.8 234.9,338.5 233.7,351.9 "/>
<polygon class="st140" points="228.5,348.7 231.9,355 223.5,363.7 "/>
<polygon class="st30" points="222.3,340.8 221.7,361.9 218.4,347.7 "/>
<polygon class="st30" points="214.7,366.6 218.9,373.6 215.5,383.8 "/>
<polygon class="st30" points="223.2,367.4 233.7,359.6 231.7,377.1 "/>
<polygon class="st147" points="221.7,370 222.7,377.6 230.9,380.4 "/>
<polygon class="st22" points="223,381.2 229.1,393.3 230.2,382.9 "/>
<polygon class="st64" points="220,380.2 224.9,395 216.2,389.2 "/>
<polygon class="st62" points="232.2,386.2 238.5,394.7 230.9,394.2 "/>
<polygon class="st148" points="220.3,395.3 229.1,397.7 228.1,405.7 "/>
<polygon class="st22" points="231,400.1 231,407.4 240.7,407.6 "/>
<polygon class="st64" points="232.5,396.3 241,396.3 241,406.3 "/>
<polygon class="st149" points="243.1,398.2 243.8,406.7 252.3,401.1 "/>
<polygon class="st32" points="236.5,410.3 246,410.3 247.2,414.5 "/>
<polygon class="st22" points="248,410.8 249.6,413.7 274.8,413 "/>
<polygon class="st30" points="248.9,405.2 255.5,401.3 272.7,401.3 "/>
<polygon class="st32" points="250.4,407.1 259.8,409.1 271.9,404.4 "/>
<polygon class="st30" points="263.9,409.8 278,404.2 287,408.6 "/>
<polygon class="st27" points="277.3,411.7 288.7,411.2 293,420.5 "/>
<path class="st30" d="M289.9,421.2l6.8,4.4l1.5,7L289.9,421.2z"/>
<polygon class="st150" points="293.8,429.7 297.9,434.8 296.2,450.3 "/>
<polygon class="st151" points="293.8,443.3 294.9,453.2 289.6,465.1 "/>
<polygon class="st27" points="288.2,461.2 285.7,468.9 278,469.9 "/>
<polygon class="st152" points="283.3,470.4 274.1,477.2 268.1,473.5 "/>
<polygon class="st153" points="265.9,474.8 271.2,478.1 257.1,478.4 "/>
<polygon class="st154" points="262.7,474.5 253.5,477 247.4,472.5 "/>
<polygon class="st155" points="252,471.4 244.1,469.4 242.4,465.3 "/>
<polygon class="st156" points="247.5,466.2 243.2,463.6 243.6,452.5 "/>
<polygon class="st157" points="247.2,457.8 246.3,450.8 251.3,447.4 "/>
<polygon class="st158" points="251.6,451.9 254.3,446.9 263.7,450.8 "/>
<polygon class="st159" points="257.1,453 265.1,452.9 271.4,461.2 "/>
<polygon class="st160" points="264.2,459.3 269.7,462.2 265.1,463.4 "/>
<polygon class="st40" points="322.5,219.4 325.7,281.5 315.5,292.1 "/>
<polygon class="st30" points="325.1,212.8 325.9,231.7 345.3,288.1 "/>
<polygon class="st137" points="326.2,241.4 329.5,281.5 342.5,286.1 "/>
<polygon class="st40" points="328.7,216.6 348.9,287.9 350.9,272.3 "/>
<polygon class="st30" points="332,218.4 351.7,269.2 342.8,230.2 "/>
<polygon class="st161" points="346.7,235 353.6,241.6 353.1,262.6 "/>
<polygon class="st162" points="300.8,171.4 296.9,165 292.2,171.3 "/>
<polygon class="st163" points="293.6,166.5 288.1,174.6 287.1,172.9 "/>
<polygon class="st93" points="286.7,174.7 293.7,182.7 287.4,183.1 "/>
<polygon class="st96" points="287.5,184.4 294.8,183.9 291.4,188.1 "/>
<polygon class="st164" points="292,179.2 296.8,179.5 294.7,182.8 "/>
<polygon class="st164" points="294.9,178.5 297.3,178.7 297.6,175.3 "/>
<polygon class="st165" points="295.2,172.1 290,173.6 297.2,173.9 "/>
<polygon class="st80" points="290.5,175.3 295.9,175.3 292.9,177.9 "/>
<polygon class="st94" points="129.6,409.4 134.3,409 135,413.5 "/>
<polygon class="st114" points="127.3,408.7 132.6,414.1 126.1,413.6 "/>
<polygon class="st94" points="125.1,406.2 124.6,412.5 119.3,406.8 "/>
<polygon class="st114" points="124,404.8 119.1,404.7 119.4,399.3 "/>
<polygon class="st94" points="118,400.8 117.9,394.7 114.6,397.2 "/>
<polygon class="st94" points="113.7,395.4 116.8,393.4 111.1,391.2 "/>
<polygon class="st114" points="109.1,391.4 112,395.6 104.6,394.8 "/>
<polygon class="st94" points="103.3,396.8 108,397 106.7,403.5 "/>
<polygon class="st132" points="156,265.4 167.9,251.6 161.3,275.9 "/>
<polygon class="st59" points="188.1,237.7 187.8,251.9 177.2,261.7 "/>
<polygon class="st51" points="185.4,238.9 175.4,262.6 177.4,244.5 "/>
<polygon class="st51" points="169.4,250.8 175.9,245.4 163.4,274.2 "/>
<polygon class="st132" points="167.1,269.9 175.5,250 173.7,263.4 "/>
<polyline class="st114" points="133,357.3 132.8,381 137.1,369.6 133,357.9 "/>
<polygon class="st94" points="134.2,383.1 137.6,370.8 135.6,395.8 "/>
<polygon class="st114" points="138.8,376.2 142.7,391.8 135.9,405.4 "/>
<polygon class="st114" points="136,413.1 141.6,405.4 136.1,407.9 "/>
<polygon class="st94" points="136.3,406.4 142.2,395.2 141,403.8 "/>
<polygon class="st166" points="394,363.2 399.3,372.5 395,353.2 "/>
<polygon class="st137" points="402.4,365.1 402.2,375.5 408.5,383.2 "/>
<polygon class="st40" points="396.6,355.2 401.6,363.8 400.8,374.3 "/>
<polygon class="st40" points="405.1,370.3 410,385.3 421.1,385.3 "/>
<polygon class="st137" points="412,386.2 420.6,391.9 426.5,385.5 "/>
<polygon class="st166" points="422,384.3 429.4,371.6 427,384.3 "/>
<polygon class="st40" points="430.3,372.6 428.1,383.8 433.8,376.6 "/>
<polygon class="st137" points="434,377.8 433.9,386.2 421.9,392.2 "/>
<polygon class="st166" points="418.5,380.7 409.2,367.4 411.8,374.7 "/>
<polygon class="st137" points="409.4,372.3 405.2,364.6 405.8,354.1 "/>
<polygon class="st166" points="404.2,361.8 401.1,348.9 404.7,341.6 "/>
<polygon class="st40" points="400.9,346.3 401.4,331.3 404.2,338.4 "/>
<polygon class="st137" points="402.3,330.1 405.5,335.4 406.5,325.3 "/>
<polygon class="st166" points="408,325.1 408.2,334 412.9,326.3 "/>
<polygon class="st40" points="413.2,328 412.5,345 409.5,335 "/>
<polygon class="st166" points="414.3,330.5 414,346.6 416.4,334.1 "/>
<polygon class="st137" points="412,345 412.2,363.6 418.4,367.9 "/>
<polygon class="st40" points="416.3,343.7 414.3,349.6 417.7,362.2 "/>
<polygon class="st166" points="418.2,363.2 420.5,369.6 424.4,365.9 "/>
<polygon class="st137" points="422.3,370.3 429.6,362.1 426.7,369.4 "/>
<polygon class="st166" points="429.4,366.1 433.3,356.9 436.4,359.8 "/>
<polygon class="st137" points="433.9,355.4 437.1,358.2 437.7,349.8 "/>
<polygon class="st40" points="438.9,347 438.5,353.5 445.6,340.7 "/>
<polygon class="st167" points="443.8,345.8 447,340.2 452.8,343.5 "/>
<polygon class="st166" points="448.8,339.6 456.5,344.8 453.7,338.8 "/>
<polygon class="st137" points="455.6,345.6 454.6,350.8 453.7,344.4 "/>
<polygon class="st163" points="296.3,172 298.9,175.6 301.3,172.2 "/>
<polygon class="st79" points="362.7,180.3 362.4,187.1 366.5,184.1 "/>
<polygon class="st40" points="419.2,379.4 424.5,378 421.6,383.3 "/>
<polygon class="st30" points="217.4,353.7 215.2,362.9 219.5,370.2 "/>
<polygon class="st168" points="322.9,308.9 330.9,289.5 327.1,309.8 "/>
<polygon class="st168" points="323.5,310.3 327.8,311.5 329.3,320.2 "/>
<polygon class="st57" points="363.2,330.2 368.1,322 368.8,340.4 "/>
<polygon class="st137" points="333.3,285.5 337.6,287 329.4,306.9 "/>
<polygon class="st40" points="337.5,292.3 338.6,303.8 329.7,309.7 "/>
<polygon class="st40" points="323.8,317.4 323.3,311.9 328.7,321.2 "/>
<polygon class="st168" points="339.4,287.5 346.8,290.3 340.4,301.2 "/>
<polygon class="st168" points="329.4,312.3 337.4,307.2 331.6,320.6 "/>
<polygon class="st40" points="335.9,315 349,321.2 332.2,323.2 "/>
<polygon class="st40" points="354.2,323.1 366.3,322 361.4,328.7 "/>
<polygon class="st137" points="336.9,324.5 350.5,322.8 357.2,328.2 "/>
<polygon class="st57" points="351,320.1 337.5,314.1 364.4,320.9 "/>
<polygon class="st40" points="336.4,312.6 347.8,291 342.7,313.4 "/>
<polygon class="st168" points="351.5,290.9 363.5,276.3 356.5,296.7 "/>
<path class="st120" d="M147.2,300.8l-7.1,16l7.7,7.4L147.2,300.8z"/>
<path class="st169" d="M146.9,298.1l-8.9,10.7l0.5,7.8L146.9,298.1z"/>
</svg>
