<?xml version="1.0" encoding="UTF-8" standalone="no"?>
<svg
   version="1.1"
   viewBox="0 0 640.91888 590.43079"
   inkscape:version="1.3 (0e150ed6c4, 2023-07-21)"
   sodipodi:docname="icon.svg"
   id="svg1"
   xmlns:inkscape="http://www.inkscape.org/namespaces/inkscape"
   xmlns:sodipodi="http://sodipodi.sourceforge.net/DTD/sodipodi-0.dtd"
   xmlns="http://www.w3.org/2000/svg"
   xmlns:svg="http://www.w3.org/2000/svg">
  <defs
     id="defs6">
    <clipPath
       clipPathUnits="userSpaceOnUse"
       id="clipPath1">
      <ellipse
         style="fill:#ff0808;fill-opacity:1;fill-rule:evenodd;stroke:#0a0a33;stroke-width:8;stroke-linecap:round;stroke-linejoin:round;stroke-dasharray:none;stroke-opacity:1"
         id="ellipse2"
         cx="639.61871"
         cy="360.01144"
         rx="309.8494"
         ry="287.36359" />
    </clipPath>
  </defs>
  <sodipodi:namedview
     pagecolor="#ffffff"
     bordercolor="#666666"
     borderopacity="1"
     objecttolerance="10"
     gridtolerance="10"
     guidetolerance="10"
     inkscape:pageopacity="0"
     inkscape:pageshadow="2"
     inkscape:window-width="1892"
     inkscape:window-height="1250"
     id="namedview4"
     showgrid="false"
     inkscape:zoom="0.63752247"
     inkscape:cx="401.55447"
     inkscape:cy="311.36157"
     inkscape:window-x="899"
     inkscape:window-y="34"
     inkscape:window-maximized="0"
     inkscape:current-layer="g10"
     fit-margin-top="0"
     fit-margin-left="0"
     fit-margin-right="0"
     fit-margin-bottom="0"
     inkscape:document-rotation="0"
     inkscape:showpageshadow="0"
     inkscape:pagecheckerboard="1"
     inkscape:deskcolor="#d1d1d1" />
  <g
     inkscape:groupmode="layer"
     inkscape:label="Image"
     id="g10"
     transform="translate(-317.59071,-65.930883)">
    <ellipse
       style="fill:#ff0808;fill-opacity:1;fill-rule:evenodd;stroke-width:8;stroke-linecap:round;stroke-linejoin:round;stroke:#0a0a33;stroke-opacity:1;stroke-dasharray:none"
       id="path932"
       cx="639.61871"
       cy="360.01144"
       rx="309.8494"
       ry="287.36359" />
    <path
       id="path837"
       style="fill:#000000;fill-opacity:1;stroke-width:1.21056;stroke-linecap:butt;stroke-linejoin:miter;stroke-miterlimit:4;stroke-dasharray:none;stroke-opacity:1"
       d="m 613.49331,85.752687 c -108.66404,1.053018 -199.455,82.858073 -224.57621,156.814063 -37.00771,108.94943 -7.3873,149.00269 70.41692,250.66577 -41.55845,-17.85813 -76.50535,-6.47217 -99.46591,-77.41851 -29.83558,-92.18963 -35.06207,-113.02244 -110.87455,-125.39505 -50.60772,-8.25922 -106.64323,34.1197 -108.39634,94.88238 -1.75307,60.76269 73.24487,93.07431 108.05147,85.15797 34.80662,-7.91635 18.12992,-34.9751 4.71183,-28.38734 -21.01128,10.31584 -80.18407,-30.11064 -43.28476,-64.93112 16.5597,-15.62675 43.84218,-16.07417 58.62333,1.41957 19.32996,22.87744 24.29888,69.40327 26.93164,81.66517 2.25559,10.50476 42.28754,81.68137 48.07679,97.62528 -31.94665,9.3781 -72.95529,50.83659 -72.95529,97.61324 0,46.77666 -63.01517,84.32033 -85.88776,24.73012 -16.11307,-41.97948 15.53449,-66.56403 36.5117,-98.86437 42.70625,-65.75835 -9.44685,-87.72318 -51.8623,-92.62069 -42.41549,-4.89755 -102.866303,50.03192 -87.965024,95.62021 16.29431,49.85004 37.622074,8.95547 37.835094,3.93391 0,0 -5.8876,-37.53665 26.22589,-51.36908 55.71539,-23.99858 42.50371,22.00841 34.85957,28.1106 -10.47715,8.36382 -89.727282,61.03699 -67.34119,146.20335 8.61087,32.75951 28.12163,45.80901 48.13695,57.22375 33.38199,19.03783 71.01603,21.66487 82.72381,16.63782 9.52547,-4.09001 74.11582,-1.03955 102.42134,-80.13333 16.86591,-47.12819 22.7775,-64.88416 51.39713,-73.84954 13.37307,-4.18925 34.02483,-1.81913 20.14661,25.1472 -8.139,15.81467 -48.819,18.30356 -68.70461,70.68156 -34.87707,91.86505 28.24246,131.82944 26.92765,167.03968 -1.23614,33.1034 -53.07732,80.20046 -102.87446,23.51107 -36.91823,-42.02798 3.58464,-70.3531 31.49514,-76.90121 20.48184,-4.80526 14.26096,-18.13684 5.86274,-22.9657 -6.11559,-3.51636 -13.07254,-0.78001 -14.58465,-0.51729 -5.36444,0.93204 -61.02539,20.47161 -70.36077,50.31841 -20.37941,65.15623 11.57435,91.49785 48.73843,120.47871 34.88217,27.20141 78.4993,26.14831 118.96691,16.28891 -6.22752,69.697 77.44624,114.9219 129.06425,116.7573 61.87284,2.2 109.37523,-30.3452 121.13633,-80.4501 33.70006,26.9539 84.1876,40.1226 136.40273,36.8165 89.53321,-5.6691 112.85835,-69.2721 124.62102,-101.21828 28.27961,16.45248 118.67604,33.36458 178.87304,-40.81857 54.1073,-66.67847 5.8754,-123.56146 -22.1596,-140.54911 -18.5031,-11.21184 -50.9287,-10.92326 -50.6634,7.13793 0.1779,12.11689 4.0463,2.78285 20.1988,11.06782 47.1718,24.19546 26.9041,69.68553 6.8813,90.51942 -36.2621,37.73102 -115.81631,10.12074 -103.03448,-30.03948 8.84183,-27.78103 32.71564,-63.12945 34.9518,-84.80507 5.15187,-49.93572 -25.68879,-81.58283 -40.89073,-93.63124 -2.14958,-1.70367 -11.23888,-9.66607 -23.36668,-14.57662 -31.86719,-12.903 -68.82817,-28.97051 -35.72573,-41.15138 26.59799,-9.7874 69.50911,18.08405 76.47211,49.16352 7.36188,32.85973 92.21741,110.40993 174.48201,68.68857 62.9331,-31.91719 78.4395,-86.84306 82.1704,-132.47683 1.9655,-24.04028 -9.1879,-59.21062 -32.6219,-80.26166 -21.0491,-18.90847 -53.5516,-25.21868 -69.3423,-22.19977 -56.3252,10.76848 -55.0487,70.54634 -41.7128,96.49442 3.5105,6.83057 16.8652,14.97546 23.9563,8.4372 0,10e-6 -10.0587,-65.78625 26.7231,-64.93114 36.7817,0.85516 47.7665,55.31142 28.4113,94.82625 -21.4055,43.70084 -108.2164,54.82451 -117.5553,-10.82319 -8.4755,-59.57786 -34.41633,-76.8766 -85.723,-96.76309 57.18348,-71.62114 42.76058,-148.28417 78.0076,-182.4143 40.1816,-38.90804 81.9846,12.03102 47.8082,48.14093 -29.7151,31.39608 -34.0307,54.51254 -35.6537,63.01434 -0.8818,4.61919 -4.227,19.66365 2.3499,33.93727 8.0771,17.52926 24.4153,18.58858 32.6982,-12.11445 11.3297,-41.99707 24.3901,-37.69268 56.3215,-75.70621 31.9313,-38.01349 7.6103,-110.90928 -40.7825,-130.9129 -48.4073,-20.00967 -128.17364,-14.30329 -151.28366,89.26425 -23.11002,103.56757 -92.62072,94.0122 -92.62072,94.0122 77.01617,-104.6922 91.42487,-134.09057 64.14114,-224.19927 C 858.71757,129.42103 726.82828,92.45253 629.64992,86.193777 624.22501,85.844392 618.83746,85.700904 613.49331,85.752687 Z M 542.515,151.30145 c 55.94294,-0.11012 84.61054,35.46573 100.63684,58.61527 13.78813,-11.22089 29.88306,-64.35106 117.65961,-57.95359 86.03915,6.27083 89.95705,87.15195 86.58556,98.10646 C 816.56864,340.51232 727.85079,406.51014 644.5714,469.541 549.5117,405.93902 466.40922,339.14491 440.88768,256.98296 c 0,0 -27.00199,-85.16114 75.93878,-103.30754 9.14789,-1.61261 17.69669,-2.35819 25.68854,-2.37397 z m -21.95515,312.97431 c 12.10303,-0.35 28.64742,2.51594 41.05113,17.44782 22.05106,26.54575 14.7571,52.7766 14.7571,52.7766 0,0 -35.35629,-1.64372 -53.89143,-13.36958 -18.53515,-11.72586 -18.05735,-54.36456 -18.05735,-54.36456 0,0 6.72706,-2.21805 16.14055,-2.49028 z m 236.74681,0.81808 c 9.41345,0.2722 16.13653,2.49024 16.13653,2.49024 0,0 0.4818,42.64272 -18.05335,54.36861 -18.53515,11.72586 -53.8914,13.36556 -53.8914,13.36556 0,0 -7.29798,-26.22686 14.75306,-52.77257 12.4037,-14.93199 28.95211,-17.80185 41.05516,-17.45184 z m -232.78889,9.28731 c -3.90179,0.3443 -7.03695,5.80665 -10.1615,8.15651 -1.63197,1.22728 6.33851,12.41603 28.01437,30.76929 15.55827,13.17341 15.17178,9.80955 19.71754,4.80005 3.19899,-3.52533 5.08738,-9.24374 -4.97248,-13.23726 -18.27576,-7.25502 -22.56572,-20.33991 -24.58177,-23.80379 -3.05953,-5.25667 -5.67505,-6.89139 -8.01616,-6.6848 z m 228.83094,0.81805 c -2.3411,-0.20657 -4.95664,1.43216 -8.01616,6.6888 -2.01604,3.4639 -6.31001,16.54879 -24.58576,23.80381 -10.05986,3.99351 -8.17148,9.71194 -4.97249,13.23726 4.54578,5.00949 4.15926,8.36933 19.71753,-4.80404 21.67589,-18.35328 29.64631,-29.53801 28.01439,-30.76531 -3.12458,-2.34985 -6.25569,-7.81619 -10.15751,-8.16052 z M 485.77244,732.83852 c 9.03625,0.0349 16.29339,3.58218 21.51004,5.02861 11.92379,3.30613 35.97681,31.2247 21.35767,66.99232 -14.9089,36.47663 -43.08175,50.25418 -80.25362,71.55577 -1.31992,-16.65169 -33.70342,-70.29871 -5.73443,-114.36333 15.52513,-24.45953 31.50233,-29.2583 43.12034,-29.21337 z m 330.43822,11.80163 c 13.39689,0.003 28.97283,4.92826 44.26317,18.47043 45.40181,40.2108 -2.77852,101.70621 -2.56243,103.4158 -9.78903,-9.9997 0.14499,-4.25153 -47.6196,-39.03807 -47.76466,-34.78666 -33.28309,-55.01749 -31.15831,-62.84991 2.57492,-9.49187 17.49709,-20.00278 37.07717,-19.99825 z m -165.44769,4.62363 c 7.84116,-0.41215 15.76332,7.21751 21.84288,19.97417 5.34673,11.21898 4.3629,25.8951 9.56402,43.46921 19.0547,64.3843 87.87465,73.99866 105.36872,94.64178 51.07158,60.26486 12.98846,84.40674 5.73842,91.55403 -10.73392,10.58173 -134.04525,42.95013 -145.25292,-47.84421 -3.58988,-29.08186 23.25736,-44.37445 44.42761,-40.42155 14.19501,2.65046 21.82865,19.42113 31.4831,26.04144 24.05303,16.49374 20.34311,-2.13338 20.34311,-2.13338 0,0 3.09527,-26.05677 -37.47413,-53.07734 -50.37324,-33.55026 -107.47371,3.27752 -104.16972,81.03957 0.34755,8.17993 1.60427,15.96637 3.66118,23.35468 -13.69807,-5.63271 -27.78248,-8.17829 -36.1388,-8.10034 -23.88843,0.22288 -37.95829,29.73396 -0.95437,34.54276 37.00391,4.8089 24.46207,41.2026 17.02275,49.5365 -11.86662,13.2934 -72.67828,44.0236 -112.87958,-29.0129 -40.20134,-73.03653 29.91343,-109.6034 77.25808,-132.07983 25.87469,-12.28375 56.79077,-26.26797 74.81195,-90.42319 4.82524,-17.17782 2.53066,-29.4276 6.10737,-39.17442 5.46636,-14.89644 12.32155,-21.52333 19.24033,-21.88698 z"
       sodipodi:nodetypes="sscsssssssscssssscsssssssssssssssscscscsssssssssssssssssssscsssssssscsssscscccsssscscsscscssssssssssssssssssscsscscsscsssssssscsscssssssss"
       clip-path="url(#clipPath1)" />
  </g>
</svg>
