<?xml version="1.0" encoding="utf-8"?>
<!-- Generator: Adobe Illustrator 25.3.1, SVG Export Plug-In . SVG Version: 6.00 Build 0)  -->
<svg version="1.1" id="Layer_1" xmlns="http://www.w3.org/2000/svg" xmlns:xlink="http://www.w3.org/1999/xlink" x="0px" y="0px"
	 viewBox="0 0 595.3 595.3" style="enable-background:new 0 0 595.3 595.3;" xml:space="preserve">
<style type="text/css">
	.st0{fill:#7B2164;}
	.st1{fill:#64286B;enable-background:new    ;}
	.st2{fill:#962688;enable-background:new    ;}
	.st3{fill:#7B2164;enable-background:new    ;}
	.st4{fill:#42363F;}
	.st5{fill:#BAAFB8;}
</style>
<g id="leg">
	<polygon class="st0" points="452.9,422.4 458.2,425.4 452,413.9 	"/>
	<polygon class="st0" points="399.2,392.2 404.5,401.5 400.2,382.1 	"/>
	<polygon class="st1" points="407.7,394.1 407.4,404.4 413.7,412.1 	"/>
	<polygon class="st0" points="401.9,384.1 406.8,392.7 406,403.2 	"/>
	<polygon class="st0" points="410.3,398.8 415.3,413.8 426.4,413.8 	"/>
	<polygon class="st0" points="417.3,415.1 425.9,420.9 431.8,414.4 	"/>
	<polygon class="st0" points="427.3,413.6 434.6,400.9 432.2,413.6 	"/>
	<polygon class="st0" points="435.6,401.5 433.3,412.7 439,405.5 	"/>
	<polygon class="st1" points="439.4,406.7 439.3,415.2 427.3,421.2 	"/>
	<polygon class="st0" points="423.8,409.6 414.5,396.4 417,403.7 	"/>
	<polygon class="st0" points="414.6,401.2 410.4,393.6 411,383 	"/>
	<polygon class="st2" points="409.4,390.8 406.4,377.8 409.9,370.5 	"/>
	<polygon class="st2" points="406.1,375.2 406.6,360.2 409.5,367.3 	"/>
	<polygon class="st2" points="407.6,359 410.8,364.4 411.8,354.2 	"/>
	<polygon class="st0" points="418.5,357 417.8,373.9 414.7,363.9 	"/>
	<polygon class="st0" points="419.5,359.4 419.2,375.5 421.6,363 	"/>
	<polygon class="st0" points="416.8,374 416.9,392.5 423.1,396.8 	"/>
	<polygon class="st0" points="421.6,372.6 419.5,378.5 422.9,391.1 	"/>
	<polygon class="st0" points="423.4,392.1 425.8,398.5 429.6,394.8 	"/>
	<polygon class="st0" points="427.6,399.2 434.8,391 431.9,398.4 	"/>
	<polygon class="st0" points="434.6,395 438.5,385.8 441.6,388.7 	"/>
	<polygon class="st2" points="439.1,384.4 442.3,387.1 442.9,378.7 	"/>
	<polygon class="st2" points="444.1,375.9 443.8,382.4 450.8,369.7 	"/>
	<polygon class="st0" points="449,374.7 452.2,369.2 458,372.4 	"/>
	<polygon class="st2" points="454,368.5 461.7,373.7 458.9,367.8 	"/>
	<polygon class="st0" points="460.9,374.5 459.8,379.8 458.9,373.3 	"/>
	<polygon class="st0" points="424.4,408.4 429.7,406.9 426.8,412.2 	"/>
	<polygon class="st0" points="368.5,359.2 371.4,353.9 373.1,367.8 	"/>
	<polygon class="st0" points="359.5,352 369.9,352.2 366.7,357.6 	"/>
	<polygon class="st0" points="342.2,353.4 355.8,351.7 362.4,357.1 	"/>
	<polygon class="st0" points="328.7,336 336.1,318.4 332.4,338.5 	"/>
	<polygon class="st0" points="329.8,339.4 332.4,341.3 334.2,346.8 	"/>
	<polygon class="st1" points="339.4,314.7 342.2,316.6 335.4,333.2 	"/>
	<polygon class="st0" points="342.7,321.2 343.8,332.7 335.6,338 	"/>
	<polygon class="st0" points="329,346.3 328.5,340.8 334,350.1 	"/>
	<polygon class="st1" points="344.8,317.8 351.3,320.8 345.6,330.1 	"/>
	<polygon class="st0" points="334.6,341.2 342.7,336.1 336.9,349.5 	"/>
	<polygon class="st0" points="341.7,344.1 352.7,350.1 337.9,352.1 	"/>
	<polygon class="st2" points="356.3,349.5 346.5,344 366.1,349.7 	"/>
	<polygon class="st0" points="343.3,340.4 350.1,327 346.7,341.7 	"/>
	<polygon class="st2" points="413.2,354.1 413.5,362.9 418.1,355.2 	"/>
</g>
<g id="Leg-2">
	<polygon class="st0" points="172,352.3 172.9,383 170.1,368.8 	"/>
	<polygon class="st0" points="175.1,370.4 184.1,366.1 190.1,384.9 	"/>
	<polygon class="st1" points="176.1,374.1 190.5,387.5 190.6,397.1 	"/>
	<polygon class="st0" points="175.5,376.2 180.9,388.4 174.7,388.2 	"/>
	<polygon class="st0" points="175.7,390.6 181.7,390.8 179.7,403 	"/>
	<polygon class="st1" points="183.6,389.4 189.9,400.3 185.4,414.6 	"/>
	<polygon class="st0" points="182.4,401.5 183.2,415.6 175.8,422.9 	"/>
	<polygon class="st0" points="178.4,406.6 173,422.7 172.5,415 	"/>
	<polygon class="st1" points="182.6,419.7 172.7,427.8 171.7,439.3 	"/>
	<polygon class="st0" points="170.6,430.4 169.1,442.3 162.2,447.9 	"/>
	<polygon class="st0" points="171,420.2 171.1,426.4 163.3,432.8 	"/>
	<polygon class="st0" points="167.2,432.8 160.6,438.9 157.2,453.7 	"/>
	<polygon class="st0" points="167.1,446.1 162,451.1 163.4,458.2 	"/>
	<polygon class="st0" points="159.7,452.6 157.5,458.6 162.3,465 	"/>
	<polygon class="st0" points="166.8,453.5 164,461.1 168,465.3 	"/>
	<polygon class="st2" points="169.1,459.7 170,466.6 178.6,463.4 	"/>
	<polygon class="st2" points="173.4,466.6 180.9,467.1 185.7,461.5 	"/>
	<polygon class="st2" points="186,463.8 191.8,456.9 199.9,455.5 	"/>
	<polygon class="st0" points="198.4,458.1 202.9,455.2 214.2,455.8 	"/>
	<polygon class="st0" points="208.9,458.2 216.2,458 222.6,467.4 	"/>
	<polygon class="st0" points="163.1,463.7 164.1,467.9 168.8,470.8 	"/>
	<polygon class="st0" points="168.4,467.9 171.3,471.5 183.2,470.9 	"/>
	<polygon class="st0" points="181.4,469.1 185.2,469.9 195.8,461.7 	"/>
	<polygon class="st0" points="192.8,465.9 200.8,458.8 207.6,458.5 	"/>
	<polygon class="st0" points="202.5,464.7 208.1,463.9 213.2,467.4 	"/>
	<polygon class="st0" points="209.8,467.2 213.8,468.4 216.7,473.7 	"/>
	<polygon class="st0" points="217.7,466.7 223.2,470 222.6,480 	"/>
	<polygon class="st0" points="219.3,476.2 221.4,482 215.8,487 	"/>
	<polygon class="st0" points="215.7,482.5 213.2,487.5 206.2,485.2 	"/>
	<polygon class="st0" points="211.1,482.1 203.9,482.7 201.2,476.4 	"/>
	<polygon class="st0" points="206,477.2 200.6,472.4 201,465.9 	"/>
	<polygon class="st0" points="202.5,466.1 204.6,471.8 204.9,466.6 	"/>
	<polygon class="st0" points="213,472.1 216.4,475 213.5,478 	"/>
	<polyline class="st1" points="187,323.4 187.6,327.2 184.5,336.5 185.5,314.3 187,323.4 	"/>
	<polygon class="st1" points="178.2,329.5 184.1,342.9 183.1,355 	"/>
	<polygon class="st0" points="175.1,326.6 173.6,343.8 181.3,356.4 	"/>
	<polygon class="st2" points="174,320.3 168.3,332 171.3,338.4 	"/>
	<polygon class="st2" points="171,343.3 167.6,336.6 168.2,365.6 	"/>
	<polygon class="st0" points="173.8,348 183.1,364.1 174.6,368.1 	"/>
	<polygon class="st0" points="193.4,296.9 186.2,306.2 188.3,318.7 	"/>
	<polygon class="st0" points="183.8,308.1 182.3,334.6 176.3,319.1 	"/>
</g>
<g id="_2_Legs">
	<path class="st0" d="M142.9,358.7l-1.4,12.8c0,0-11.8,5.7-11.7,5.4S142.9,358.7,142.9,358.7z"/>
	<polygon class="st0" points="140.5,375.2 129.6,391.1 130,378.4 	"/>
	<polygon class="st0" points="136.3,385.8 130.2,395.1 136.1,402.3 	"/>
	<polygon class="st0" points="135.7,361.2 135.1,367.2 129,375 	"/>
	<polygon class="st0" points="134.8,438.3 139.5,438 140.2,442.4 	"/>
	<polygon class="st0" points="132.5,437.6 137.9,443 131.3,442.5 	"/>
	<polygon class="st0" points="130.3,435.2 129.8,441.4 124.5,435.8 	"/>
	<polygon class="st0" points="129.2,433.7 124.3,433.6 124.7,428.3 	"/>
	<polygon class="st0" points="123.2,429.7 123.2,423.7 119.8,426.1 	"/>
	<polygon class="st2" points="119,424.4 122,422.3 116.3,420.1 	"/>
	<polygon class="st2" points="114.3,420.4 117.2,424.5 109.8,423.8 	"/>
	<polygon class="st0" points="108.5,425.7 113.3,426 111.9,432.4 	"/>
	<polyline class="st0" points="138.2,386.6 138,410 142.3,398.6 138.2,386.8 	"/>
	<polygon class="st0" points="139.4,412 142.9,399.8 140.8,424.7 	"/>
	<polygon class="st0" points="144.1,405.1 147.9,420.7 141.1,434.4 	"/>
	<polygon class="st1" points="141.2,442 146.8,434.4 141.3,436.8 	"/>
	<polygon class="st1" points="141.6,435.3 147.4,424.1 146.2,432.8 	"/>
	<polygon class="st2" points="150.6,310.1 142.6,331.8 141.4,320.7 	"/>
	<path class="st0" d="M151,328.8c-0.3,0.2-7.8,8.9-7.8,8.9l0.5,7.8L151,328.8z"/>
	<path class="st0" d="M152.2,330.8c-0.3,0.3-7.1,16-7.1,16l7.7,7.4L152.2,330.8z"/>
	<polygon class="st0" points="144.8,348.1 152,357 144.2,368.4 	"/>
	<polygon class="st0" points="140.3,332.1 142.1,349.4 138.6,343.9 	"/>
	<polygon class="st0" points="138.5,348.8 142.6,354.9 137.1,363.9 	"/>
	<polygon class="st0" points="137.8,332.4 136.9,340.1 126.9,332.7 	"/>
	<polygon class="st0" points="122.9,331.2 132.2,338.6 118.3,334.2 	"/>
	<polygon class="st0" points="120.8,330.1 115,333 113.5,326.7 	"/>
	<polygon class="st0" points="110.5,324.7 112.8,331.3 103.2,323.8 	"/>
	<polygon class="st2" points="100.2,323.7 109,330.8 94.4,329.5 	"/>
	<polygon class="st2" points="93.5,331.3 100,331.6 89.8,343.5 	"/>
	<polygon class="st0" points="92.9,342 89.1,347 97.4,357.3 	"/>
	<polygon class="st0" points="89.9,350.2 90,356.8 100.2,363.8 	"/>
	<polygon class="st1" points="95.8,361.6 101.4,365.5 96.2,373.5 	"/>
	<polygon class="st0" points="94.5,367.3 94.4,374.4 89.8,368.5 	"/>
	<polygon class="st2" points="101.8,322.5 114.2,322 110.1,323.5 	"/>
	<polygon class="st2" points="112,323.9 115.7,322.9 120.1,327.5 	"/>
	<polygon class="st2" points="121.2,327.8 125.4,330.4 136.7,330.7 	"/>
	<polygon class="st0" points="266,231.2 237.5,241.8 229.5,236.1 	"/>
	<polygon class="st2" points="261.4,229.1 243,225.6 229.1,233.1 	"/>
	<polygon class="st0" points="239.8,224.5 225.3,231.9 212.9,228 	"/>
	<polygon class="st0" points="236.4,222.2 208.9,225.5 199.5,223.3 	"/>
	<polygon class="st2" points="233.2,219.9 197.3,221.4 222,215.8 	"/>
	<polygon class="st0" points="216.3,214.6 176.1,222.3 164.8,215.8 	"/>
	<polygon class="st2" points="215.1,212 199.7,205.1 166.2,214.3 	"/>
	<polygon class="st2" points="191.8,204.6 176.9,205.6 165.3,212.8 	"/>
	<polygon class="st0" points="164.5,217.8 174.5,223.6 162.5,232.7 	"/>
	<polygon class="st2" points="162.9,217.4 157.8,244.8 156.6,224.8 	"/>
	<polygon class="st0" points="155.3,228.7 155.7,260.3 150.3,244.2 	"/>
	<polygon class="st2" points="152.1,230.6 144.7,254.1 144.9,241.6 	"/>
	<polygon class="st0" points="151.2,250.8 156.8,266 156,276.3 	"/>
	<polygon class="st2" points="149,249.2 147.6,276.2 144.2,262.5 	"/>
	<polygon class="st0" points="149.8,255.8 149.5,279.4 157.6,289 	"/>
	<polygon class="st0" points="158,270.2 156.5,280.2 159.6,287.5 	"/>
	<polygon class="st2" points="149.8,284.3 159,292.1 152.7,306.4 	"/>
	<polygon class="st2" points="160.1,294.6 165.3,306.8 154,306.6 	"/>
	<polygon class="st0" points="153.5,308.4 165.5,307.9 144.6,332.9 	"/>
	<polygon class="st1" points="181.5,224.6 189.3,223 188.9,226.9 	"/>
	<polygon class="st3" points="191,222.9 190.5,226.7 194.2,224 	"/>
	<polygon class="st1" points="191.9,227.1 196.5,225.7 200.6,230.1 	"/>
	<polygon class="st3" points="198.9,225.5 207.7,228.5 201.8,229.8 	"/>
	<polygon class="st1" points="202.8,231.4 209,230.5 210,234.6 	"/>
	<polygon class="st3" points="211.2,230.1 212.7,235.2 221.9,235.4 	"/>
	<polygon class="st1" points="213.4,237.4 220.9,237.5 221.3,242 	"/>
	<polygon class="st3" points="222.9,236.5 224.4,244.2 235.8,245.4 	"/>
	<polygon class="st3" points="236.1,247.2 238.1,255.8 243.1,254.6 	"/>
	<polygon class="st1" points="234.6,247.8 235.8,255.7 227.8,248.4 	"/>
	<polygon class="st0" points="226.6,249.1 234.1,257 220.3,261.3 	"/>
	<polygon class="st0" points="223.6,249.2 217.6,262.1 209.3,254.8 	"/>
	<polygon class="st0" points="206.9,256.3 215.1,263.8 206.7,268.3 	"/>
	<polygon class="st1" points="204.9,257.9 204.4,270.1 195.8,278.9 	"/>
	<polygon class="st0" points="201.9,259.2 194.2,275.8 195.1,264.9 	"/>
	<polygon class="st2" points="161.2,294.3 173.1,280.5 166.6,304.8 	"/>
	<polygon class="st0" points="193.4,266.6 193,280.8 182.5,290.6 	"/>
	<polygon class="st2" points="190.6,267.8 180.6,291.5 182.6,273.5 	"/>
	<polygon class="st2" points="174.6,279.8 181.1,274.3 168.7,303.1 	"/>
	<polygon class="st1" points="172.3,298.8 180.8,278.9 178.9,292.4 	"/>
</g>
<g id="Leg-3">
	<polygon class="st1" points="256.5,358.2 255.5,367.8 247.8,375.6 	"/>
	<polygon class="st0" points="254.3,356.5 243.4,378.3 242.9,364.9 	"/>
	<polygon class="st2" points="242.4,361.3 234.6,367.1 230.5,362.8 	"/>
	<polygon class="st2" points="233.7,369.8 228.6,384.3 229.6,365.5 	"/>
	<polygon class="st0" points="235.6,374.7 240.2,367.4 239,380.9 	"/>
	<polygon class="st0" points="233.7,377.6 237.1,383.9 228.8,392.6 	"/>
	<polygon class="st2" points="227.6,369.7 226.9,390.8 223.1,380.6 	"/>
	<polygon class="st2" points="220.2,393.5 224.2,402.6 220.8,412.7 	"/>
	<polygon class="st1" points="228.4,396.4 239,388.5 236.9,406.1 	"/>
	<polygon class="st0" points="226.9,398.9 227.9,406.6 236.1,409.3 	"/>
	<polygon class="st0" points="228.2,410.1 234.4,422.2 235.4,411.8 	"/>
	<polygon class="st2" points="225.2,409.1 230.1,423.9 221.4,418.1 	"/>
	<polygon class="st0" points="237.4,415.1 243.8,423.6 236.1,423.1 	"/>
	<polygon class="st0" points="225.5,424.3 234.4,426.6 233.4,434.6 	"/>
	<polygon class="st0" points="235.9,429 235.9,436.4 245.6,436.5 	"/>
	<polygon class="st0" points="237.8,425.1 246.3,425.1 246.3,435.2 	"/>
	<polygon class="st0" points="248.3,427.2 249,435.7 257.5,430.1 	"/>
	<polygon class="st0" points="241.7,439.1 251.2,439.1 252.4,443.3 	"/>
	<polygon class="st0" points="253.3,439.8 254.8,442.6 280,442 	"/>
	<polygon class="st0" points="254.1,434.3 260.8,430.4 278,430.4 	"/>
	<polygon class="st0" points="255.7,436 265,438.1 277.1,433.3 	"/>
	<polygon class="st0" points="269.1,438.7 283.2,433.1 292.2,437.5 	"/>
	<polygon class="st0" points="282.5,440.6 294,440.1 298.2,449.5 	"/>
	<path class="st0" d="M295.1,450.1l6.8,4.4c0,0,1.5,6.5,1.5,7S295.1,450.1,295.1,450.1z"/>
	<polygon class="st0" points="299.1,458.6 303.1,463.8 301.5,479.2 	"/>
	<polygon class="st0" points="299.1,472.3 300.1,482.1 294.8,494.1 	"/>
	<polygon class="st0" points="293.5,490.1 290.9,497.8 283.2,498.8 	"/>
	<polygon class="st0" points="288.5,499.3 279.3,506.1 273.4,502.4 	"/>
	<polygon class="st1" points="271.1,503.8 276.4,507 262.3,507.3 	"/>
	<polygon class="st0" points="267.9,503.4 258.7,506 252.6,501.4 	"/>
	<polygon class="st0" points="257.2,500.4 249.4,498.3 247.7,494.2 	"/>
	<polygon class="st0" points="252.8,494.7 248,489.1 248.9,481.5 	"/>
	<polygon class="st2" points="252.4,486.7 251.6,479.8 256.5,476.4 	"/>
	<polygon class="st2" points="256.9,480.8 259.6,475.8 268.9,479.8 	"/>
	<polygon class="st0" points="262.3,482 270.3,481.8 276.6,490.1 	"/>
	<polygon class="st0" points="269.5,488.3 274.9,491.2 270.3,492.4 	"/>
	<polygon class="st2" points="222.6,382.6 220.4,391.8 224.8,399.1 	"/>
	<polygon class="st1" points="298.9,327.1 297.9,341.7 292.4,348.5 	"/>
	<polygon class="st0" points="297.9,317.9 292.9,337.8 292.2,325 	"/>
	<polygon class="st2" points="290.9,318.1 272.7,329.5 281.9,319.2 	"/>
	<polyline class="st1" points="264.9,361.6 289,348.7 290.2,330.5 	"/>
	<polygon class="st2" points="271.3,343.6 252.8,354.1 259.1,344.6 	"/>
	<polygon class="st2" points="253.4,348 246.3,359.1 235.6,359.8 	"/>
	<polygon class="st0" points="259.6,354.1 259.9,365.2 272.5,346.1 	"/>
	<polygon class="st0" points="311.5,292.9 319.8,297.1 304,329.5 	"/>
	<polygon class="st1" points="303.1,337.8 319.8,302.1 318,323.5 	"/>
	<polygon class="st2" points="305.4,298.8 295.8,315.8 283.6,316.2 	"/>
	<polygon class="st0" points="300.1,316.4 307.6,302.2 300.9,328.1 	"/>
</g>
<g id="Leg-4">
	<polygon class="st0" points="400.2,369.5 395.8,406.8 387.8,414.3 	"/>
	<polygon class="st0" points="394.5,410.8 386,436.8 386.5,419 	"/>
	<polygon class="st0" points="385.1,422.6 382,450.6 379.8,439.4 	"/>
	<polygon class="st0" points="379.3,443.4 382.5,476.1 374.6,461.6 	"/>
	<polygon class="st0" points="377.9,471.6 387.2,486.6 381.9,486.2 	"/>
	<polygon class="st0" points="383,488.2 387.9,488.9 394.9,499 	"/>
	<polygon class="st0" points="390.2,360.7 376.5,382.8 373.3,403.8 	"/>
	<polygon class="st2" points="391.1,365.3 374.9,406.1 391.1,391.2 	"/>
	<polygon class="st0" points="388.4,396.6 373.2,411.8 366.1,435.2 	"/>
	<polygon class="st2" points="387.5,402.4 363.2,445.3 377.7,438.3 	"/>
	<polygon class="st2" points="377,441.2 372.2,458.6 364.4,447.2 	"/>
	<polygon class="st2" points="363.4,448.8 371.5,461.5 361.3,464 	"/>
	<polygon class="st2" points="361.7,466.4 365.9,477.8 371.6,463.8 	"/>
	<polygon class="st0" points="373.3,467 367.7,483.2 373.5,494.4 	"/>
	<polygon class="st0" points="375,468.7 374.9,496.3 379.2,484.1 	"/>
	<polygon class="st0" points="380.1,487.1 377.8,499.1 381.3,504.1 	"/>
	<polygon class="st0" points="382.9,493 383.1,506.2 390.3,510.4 	"/>
	<polygon class="st0" points="383.2,490.4 393.5,500.9 392.2,509.2 	"/>
	<polygon class="st0" points="396.1,502.2 404.6,503.8 393.2,509.5 	"/>
	<polygon class="st0" points="393.2,511.3 404.6,505.5 399.7,513.5 	"/>
	<polygon class="st0" points="408.5,503.8 415.5,499.8 403,513.5 	"/>
	<polygon class="st0" points="415.1,502.4 404.9,514 413.9,512.5 	"/>
	<polygon class="st0" points="418.7,498.4 415.7,511.4 428.5,502.6 	"/>
	<polygon class="st0" points="420.6,496.4 426.5,489 430.2,500.3 	"/>
	<polygon class="st0" points="427.5,487.1 429.5,474.7 431.8,498.1 	"/>
	<polygon class="st0" points="431.3,475.7 432.9,496.4 436.2,485.2 	"/>
	<polygon class="st0" points="428.7,458.1 429.9,470.5 437.6,484.5 	"/>
	<polygon class="st0" points="429.1,455 438,480 437.1,463.7 	"/>
	<polygon class="st0" points="428.6,452.3 427.7,445.4 439.1,462.2 	"/>
	<polygon class="st0" points="428.5,444.1 438,457 437.5,450.6 	"/>
	<polygon class="st0" points="428.6,442.1 437.3,448.3 432.3,439.1 	"/>
	<polygon class="st0" points="426.5,441.1 431.4,438 423.7,433.7 	"/>
	<polygon class="st0" points="422,434.1 425.2,441.4 418.9,441.4 	"/>
	<polygon class="st0" points="420.3,433.8 417.2,441.7 411.1,443.9 	"/>
	<polygon class="st0" points="411.1,445.2 417.3,443.2 409.2,452.4 	"/>
	<polygon class="st0" points="409.3,454.4 416.3,446.5 411.1,463.8 	"/>
	<path class="st0" d="M412.2,465.1c0-0.3,3.7-12.5,3.7-12.5l0.3,10L412.2,465.1z"/>
	<polygon class="st0" points="412.8,467.2 416.4,464.6 422,472.4 	"/>
	<polygon class="st0" points="412.9,469.4 422.2,473.9 416,475 	"/>
	<polygon class="st0" points="417.2,477 422.8,475.8 422.6,483.6 	"/>
	<polygon class="st0" points="417.5,479.6 421.3,485.4 416.9,490 	"/>
	<polygon class="st0" points="416,483.8 415.8,490.2 412,490.4 	"/>
	<polygon class="st0" points="413,485.7 409.8,489.9 404.2,485.4 	"/>
	<polygon class="st0" points="409.3,484.1 403.5,483.8 403,481.1 	"/>
	<polygon class="st0" points="403.3,478.9 404,473.9 407.1,481.4 	"/>
	<polygon class="st0" points="404.1,471 405.6,464 406.6,476 	"/>
	<polygon class="st0" points="406.9,464.2 407.5,473.7 409.4,468.4 	"/>
	<polygon class="st1" points="400.1,313.1 399.1,351.4 391.2,324.2 	"/>
	<polygon class="st0" points="392.9,340.4 399.7,360.5 393.7,387.2 	"/>
	<polygon class="st0" points="386,328.4 376.1,349.1 376,377.1 	"/>
	<polygon class="st2" points="388.2,328 376.7,379.9 390.8,353.8 	"/>
</g>
<polygon class="st2" points="482.9,346.1 461.4,353.5 498.4,353.5 "/>
<polyline class="st0" points="483.5,356.7 501.2,357 504.8,365.8 483.5,356.7 "/>
<polygon class="st0" points="503,357 509.6,359 515.6,381.9 "/>
<polygon class="st0" points="495.5,364.5 506.8,371.3 508,386.6 "/>
<polygon class="st0" points="510.4,376.1 516.6,389 509.4,409.3 "/>
<polygon class="st2" points="503.5,382.1 508,389 508.1,406.8 "/>
<polygon class="st2" points="504.6,397 507.9,410.7 502.3,419.8 "/>
<polygon class="st0" points="501.8,414.3 500.6,422.5 491.4,429.2 "/>
<polygon class="st0" points="492.7,424.6 488,430.3 476.2,429.6 "/>
<polygon class="st0" points="484,431.4 465.6,429.4 461.4,432.2 "/>
<polygon class="st0" points="463.6,429.3 460.3,431.3 452.8,423.8 "/>
<polygon class="st0" points="424.3,314.9 416.9,327.1 426.1,330.2 "/>
<polygon class="st0" points="419,331 444.9,339.2 427.1,346.1 "/>
<polygon class="st2" points="450,340.4 432.9,347.7 469.5,342.6 "/>
<polygon class="st0" points="435.1,349.9 448.6,353.7 474.4,345.4 "/>
<polygon class="st0" points="399.7,310 387.7,313.6 390.5,321.6 "/>
<polygon class="st0" points="374.5,313 364.7,330.3 373.9,344.5 "/>
<polygon class="st2" points="292.9,319.4 286.1,328.6 266.4,338.3 "/>
<polygon class="st2" points="284.2,333 274.7,341.7 261.6,341.7 "/>
<polygon class="st0" points="414.9,324.3 411.4,330 417.3,331.9 "/>
<polygon class="st0" points="427.9,330.9 438.5,335.2 435.1,327.6 "/>
<polygon class="st0" points="443.3,316.7 437.7,325.4 439.3,332.7 "/>
<polygon class="st0" points="439.9,335.8 445.5,334.2 444.5,318.3 "/>
<polygon class="st0" points="446.4,317.3 452.8,320.5 446.7,331 "/>
<polygon class="st0" points="444.4,293.5 449.9,283.5 449.1,290.5 "/>
<polygon class="st2" points="445.1,288.5 448.1,275.5 457.3,271 "/>
<polygon class="st0" points="444.6,314.7 452.8,318.8 449.4,298 "/>
<polygon class="st2" points="444.6,295.2 449.9,291.9 445,309.8 "/>
<polygon class="st0" points="456,275.7 459,271.3 471.9,275.3 "/>
<polygon class="st2" points="466.5,271.3 476.4,276.5 482.1,275.1 "/>
<polygon class="st0" points="478.8,278.1 486.2,284.5 482.5,276.5 "/>
<polygon class="st0" points="481.3,281.8 485.7,285.8 480.7,295 "/>
<polygon class="st0" points="479.2,289.3 470.3,297.6 479.2,293.6 "/>
<polygon class="st0" points="473.5,292.6 468.6,297.6 459.1,297.6 "/>
<polygon class="st0" points="470,291.9 453.7,290 458,296.3 "/>
<polygon class="st0" points="459.5,278.1 456.8,289.6 453.7,288.4 "/>
<polygon class="st0" points="460.2,282.5 461.8,277.7 472.8,279.1 "/>
<polygon class="st0" points="469,281.4 473.5,280 473.8,284.9 "/>
<polygon class="st0" points="467.8,282.1 472.8,285 469.8,286.4 "/>
<path class="st2" d="M244.9,256.9c-0.1,0.3-2.1,8-2.1,8l-22.1,4.1L244.9,256.9z"/>
<polygon class="st2" points="239.7,267.3 217.9,271.7 211.8,279.2 "/>
<polygon class="st0" points="242.1,268.8 229.1,274.6 228.9,285.1 "/>
<polygon class="st0" points="227.1,276 226.1,286.6 212.6,296 "/>
<polygon class="st0" points="224.8,275.8 211.9,282.1 211.7,294.2 "/>
<polygon class="st1" points="210.1,286.4 209.4,297.5 194.8,314.3 "/>
<path class="st0" d="M209.4,284c0,0.3-16.5,28.1-16.5,28.1l3.6-19.1L209.4,284z"/>
<polygon class="st2" points="212.9,274.1 206.8,283.1 196,290.8 "/>
<polygon class="st2" points="205.6,279.7 186.2,295.1 193.5,292.3 "/>
<polygon class="st2" points="192.9,294.7 185.4,297.9 175,315.2 "/>
<polygon class="st0" points="280.3,290.8 280.7,296.6 308.4,265.6 "/>
<polygon class="st0" points="282,299.5 282.9,310.1 307.2,270.2 "/>
<polygon class="st2" points="284.6,310.4 315.2,261.2 306.9,292.7 "/>
<polygon class="st2" points="402,280.9 412.3,290.4 405.2,307.1 "/>
<polygon class="st0" points="414.8,293.7 413.7,319.6 406.6,310 "/>
<polygon class="st0" points="417.4,297.5 415.5,322.1 423.2,311.4 "/>
<polygon class="st0" points="398.7,307.8 378.5,293.1 386.2,311.3 "/>
<polygon class="st2" points="360.4,271.1 374.7,289 361.4,277 "/>
<polygon class="st2" points="362.4,280.6 374.4,293 372.4,297.1 "/>
<polygon class="st0" points="362.5,284.7 355.5,318.4 371.6,299.2 "/>
<polygon class="st2" points="376.9,296.1 386.7,321 376.5,340.8 "/>
<path class="st0" d="M374.4,296.9l-11.2,32.2c0,0,11.1-19.1,10.9-17.5S374.4,296.9,374.4,296.9z"/>
<polygon class="st0" points="318.5,262 318.5,262.6 319.8,294.9 312.2,291 "/>
<polygon class="st0" points="331.4,270.3 334.7,310.4 347.8,315 "/>
<polygon class="st0" points="356.8,319.8 368.8,305.2 361.8,325.6 "/>
<polygon class="st1" points="400.9,304.4 400.9,319.6 409.2,329.1 "/>
<polygon class="st0" points="403.3,307.3 410.7,329.3 414.5,322.9 "/>
<polygon class="st1" points="426.7,245.2 434.5,250.8 419.6,254.9 "/>
<polygon class="st2" points="318,223.8 316.9,243.1 302.3,244 "/>
<polygon class="st2" points="315.7,223.5 301.9,242.9 302.8,233.5 "/>
<polygon class="st0" points="300.2,223.1 303.7,228.4 299.5,231.6 "/>
<polygon class="st0" points="372.8,262.5 398.5,277.7 400.7,302.5 "/>
<polygon class="st0" points="352,263.9 358.9,270.6 358.3,291.5 "/>
<polygon class="st0" points="299,222.6 296.6,231.3 283.1,229.5 "/>
<polygon class="st0" points="297.5,221 291.4,220 280.2,228.1 "/>
<polygon class="st0" points="285.8,221 258.9,226.7 273.9,228.7 "/>
<polygon class="st2" points="275,231.2 293.4,233.3 247.7,242.1 "/>
<polygon class="st0" points="298.9,234.7 282.2,245.6 248.5,244.5 "/>
<polygon class="st0" points="241.2,247.6 245.6,254.1 274.3,248.1 "/>
<polygon class="st2" points="273.3,250.1 246.6,256.6 245.4,264.8 "/>
<path class="st0" d="M273.5,252.3c-0.2,0.1-26.8,14-26.8,14l-9.3,13L273.5,252.3z"/>
<polygon class="st2" points="300.1,235.8 268.4,266.3 299.2,244.9 "/>
<polygon class="st0" points="236.8,284.5 279.5,250.8 244.6,284.9 "/>
<polygon class="st0" points="251.1,284.9 294,251.7 263.7,284.7 "/>
<polygon class="st1" points="301.1,247.4 316.2,245.2 269.5,283.7 "/>
<polygon class="st1" points="269.1,286.4 275.4,289 306,255.4 "/>
<polygon class="st0" points="317.5,246.6 315.9,255.9 282,286.2 "/>
<polygon class="st0" points="308.8,199.6 310.9,208.2 308.5,211.5 "/>
<polygon class="st1" points="307.3,202.3 307.2,209 298.7,217.9 "/>
<polygon class="st0" points="299.2,218.8 301.9,221.7 307.3,210.8 "/>
<polygon class="st0" points="302.5,222.4 311.2,209.3 316.3,207.7 "/>
<polygon class="st0" points="303.3,223.5 305,227.4 315,212.1 "/>
<polygon class="st0" points="317.1,211.6 316.9,220.9 305.6,229.5 "/>
<polygon class="st0" points="306,199.8 302.2,193.5 297.5,199.7 "/>
<polygon class="st0" points="298.9,195.4 293.3,203.5 292.3,201.8 "/>
<polygon class="st0" points="292,203.6 298.9,211.6 292.6,212 "/>
<polygon class="st0" points="292.6,212.9 299.9,212.4 296.4,216.6 "/>
<polygon class="st4" points="297.2,208.1 302,208.5 300,211.7 "/>
<polygon class="st4" points="300.2,207.4 302.5,207.6 306.3,202.2 "/>
<polygon class="st0" points="300.5,201 295.2,202.6 302.5,202.8 "/>
<polygon class="st5" points="295.7,204 301.1,204 298.1,206.6 "/>
<polygon class="st0" points="301.5,200.8 303.7,203 305.9,200.9 "/>
<polygon class="st1" points="363.1,253 399.5,304.2 379.1,289.4 "/>
<path class="st1" d="M354.5,238.6c0,0,22,49.8,22,50.5S360.4,268,360.4,268L354.5,238.6z"/>
<polygon class="st0" points="320.3,248.6 327.3,238.7 322.4,280.8 "/>
<polygon class="st0" points="328.3,250.6 330.9,310.4 322.5,319.6 "/>
<polygon class="st0" points="330.4,241.7 331.1,260.6 350.5,317 "/>
<polygon class="st0" points="334,245.5 354.1,316.8 356.2,301.2 "/>
<polygon class="st0" points="337.3,247.3 356.9,298.1 348,259.1 "/>
<polygon class="st2" points="329.3,212.7 354.8,263.1 329.5,233.5 "/>
<polygon class="st0" points="367.9,231.8 376.4,225.8 380,243.7 "/>
<polygon class="st1" points="380,225.4 394.5,225.8 413.7,255.2 "/>
<polygon class="st1" points="379.4,228.5 411.5,256.6 385.5,252.1 "/>
<polygon class="st1" points="382.3,251.2 371.1,249.1 353.3,232.3 "/>
<polygon class="st1" points="354.5,235.8 369.1,251 361.3,248.6 "/>
<polygon class="st1" points="362.7,250.7 370.5,253.5 372.1,261.4 "/>
<polygon class="st2" points="320.4,223.5 326.8,234.3 320.9,243.2 "/>
<polygon class="st0" points="335.8,203.2 334.3,215.1 348.2,227 "/>
<polygon class="st2" points="334.1,200.8 332.4,210.8 328.9,200.8 "/>
<polygon class="st2" points="327.3,202.6 327.1,208.4 331.6,212.5 "/>
<polygon class="st2" points="326.3,200.9 324.8,206.4 320.5,200.6 "/>
<polygon class="st2" points="318.3,194.6 317.5,199.3 311.7,205.3 "/>
<polygon class="st0" points="316.4,195.8 311,203.5 310.1,198.9 "/>
<polygon class="st2" points="312.8,206.7 317.5,201.7 316.4,206.7 "/>
<polygon class="st2" points="319.1,201.8 324,207.2 318.4,207.3 "/>
<polygon class="st2" points="318.5,209.4 325,208.8 319.2,217.2 "/>
<polygon class="st2" points="320.2,220.2 326.1,210.2 325.9,227.7 "/>
<polygon class="st2" points="333.5,216.3 350.4,232 356.4,260.3 "/>
<polygon class="st0" points="308.2,192.8 304.2,192.6 307.5,200.2 "/>
<polygon class="st2" points="336.2,166.6 347.3,176.4 330.1,184.1 "/>
<polygon class="st2" points="347.4,178.2 329.8,186.2 328.3,196.9 "/>
<polygon class="st2" points="337.9,190.4 328.9,198.7 334.3,198.5 "/>
<polygon class="st0" points="359.1,223 376.2,223.4 366.5,230.6 "/>
<polygon class="st1" points="350.7,217.8 351.8,228.6 379,246.3 "/>
<polygon class="st0" points="350.1,206.9 350,199.5 361.4,203.3 "/>
<polygon class="st0" points="364.2,203.4 368,199.3 374.5,206.8 "/>
<polygon class="st1" points="373.3,213.9 373.5,221.4 363.5,221.8 "/>
<polygon class="st0" points="356.4,196.4 379,193.7 381.6,198.8 "/>
<polygon class="st0" points="358.7,205.2 363.3,204.2 366.8,208.8 "/>
<polygon class="st0" points="371.8,199.4 381.3,200.4 385.5,211.3 "/>
<polygon class="st0" points="375.6,206.2 384,213.6 376.9,220.4 "/>
<polygon class="st0" points="360.2,206.9 357.6,205.6 352.9,212 "/>
<polygon class="st0" points="350.5,215.4 353.2,214 359,221.2 "/>
<polygon class="st4" points="357.3,218.3 366.2,216.3 359.6,220.9 "/>
<polygon class="st4" points="366.6,210.1 360.8,216.1 366.3,214.8 "/>
<polygon class="st5" points="357.1,210.9 362.8,211.1 359,215 "/>
<polygon class="st0" points="355.9,206.4 350.4,209.1 350.6,214.6 "/>
<polygon class="st0" points="357.9,209.3 366.2,209.5 360.9,207.5 "/>
<polygon class="st0" points="352.7,199 367.5,198.8 363.1,203.1 "/>
<polygon class="st0" points="365.8,205.2 374.2,208.3 374,212.7 "/>
<polygon class="st0" points="367.9,209.2 367.7,216.1 371.7,213 "/>
<polygon class="st1" points="434.7,234.9 430.3,241 449.5,236.8 "/>
<polygon class="st1" points="449.5,239.6 437.3,249.5 427.8,243.7 "/>
<polygon class="st1" points="454,202.6 459.1,213.4 454,229.9 "/>
<polygon class="st1" points="424.9,241 418.3,252.2 401.8,205.9 "/>
<polygon class="st1" points="453.5,202.2 435.9,232.2 450.1,233.7 "/>
<polygon class="st1" points="400,206 398.5,226.5 414.5,252.9 "/>
<polygon class="st0" points="340.4,188.8 351.1,188.1 335.8,198.8 "/>
<polygon class="st0" points="349.3,191.6 336.2,200.4 347.9,221.5 "/>
<polygon class="st0" points="352.3,189 351.5,196.4 367.3,182.2 "/>
<polygon class="st0" points="362.9,188.9 372.9,179.2 393.2,176.9 "/>
<polygon class="st1" points="441,191.6 426.9,240.3 418,224.4 "/>
<polygon class="st0" points="439.5,189.7 416.9,221 420.6,189 "/>
<polygon class="st0" points="437.1,187.2 418.2,178.3 401.7,186.1 "/>
<polygon class="st0" points="412.2,177.5 399.1,177.6 387.9,189.2 "/>
<polygon class="st0" points="395.7,177.6 360.7,192 380.1,192.5 "/>
<polygon class="st0" points="401.2,188.5 417.8,188.3 400.2,201.7 "/>
<polygon class="st0" points="391.4,190.2 398,187.8 389.1,211.2 "/>
<polygon class="st0" points="387.4,208.7 382.2,196 389.3,191.3 "/>
<polygon class="st0" points="389.7,214.6 395.8,223.2 398.8,192.4 "/>
<polygon class="st0" points="402,202.1 417.9,191 414.5,219.5 "/>
<polygon class="st0" points="443.1,192.3 452.2,201.1 433.5,230.9 "/>
<polygon class="st0" points="378.8,221.9 385.6,215.5 391.3,222.7 "/>
<polygon class="st2" points="327.3,188.9 326.3,198.9 320,199.1 "/>
<polygon class="st2" points="323.8,171.8 330.5,174.9 322.9,181.7 "/>
<polygon class="st2" points="322,171.7 321,183.1 315.6,183.9 "/>
<polygon class="st2" points="315.2,185.8 320.7,184.9 318.6,192.8 "/>
<polygon class="st2" points="322.2,186.5 328.7,179.2 326.1,187.8 "/>
<polygon class="st2" points="321.2,188.2 320,195.8 324.9,189.4 "/>
<polygon class="st0" points="310.6,189.9 314,185.8 313.4,194.7 "/>
<polygon class="st2" points="314.9,188 317.7,193.7 314.8,195.6 "/>
<polygon class="st0" points="309.8,191.8 313.2,195.9 310.1,197.8 "/>
<polygon class="st0" points="456.4,167.4 460.2,210.1 454.7,199.3 "/>
<polygon class="st0" points="443.4,189.4 452.5,198.8 445.7,161.3 "/>
<polygon class="st2" points="433.7,154.5 444,160.8 442,188.7 "/>
<polygon class="st2" points="431.9,181.5 440,187.7 431.8,154.4 "/>
<polygon class="st2" points="430.5,153.6 429.6,177.1 422,152.7 "/>
<polyline class="st2" points="420.2,153.2 428.4,179 419.2,176 420.2,153.2 "/>
<polygon class="st0" points="393.7,153.9 410.4,174 399.8,174.5 "/>
<polygon class="st2" points="391.1,153.5 397.1,173.4 380.1,157.8 "/>
<polygon class="st0" points="378.2,158.9 394.5,174.4 382.4,175 "/>
<polygon class="st0" points="375.2,159.2 379.8,176.1 373.2,176.8 "/>
<polygon class="st2" points="372.9,160.8 370.9,177.1 363.1,167.8 "/>
<polygon class="st2" points="361.6,168.9 368.7,178 356,183.2 "/>
<polygon class="st0" points="358.4,170.8 352,186.8 341.2,187.5 "/>
<polygon class="st0" points="446.9,162.3 454,197.4 455.4,168.2 "/>
<polygon class="st2" points="333.6,165.7 324.4,170.1 331.6,172.9 "/>
<polygon class="st2" points="454.6,164.9 432.6,152.4 445.4,152.5 "/>
<polygon class="st2" points="418.1,152.1 416.2,173.4 406.3,151.5 "/>
<polygon class="st2" points="402.5,150.6 395.1,152.4 412,173.3 "/>
<polygon class="st2" points="337.2,154.5 357.9,166.8 336.9,161.9 "/>
<polygon class="st2" points="430.7,143.9 431,150.7 443.1,150.2 "/>
<polygon class="st2" points="421.3,140.7 428.7,142.3 428.8,149.2 "/>
<polygon class="st2" points="426.8,149.5 418.3,140.5 407.1,148.1 "/>
<polygon class="st2" points="414.2,139.7 402.9,148.4 396.5,139.1 "/>
<polygon class="st2" points="394.3,139.2 399.7,148.9 393.3,150.6 "/>
<polygon class="st2" points="391.4,139.2 390.9,150.6 380.3,139.3 "/>
<polygon class="st2" points="377.6,140 389.5,151.8 377.5,154.8 "/>
<polygon class="st2" points="375.3,140.2 374.8,155.4 360.1,144 "/>
<polygon class="st2" points="357.9,145.3 372.9,156.5 343.2,152.3 "/>
<polygon class="st2" points="341.5,153.4 371.7,158.7 360.2,165.3 "/>
<polygon class="st0" points="337.6,164.3 357.3,168.9 348.8,175.1 "/>
<polygon class="st2" points="334.9,156.3 333.8,163.8 324.2,168.8 "/>
</svg>
